<?xml version="1.0" encoding="UTF-8"?>
<svg id="Layer_1" xmlns="http://www.w3.org/2000/svg" width="34" height="34" viewBox="0 0 34 34">
  <defs>
    <style>
      .cls-1 {
        fill: #A0CBEF;
      }

      .cls-2 {
        fill: #0b2139;
      }
    </style>
  </defs>
  <rect class="cls-1" width="34" height="34"/>
  <g>
    <g id="Layer_19">
      <path class="cls-2" d="M26.15,12.78h-2.82c-.39,0-.7.32-.7.7s.32.7.7.7h1.12l-6.05,6.05-2.32-2.32c-.27-.28-.72-.28-1,0,0,0,0,0,0,0l-6.34,6.34c-.28.27-.28.72,0,1,0,0,0,0,0,0,.27.28.72.28,1,0,0,0,0,0,0,0l5.84-5.84,2.32,2.32c.27.28.72.28,1,0,0,0,0,0,0,0l6.54-6.55v1.12c0,.39.32.7.7.7s.7-.32.7-.7v-2.82c0-.39-.32-.7-.7-.7h0Z"/>
      <path class="cls-2" d="M10.35,20.39c.11.06.22.09.34.09.25,0,.49-.14.61-.36.19-.34.07-.77-.27-.96-2.37-1.35-3.19-4.35-1.85-6.72s4.35-3.19,6.72-1.85c1.54.88,2.49,2.51,2.49,4.29,0,.85-.22,1.69-.65,2.43-.19.34-.08.77.26.96.34.19.77.08.96-.26,1.73-3.04.67-6.91-2.37-8.64-3.04-1.73-6.91-.67-8.64,2.37-1.73,3.04-.67,6.91,2.37,8.64,0,0,0,0,.01,0Z"/>
    </g>
    <path class="cls-2" d="M13.66,14.01h-.76c-.24,0-.44-.2-.44-.44s.2-.44.44-.44h.76c.24,0,.44.2.44.44,0,.28.23.5.5.5s.5-.23.5-.5c0-.76-.58-1.38-1.33-1.45v-.43c0-.28-.23-.5-.5-.5s-.5.23-.5.5v.43c-.74.06-1.33.69-1.33,1.45,0,.8.65,1.45,1.45,1.45h.76c.24,0,.44.2.44.44s-.2.44-.44.44h-.76c-.24,0-.44-.2-.44-.44,0-.28-.23-.5-.5-.5s-.5.23-.5.5c0,.76.58,1.38,1.33,1.45v.43c0,.28.23.5.5.5s.5-.23.5-.5v-.43c.74-.06,1.33-.69,1.33-1.45,0-.8-.65-1.45-1.45-1.45Z"/>
  </g>
</svg>