<svg width="34" height="34" viewBox="0 0 34 34" fill="none" xmlns="http://www.w3.org/2000/svg">
<g clip-path="url(#clip0_93_2)">
<path d="M34 0H0V34H34V0Z" fill="#A0CBEF"/>
<path d="M11.9841 7.06981C10.7671 7.35346 9.70573 8.18611 9.14759 9.3207C8.81819 9.98865 8.73584 10.3821 8.73584 11.1781C8.74499 12.2212 9.00119 12.9807 9.62338 13.7767C10.3554 14.71 11.4534 15.2682 12.7069 15.3505L13.201 15.3871V15.0577C13.201 14.4904 13.201 14.4996 12.6703 14.4538C11.3344 14.3623 10.209 13.4839 9.76063 12.1663C9.57763 11.6265 9.57763 10.7206 9.76978 10.1442C10.0809 9.1743 10.8769 8.36911 11.8468 8.03056C12.2311 7.89331 13.1644 7.84756 13.6036 7.93906C14.0154 8.02141 14.6193 8.32336 14.9853 8.61615C15.2414 8.81745 15.6166 9.2658 15.8087 9.60435C15.8636 9.69585 15.8911 9.6867 16.2479 9.53115C16.4584 9.43965 16.6231 9.32985 16.6231 9.29325C16.6231 9.1377 16.1381 8.4972 15.7538 8.13121C15.2689 7.67371 14.7748 7.37176 14.1709 7.17961C13.6311 6.99661 12.5422 6.94171 11.9841 7.06981Z" fill="#0B2139"/>
<path d="M18.6266 9.7507C16.4855 9.97944 14.6647 11.5898 14.1523 13.7126C13.9785 14.4172 13.9785 15.4237 14.1432 16.1191C14.6739 18.2693 16.4855 19.8614 18.6632 20.081C20.4932 20.264 22.2866 19.4771 23.3663 18.0131C24.3636 16.6589 24.6564 14.9113 24.1532 13.3375C23.3937 10.9859 21.0971 9.4945 18.6266 9.7507ZM20.2187 10.7389C20.722 10.8487 21.5272 11.2604 21.9481 11.6081C23.4578 12.8525 23.9244 15.0577 23.0552 16.8236C22.5062 17.9307 21.3991 18.8274 20.1913 19.1202C19.6148 19.2575 18.6815 19.2483 18.1142 19.0928C16.2842 18.5895 15.0307 17.0524 14.9026 15.1766C14.7379 12.6604 16.8698 10.4827 19.3769 10.6291C19.6423 10.6382 20.0174 10.684 20.2187 10.7389Z" fill="#0B2139"/>
<path d="M9.26653 14.8929C7.86659 15.7347 6.86009 16.9974 6.33855 18.5621C6.183 19.0196 6 19.7699 6 19.9437C6 19.9986 6.13725 20.0352 6.4026 20.081C6.84179 20.145 6.89669 20.1359 6.89669 19.9895C6.89669 19.7699 7.18034 18.7817 7.37249 18.3516C7.75679 17.4641 8.47048 16.5582 9.22078 16.0001L9.54103 15.7622L9.92533 16.055C10.4011 16.421 11.0691 16.7504 11.6547 16.8968C12.2769 17.0523 13.6402 17.0432 13.8049 16.8785C13.8232 16.8602 13.7958 16.668 13.7409 16.4484L13.6402 16.0458L13.3566 16.0916C12.1305 16.2654 11.0691 15.936 10.1998 15.0942C9.94363 14.8472 9.72403 14.6459 9.71488 14.655C9.69658 14.6459 9.49528 14.7648 9.26653 14.8929Z" fill="#0B2139"/>
<path d="M8.30572 20.4927C7.11623 21.6273 6.53979 22.222 6.54894 22.2861C6.55809 22.341 6.63128 22.524 6.70448 22.6978L6.84173 23.0089L7.58288 23.0272L8.32402 23.0455L8.43382 23.4664C8.81812 24.9578 9.89781 26.2937 11.3435 27.0806C11.9657 27.4192 13.3565 27.9041 13.7042 27.9041C13.7591 27.9041 13.8414 27.7669 13.9329 27.5564C14.0153 27.3551 14.0793 27.1813 14.0885 27.1721C14.0976 27.1538 13.9055 26.9708 13.6584 26.7695C12.716 25.9826 12.1945 24.9944 11.984 23.6586C11.9383 23.3475 11.9017 23.0821 11.9017 23.0547C11.9017 23.0364 12.2311 22.9998 12.6428 22.9998L13.3748 22.9815L13.5303 22.5972L13.6859 22.222L11.9108 20.5201C10.9409 19.5868 10.1266 18.8182 10.0991 18.8091C10.09 18.8091 9.27562 19.5594 8.30572 20.4927ZM11.1971 21.0783L12.2677 22.1122L11.6363 22.1214H11.005V22.5057C11.005 23.9056 11.3801 25.3421 11.9566 26.1931C12.0572 26.3303 12.1213 26.4493 12.103 26.4493C12.0847 26.4493 11.9291 26.3761 11.7461 26.2846C11.005 25.9094 10.2272 25.1683 9.79717 24.4363C9.51352 23.9605 9.23902 23.1462 9.13837 22.5423L9.07432 22.1122H8.51617C8.21423 22.1122 7.96718 22.0939 7.98548 22.0573C8.00378 21.9933 10.0717 20.026 10.1083 20.026C10.1174 20.0352 10.6207 20.5018 11.1971 21.0783Z" fill="#0B2139"/>
<path d="M14.8938 19.6235C14.3357 19.962 13.8416 20.3189 13.503 20.6208L13.2285 20.877L13.5305 21.1881L13.8324 21.4992L14.235 21.1698C14.7932 20.7123 15.1592 20.4744 15.2415 20.511C15.2781 20.5293 15.4703 20.6849 15.6716 20.8587C15.8728 21.0234 16.2754 21.2888 16.5682 21.4443C17.8584 22.1214 19.3315 22.277 20.7406 21.8927C21.3445 21.728 22.2046 21.2796 22.7445 20.8496L23.2111 20.4744L23.5863 20.7306C24.9587 21.6548 25.9103 22.9632 26.377 24.5645C26.5417 25.1226 26.6881 26.1657 26.6881 26.7147V27.0716H21.0334H15.3788V27.4924V27.9133H21.4452H27.5116L27.5482 27.7395C27.5665 27.648 27.5848 27.3095 27.5848 26.9984C27.5848 23.6678 26.1299 21.0875 23.3484 19.532L23.019 19.349L22.5889 19.7607C21.8935 20.4378 21.1981 20.8313 20.2923 21.0783C19.725 21.2247 18.5995 21.2156 17.9956 21.0509C17.1264 20.8221 16.4127 20.4012 15.7539 19.7424C15.5435 19.532 15.3513 19.3581 15.333 19.3581C15.3239 19.3581 15.1226 19.4771 14.8938 19.6235Z" fill="#0B2139"/>
</g>
<defs>
<clipPath id="clip0_93_2">
<rect width="34" height="34" fill="white"/>
</clipPath>
</defs>
</svg>
