<?xml version="1.0" encoding="UTF-8"?>
<svg id="Layer_1" xmlns="http://www.w3.org/2000/svg" width="34" height="34" viewBox="0 0 34 34">
  <defs>
    <style>
      .cls-1 {
        fill: #A0CBEF;
      }

      .cls-2 {
        fill: #0b2139;
      }
    </style>
  </defs>
  <rect class="cls-1" width="34" height="34"/>
  <g>
    <path class="cls-2" d="M19.94,14.26c-.21,0-.39-.17-.39-.39,0-.22-.18-.4-.4-.4s-.4.18-.4.4c0,.52.33.96.79,1.12v.57c0,.22.18.4.4.4s.4-.18.4-.4v-.57c.46-.17.79-.61.79-1.12,0-.66-.54-1.19-1.19-1.19-.21,0-.39-.17-.39-.39s.17-.39.39-.39.39.17.39.39c0,.22.18.4.4.4s.4-.18.4-.4c0-.52-.33-.96-.79-1.12v-.49c0-.22-.18-.4-.4-.4s-.4.18-.4.4v.49c-.46.17-.79.61-.79,1.12,0,.66.54,1.19,1.19,1.19.21,0,.39.17.39.39s-.17.39-.39.39Z"/>
    <path class="cls-2" d="M14.06,17.49c.51,0,1-.08,1.47-.25.46.16.95.25,1.47.25s1-.08,1.47-.25c.46.16.95.25,1.47.25,2.43,0,4.41-1.98,4.41-4.41,0-1.18-.46-2.29-1.29-3.13-.83-.84-1.94-1.31-3.12-1.31-.51,0-1,.09-1.47.25-.47-.17-.97-.25-1.47-.25s-1,.09-1.47.25c-.47-.17-.97-.25-1.47-.25-1.18,0-2.28.47-3.12,1.31-.83.84-1.29,1.95-1.29,3.13,0,2.43,1.98,4.41,4.41,4.41ZM23.37,13.08c0,1.89-1.54,3.43-3.43,3.43s-3.43-1.54-3.43-3.43,1.54-3.46,3.43-3.46,3.43,1.55,3.43,3.46ZM17.18,9.62c-.12.1-.24.21-.36.33-.83.84-1.29,1.95-1.29,3.13,0,1.38.64,2.62,1.64,3.43-.06,0-.11,0-.17,0-1.89,0-3.43-1.54-3.43-3.43s1.54-3.46,3.43-3.46c.06,0,.12,0,.18,0ZM14.06,9.62c.06,0,.12,0,.18,0-.12.1-.24.21-.36.33-.83.84-1.29,1.95-1.29,3.13,0,1.38.64,2.62,1.64,3.43-.06,0-.11,0-.17,0-1.89,0-3.43-1.54-3.43-3.43s1.54-3.46,3.43-3.46Z"/>
    <path class="cls-2" d="M24.49,20.46c-.55-.34-1.22-.37-1.79-.08l-3.23,1.6c-.02-.28-.09-.56-.2-.82-.26-.58-.74-1.04-1.35-1.28l-2.92-1.17c-.39-.16-.81-.24-1.24-.24-.51,0-1.03.12-1.49.35l-.69.33v-.19c0-.27-.22-.49-.49-.49h-1.96c-.27,0-.49.22-.49.49v4.9c0,.27.22.49.49.49h1.96c.27,0,.49-.22.49-.49v-.65l4.32,1.74c.67.27,1.38.4,2.1.4.89,0,1.78-.21,2.56-.6h0s4.54-2.3,4.54-2.3c.16-.08.27-.25.27-.44,0-.64-.33-1.23-.87-1.57ZM9.62,23.37v-3.92h.98v3.04s0,0,0,0v.87h-.98ZM20.11,23.89c-.64.32-1.39.49-2.12.49-.6,0-1.18-.11-1.73-.33l-4.68-1.89v-1.91l1.12-.54h0c.32-.16.69-.25,1.05-.25.3,0,.59.06.87.17l2.92,1.17c.6.24.96.8.94,1.39l-2.68-1.03c-.25-.1-.54.03-.63.28-.1.25.03.54.28.63l3.21,1.23s.01,0,.02,0c0,0,.02,0,.03,0,0,0,.01,0,.02,0,.01,0,.02,0,.03,0,0,0,.01,0,.02,0,.01,0,.02,0,.03,0,0,0,.01,0,.02,0,0,0,.01,0,.02,0s.01,0,.02,0c0,0,0,0,0,0,.03,0,.06,0,.09-.01,0,0,0,0,.01,0,.01,0,.02,0,.04-.01,0,0,0,0,0,0,.01,0,.03-.01.04-.02,0,0,0,0,0,0l4.08-2.02c.27-.14.58-.12.84.04.18.11.3.27.37.46l-4.22,2.14Z"/>
  </g>
</svg>