<?xml version="1.0" encoding="UTF-8"?>
<svg id="Layer_1" xmlns="http://www.w3.org/2000/svg" width="34" height="34" viewBox="0 0 34 34">
  <defs>
    <style>
      .cls-1 {
        fill: #A0CBEF;
      }

      .cls-2 {
        fill: #0b2139;
      }
    </style>
  </defs>
  <rect class="cls-1" width="34" height="34"/>
  <path class="cls-2" d="M25.05,17.83v-1.43c0-.78-.51-1.48-1.24-1.73v-2c0-1.01-.82-1.83-1.83-1.83h-1.79c-.45-.89-1.2-1.62-2.1-2.06-1.11-.54-2.36-.62-3.53-.21-1.14.39-2.07,1.2-2.61,2.27h-1.17c-1.35,0-2.46,1.1-2.46,2.46v10.57c0,1.01.82,1.83,1.83,1.83h13.05c1.01,0,1.83-.82,1.83-1.83v-1.43c.38-.21.62-.61.62-1.05v-2.49c0-.44-.24-.84-.62-1.05ZM16.09,10.65h0s0,0,0,0ZM17.17,13.58c-.28-.22-.59-.32-.87-.41l-.05-.02c-.23-.08-.49-.17-.62-.27-.1-.08-.15-.13-.15-.38,0-.35.74-.42,1.07-.24.11.06.17.14.17.24,0,.27.22.5.5.5s.5-.22.5-.5c0-.62-.42-1.1-1.11-1.27v-.21c0-.27-.22-.5-.49-.5h-.01c-.27,0-.49.23-.49.5v.21c-.69.17-1.11.64-1.11,1.27,0,.47.2.89.54,1.16.28.22.59.32.86.41l.05.02c.23.08.49.17.62.27.07.05.12.1.14.2h-1.25c-.07-.19-.24-.33-.45-.33-.21,0-.39.13-.47.33h-1.52c-.26-.49-.39-1.03-.39-1.58,0-1.9,1.55-3.45,3.45-3.45s3.45,1.55,3.45,3.45c0,.55-.13,1.1-.39,1.58h-1.44c-.04-.39-.23-.76-.52-.98ZM20.6,12.02h1.38c.36,0,.65.29.65.65v1.9h-2.21c.31-.81.37-1.7.18-2.55ZM23.87,17.67h-.65c-1.35,0-2.46,1.1-2.46,2.46s1.1,2.46,2.46,2.46h.65v1.27c0,.36-.29.65-.65.65h-13.05c-.36,0-.65-.29-.65-.65v-8.47c.38.23.82.36,1.26.36h12.45c.36,0,.65.29.65.65v1.27ZM23.22,18.86h1.24s.03.01.03.03v2.49s-.01.03-.03.03h-1.24c-.7,0-1.27-.57-1.27-1.27s.57-1.27,1.27-1.27ZM11.72,14.56h-.94c-.7,0-1.27-.57-1.27-1.27s.57-1.27,1.27-1.27h.76c-.19.85-.12,1.74.18,2.55Z"/>
</svg>