<?xml version="1.0" encoding="UTF-8"?>
<svg id="Layer_1" xmlns="http://www.w3.org/2000/svg" width="34" height="34" viewBox="0 0 34 34">
  <defs>
    <style>
      .cls-1 {
        fill: #87edf7;
      }

      .cls-2 {
        fill: #0b2139;
      }
    </style>
  </defs>
  <rect class="cls-1" width="34" height="34"/>
  <g>
    <path class="cls-2" d="M22.04,14.57s.01.06.03.09h0s.03.06.05.09l.02.03s.02.03.03.03c.01,0,.02.02.03.03.01.01.03.02.04.03.02.02.05.03.08.04.03,0,.05.02.09.03h.04s.03,0,.04,0,.03,0,.04,0c.01,0,.03,0,.05,0,.03,0,.06-.02.08-.03.03-.01.05-.03.08-.04.01,0,.03-.02.03-.03.01,0,.02-.02.04-.03.01-.01.02-.02.03-.03.01-.01.02-.03.03-.04.02-.02.03-.05.04-.08.01-.03.02-.06.03-.09,0-.01,0-.03,0-.04,0-.02,0-.03,0-.05s0-.03,0-.04c0-.01,0-.03,0-.05,0-.03-.01-.06-.03-.09-.01-.03-.03-.05-.04-.08l-.06-.07s-.02-.02-.03-.02c-.01-.01-.03-.02-.04-.04-.02-.02-.05-.03-.08-.04-.03,0-.05-.02-.09-.03h-.04s-.06,0-.09,0c-.01,0-.03,0-.05,0-.03,0-.05.01-.08.03-.03.01-.05.03-.08.04-.01,0-.03.02-.04.03l-.09.1s-.03.05-.04.08c-.01.03-.02.06-.03.08,0,.02,0,.03,0,.04,0,.02,0,.03,0,.05s0,.03,0,.04c0,.02,0,.03,0,.04ZM22.53,14.82h0s0,0,0,0ZM22.28,14.22s0,0,0,0h0s0,0,0,0ZM22.21,14.29s0,0,0,0h0s0,0,0,0Z"/>
    <path class="cls-2" d="M12.11,14.41v-.28h.21c.12.08.23.16.35.23v2.7c0,.56.46,1.01,1.02,1.01h10.57c.56,0,1.01-.45,1.01-1.01v-5.15c0-.56-.45-1.01-1.01-1.01h-4.41l-1.66-1.28c-.46-.35-1.04-.55-1.62-.55h-4.45v-.08c0-.25-.21-.46-.47-.46h-2.98c-.25,0-.46.21-.46.46v5.43c0,.25.21.46.46.46h2.98c.25,0,.47-.21.47-.46ZM11.18,9.44v4.5h-2.06v-4.5h2.06ZM23.88,11.81h.37s.08.04.08.09v.37c-.2-.1-.36-.26-.46-.46ZM24.33,16.68v.38s-.03.08-.08.08h-.37c.1-.2.26-.36.46-.46ZM18.09,13.68c.22-.24.55-.39.88-.39.65,0,1.18.53,1.18,1.19s-.53,1.18-1.18,1.18c-.39,0-.74-.18-.96-.49.09-.11.16-.22.21-.36.14-.38.09-.81-.12-1.14ZM13.6,14.84c.63.28,1.28.48,1.94.6l1.23.21h.03c.12.01.25.02.4,0,.39.59,1.04.94,1.76.94,1.17,0,2.11-.95,2.11-2.11s-.95-2.12-2.11-2.12c-.61,0-1.2.27-1.6.73l-1.5-.82c-.08-.04-.12-.12-.12-.21,0-.13.11-.24.24-.24h6.91c.16.71.72,1.27,1.43,1.44v2.44c-.71.17-1.27.73-1.43,1.44h-7.86c-.16-.71-.73-1.27-1.44-1.44v-.85ZM15.99,10.89c-.64,0-1.17.52-1.17,1.17,0,.42.23.81.6,1.02l1.75.96c.16.09.23.28.16.46-.06.16-.23.26-.4.23l-1.23-.21c-1.06-.18-2.09-.61-2.98-1.23-.07-.06-.17-.09-.27-.09h-.35v-3.21h4.45c.37,0,.75.13,1.05.36l.71.55h-2.33ZM13.6,16.68c.2.1.36.26.46.46h-.37s-.09-.04-.09-.08v-.38Z"/>
    <path class="cls-2" d="M25.34,19.13h-2.98c-.17,0-.33.1-.41.25-.42-.19-.88-.28-1.35-.28-1,0-1.93.44-2.57,1.2l-.3.36h-1.93c-.72,0-1.3.58-1.3,1.3,0,.03,0,.06,0,.09-.22-.12-.42-.26-.6-.44l-1.65-1.65c-.51-.51-1.33-.51-1.84,0-.25.25-.39.57-.39.92,0,.35.14.68.38.93l1.84,1.84c.46.46.99.81,1.59,1.06.6.25,1.23.37,1.87.37h6.19c.03.23.22.41.46.41h2.98c.26,0,.46-.21.46-.46v-5.43c0-.26-.21-.46-.46-.46ZM22.82,24.56v-4.5h2.06v4.5h-2.06ZM19.49,23.26c.26,0,.46-.21.46-.46s-.21-.46-.46-.46h-3.69c-.21,0-.38-.17-.38-.38s.17-.38.38-.38h2.14c.14,0,.27-.06.35-.17l.44-.53c.46-.55,1.14-.87,1.86-.87.46,0,.9.13,1.29.37v3.76h-6.18c-1.06,0-2.06-.41-2.81-1.16l-1.84-1.84c-.07-.07-.11-.17-.11-.27,0-.1.04-.2.11-.27.07-.07.17-.11.27-.11s.19.04.27.11l1.65,1.65c.64.65,1.5,1,2.41,1h3.83Z"/>
  </g>
</svg>