<?xml version="1.0" encoding="UTF-8"?>
<svg id="Layer_1" xmlns="http://www.w3.org/2000/svg" width="34" height="34" viewBox="0 0 34 34">
  <defs>
    <style>
      .cls-1 {
        fill: #87edf7;
      }

      .cls-2 {
        fill: #0b2139;
      }
    </style>
  </defs>
  <rect class="cls-1" width="34" height="34"/>
  <g id="Wallet">
    <path class="cls-2" d="M26,13.3v-1.71c0-1.63-1.32-2.95-2.95-2.95h-11.53c-1.63,0-2.95,1.32-2.95,2.95v3.8c0,.33.26.59.59.59s.59-.26.59-.59v-3.8c0-.98.79-1.77,1.77-1.77h11.54c.98,0,1.77.79,1.77,1.77v1.63h-1.78c-1.6,0-2.9,1.3-2.9,2.9h0c0,1.6,1.3,2.9,2.9,2.9h1.78v1.63c0,.98-.79,1.77-1.77,1.77h-5.93c-.33,0-.59.26-.59.59s.26.59.59.59h5.93c1.63,0,2.95-1.32,2.95-2.95v-1.71c.46-.17.8-.61.8-1.14v-3.38c0-.52-.33-.96-.8-1.14ZM21.32,16.12v-.2c0-.84.68-1.52,1.52-1.52l2.78.03v3.38s-.01.03-.03.03h-2.54c-.95,0-1.72-.77-1.72-1.72Z"/>
    <path class="cls-2" d="M11.3,16.88c-1.97,0-4.1.61-4.1,1.95v4.58c0,.78.74,1.39,2.09,1.72.6.15,1.3.23,2.01.23s1.4-.08,2.01-.23c1.35-.33,2.09-.94,2.09-1.72v-4.58c0-1.34-2.13-1.95-4.1-1.95ZM14.22,21.11c-.03.07-.31.36-1.19.58-1.02.26-2.44.26-3.45,0-.89-.22-1.17-.52-1.19-.57v-.88c.27.12.57.22.91.3.6.15,1.29.23,2,.23s1.4-.08,2-.22c.35-.08.65-.19.92-.31v.87h0ZM11.3,18.06c1.82,0,2.81.54,2.91.76-.04.08-.34.37-1.19.57-1.02.25-2.4.25-3.44,0-.89-.21-1.17-.51-1.19-.55h0c.07-.22,1.07-.78,2.91-.78ZM14.22,23.4c-.02.06-.29.36-1.19.58-1.03.25-2.43.25-3.46,0-.9-.22-1.17-.52-1.19-.57v-.87c.26.12.56.22.9.3,1.19.3,2.83.3,4.02,0,.34-.08.65-.18.91-.3v.86h0Z"/>
    <path class="cls-2" d="M15.75,11.72h-3.39c-.33,0-.59.26-.59.59s.26.59.59.59h3.39c.33,0,.59-.26.59-.59s-.26-.59-.59-.59Z"/>
  </g>
</svg>