<svg width="34" height="34" viewBox="0 0 34 34" fill="none" xmlns="http://www.w3.org/2000/svg">
<g clip-path="url(#clip0_107_91)">
<path d="M34 0H0V34H34V0Z" fill="url(#paint0_linear_107_91)"/>
<path d="M21 25.9999V23.9999C21 22.939 20.5786 21.9216 19.8284 21.1715C19.0783 20.4213 18.0609 19.9999 17 19.9999H11C9.93913 19.9999 8.92172 20.4213 8.17157 21.1715C7.42143 21.9216 7 22.939 7 23.9999V25.9999M27 25.9999V23.9999C26.9993 23.1136 26.7044 22.2527 26.1614 21.5522C25.6184 20.8517 24.8581 20.3515 24 20.1299M21 8.12988C21.8604 8.35018 22.623 8.85058 23.1676 9.55219C23.7122 10.2538 24.0078 11.1167 24.0078 12.0049C24.0078 12.8931 23.7122 13.756 23.1676 14.4576C22.623 15.1592 21.8604 15.6596 21 15.8799M14 11.9999C12.9391 11.9999 11.9217 12.4213 11.1716 13.1715C10.4214 13.9216 10 14.939 10 15.9999C10 17.0607 10.4214 18.0782 11.1716 18.8283C11.9217 19.5785 12.9391 19.9999 14 19.9999C15.0609 19.9999 16.0783 19.5785 16.8284 18.8283C17.5786 18.0782 18 17.0607 18 15.9999C18 14.939 17.5786 13.9216 16.8284 13.1715C16.0783 12.4213 15.0609 11.9999 14 11.9999Z" stroke="white" stroke-width="2"/>
</g>
<defs>
<linearGradient id="paint0_linear_107_91" x1="1" y1="1" x2="34" y2="34" gradientUnits="userSpaceOnUse">
<stop offset="0.00733804" stop-color="#6166FF"/>
<stop offset="1" stop-color="#539BFF"/>
</linearGradient>
<clipPath id="clip0_107_91">
<rect width="34" height="34" fill="white"/>
</clipPath>
</defs>
</svg>
