<svg width="34" height="34" viewBox="0 0 34 34" fill="none" xmlns="http://www.w3.org/2000/svg">
<g clip-path="url(#clip0_108_166)">
<path d="M34 0H0V34H34V0Z" fill="url(#paint0_linear_108_166)"/>
<path d="M11.9 14.88V14.6H12.11C12.23 14.68 12.34 14.76 12.46 14.83V17.53C12.46 18.09 12.92 18.54 13.48 18.54H24.05C24.61 18.54 25.06 18.09 25.06 17.53V12.38C25.06 11.82 24.61 11.37 24.05 11.37H19.64L17.98 10.09C17.52 9.74 16.94 9.54 16.36 9.54H11.91V9.46C11.91 9.21 11.7 9 11.44 9H8.46C8.21 9 8 9.21 8 9.46V14.89C8 15.14 8.21 15.35 8.46 15.35H11.44C11.69 15.35 11.91 15.14 11.91 14.89L11.9 14.88Z" fill="white"/>
<path d="M24.32 19.6003H21.34C21.17 19.6003 21.01 19.7003 20.93 19.8503C20.51 19.6603 20.05 19.5703 19.58 19.5703C18.58 19.5703 17.65 20.0103 17.01 20.7703L16.71 21.1303H14.78C14.06 21.1303 13.48 21.7103 13.48 22.4303C13.48 22.4603 13.48 22.4903 13.48 22.5203C13.26 22.4003 13.06 22.2603 12.88 22.0803L11.23 20.4303C10.72 19.9203 9.9 19.9203 9.39 20.4303C9.14 20.6803 9 21.0003 9 21.3503C9 21.7003 9.14 22.0303 9.38 22.2803L11.22 24.1203C11.68 24.5803 12.21 24.9303 12.81 25.1803C13.41 25.4303 14.04 25.5503 14.68 25.5503H20.87C20.9 25.7803 21.09 25.9603 21.33 25.9603H24.31C24.57 25.9603 24.77 25.7503 24.77 25.5003V20.0703C24.77 19.8103 24.56 19.6103 24.31 19.6103L24.32 19.6003Z" fill="white"/>
</g>
<defs>
<linearGradient id="paint0_linear_108_166" x1="1" y1="1" x2="34" y2="34" gradientUnits="userSpaceOnUse">
<stop offset="0.00733804" stop-color="#2488FF"/>
<stop offset="1" stop-color="#00CBF5"/>
</linearGradient>
<clipPath id="clip0_108_166">
<rect width="34" height="34" fill="white"/>
</clipPath>
</defs>
</svg>
