<svg width="34" height="34" viewBox="0 0 34 34" fill="none" xmlns="http://www.w3.org/2000/svg">
<g clip-path="url(#clip0_109_179)">
<path d="M34 0H0V34H34V0Z" fill="url(#paint0_linear_109_179)"/>
<path d="M26 17V12H10C9.46957 12 8.96086 11.7893 8.58579 11.4142C8.21071 11.0391 8 10.5304 8 10C8 9.46957 8.21071 8.96086 8.58579 8.58579C8.96086 8.21071 9.46957 8 10 8H24V12" stroke="white" stroke-width="2"/>
<path d="M8 10V24C8 24.5304 8.21071 25.0391 8.58579 25.4142C8.96086 25.7893 9.46957 26 10 26H26V21" stroke="white" stroke-width="2"/>
<path d="M12.8984 22.5001V20.9967C12.8984 20.9405 12.944 20.895 13.0001 20.895C13.0563 20.895 13.1018 20.9405 13.1018 20.9967V22.5001L13.1024 22.5205C13.113 22.731 13.287 22.8984 13.5001 22.8984H20.5001C20.7201 22.8984 20.8984 22.7201 20.8984 22.5001V20.9967C20.8984 20.9405 20.944 20.895 21.0001 20.895C21.0563 20.895 21.1018 20.9405 21.1018 20.9967V22.5001C21.1018 22.8324 20.8324 23.1018 20.5001 23.1018H13.5001C13.1782 23.1018 12.9153 22.8489 12.8992 22.531L12.8984 22.5001Z" fill="white" stroke="white" stroke-linecap="round" stroke-linejoin="round"/>
<path d="M20.6026 18.6477C20.6413 18.6071 20.7057 18.6056 20.7463 18.6443C20.787 18.683 20.7886 18.7474 20.7498 18.7881L19.2259 20.3871C19.2068 20.4073 19.1801 20.4187 19.1523 20.4187C19.1245 20.4187 19.098 20.4073 19.0788 20.3871L17.5549 18.7881C17.5162 18.7474 17.5177 18.683 17.5584 18.6443C17.599 18.6055 17.6634 18.6071 17.7022 18.6477L19.1523 20.1696L20.6026 18.6477Z" fill="white" stroke="white" stroke-width="0.6" stroke-linecap="round" stroke-linejoin="round"/>
<path d="M19.0505 19.9792V17.4763C19.0505 16.1649 17.9874 15.1018 16.6761 15.1018C15.3647 15.1018 14.3015 16.1649 14.3015 17.4763V19.9792C14.3015 20.0354 14.256 20.0809 14.1998 20.0809C14.1437 20.0809 14.0981 20.0354 14.0981 19.9792V17.4763C14.0982 16.0526 15.2523 14.8984 16.6761 14.8984C18.0998 14.8985 19.2539 16.0526 19.2539 17.4763V19.9792C19.2539 20.0354 19.2084 20.0809 19.1522 20.0809C19.0961 20.0809 19.0505 20.0354 19.0505 19.9792Z" fill="white" stroke="white" stroke-linecap="round" stroke-linejoin="round"/>
</g>
<defs>
<linearGradient id="paint0_linear_109_179" x1="1" y1="1" x2="34" y2="34" gradientUnits="userSpaceOnUse">
<stop offset="0.00733804" stop-color="#02BD54"/>
<stop offset="1" stop-color="#00D389"/>
</linearGradient>
<clipPath id="clip0_109_179">
<rect width="34" height="34" fill="white"/>
</clipPath>
</defs>
</svg>
