<?xml version="1.0" encoding="UTF-8"?>
<svg id="Layer_1" xmlns="http://www.w3.org/2000/svg" width="278.02" height="78.32" xmlns:xlink="http://www.w3.org/1999/xlink" viewBox="0 0 278.02 78.32">
  <defs>
    <style>
      .cls-1 {
        fill: url(#linear-gradient-13);
      }

      .cls-2 {
        fill: url(#linear-gradient-2);
      }

      .cls-3 {
        fill: url(#linear-gradient-10);
      }

      .cls-4 {
        fill: url(#linear-gradient-12);
      }

      .cls-5 {
        fill: url(#linear-gradient-4);
      }

      .cls-6 {
        fill: url(#linear-gradient-3);
      }

      .cls-7 {
        fill: url(#linear-gradient-5);
      }

      .cls-8 {
        fill: url(#linear-gradient-8);
      }

      .cls-9 {
        fill: url(#linear-gradient-7);
      }

      .cls-10 {
        fill: url(#linear-gradient-9);
      }

      .cls-11 {
        fill: url(#linear-gradient-11);
      }

      .cls-12 {
        fill: url(#linear-gradient-6);
      }

      .cls-13 {
        fill: url(#linear-gradient);
      }
    </style>
    <linearGradient id="linear-gradient" x1="14.95" y1="55.88" x2="14.95" y2="21.68" gradientUnits="userSpaceOnUse">
      <stop offset="0" stop-color="#a1ebf6"/>
      <stop offset=".16" stop-color="#96dbec"/>
      <stop offset=".46" stop-color="#7ab3d4"/>
      <stop offset=".88" stop-color="#4c72ae"/>
      <stop offset=".91" stop-color="#496dab"/>
    </linearGradient>
    <linearGradient id="linear-gradient-2" x1="14.94" y1="27.45" x2="14.94" y2="0" xlink:href="#linear-gradient"/>
    <linearGradient id="linear-gradient-3" x1="68.65" y1="46.69" x2="68.65" y2="10.18" xlink:href="#linear-gradient"/>
    <linearGradient id="linear-gradient-4" x1="41.25" y1="46.68" x2="41.25" y2="10.18" xlink:href="#linear-gradient"/>
    <linearGradient id="linear-gradient-5" x1="107.98" y1="46.64" x2="107.98" y2="10.14" xlink:href="#linear-gradient"/>
    <linearGradient id="linear-gradient-6" x1="144.39" y1="46.64" x2="144.39" y2="10.14" xlink:href="#linear-gradient"/>
    <linearGradient id="linear-gradient-7" x1="182.42" y1="46.64" x2="182.42" y2="10.14" xlink:href="#linear-gradient"/>
    <linearGradient id="linear-gradient-8" x1="225.04" y1="46.64" x2="225.04" y2="10.14" xlink:href="#linear-gradient"/>
    <linearGradient id="linear-gradient-9" x1="263.89" y1="46.64" x2="263.89" y2="10.14" xlink:href="#linear-gradient"/>
    <linearGradient id="linear-gradient-10" x1="195.83" y1="77.94" x2="195.83" y2="56.14" xlink:href="#linear-gradient"/>
    <linearGradient id="linear-gradient-11" x1="219.74" y1="78.32" x2="219.74" y2="55.77" xlink:href="#linear-gradient"/>
    <linearGradient id="linear-gradient-12" x1="246.03" y1="78.32" x2="246.03" y2="55.77" xlink:href="#linear-gradient"/>
    <linearGradient id="linear-gradient-13" x1="269.75" y1="77.94" x2="269.75" y2="56.14" xlink:href="#linear-gradient"/>
  </defs>
  <path class="cls-13" d="M29.89,21.68v9.26c0,1.53-.82,2.95-2.15,3.71l-18.26,10.46v10.77L0,50.6v-11.65l29.88-17.27Z"/>
  <path class="cls-2" d="M29.89,1.99v8.22L0,27.45v-11.67L26.91.27c1.32-.76,2.98.19,2.98,1.72Z"/>
  <path class="cls-6" d="M84.23,10.75v35.36c0,.32-.26.58-.58.58h-7.72c-.31,0-.6-.16-.76-.43l-14.05-22.78v22.63c0,.32-.26.58-.58.58h-6.9c-.32,0-.58-.26-.58-.58V10.75c0-.32.26-.58.58-.58h8.04c.27,0,.52.14.66.37l13.82,22.5V10.75c0-.32.26-.58.58-.58h6.9c.32,0,.58.26.58.58Z"/>
  <path class="cls-5" d="M37.8,10.18h6.9c.32,0,.57.26.57.57v35.36c0,.32-.26.58-.58.58h-6.9c-.32,0-.58-.26-.58-.58V10.75c0-.32.26-.58.58-.58Z"/>
  <g>
    <path class="cls-7" d="M92.65,17.02h11.1v29.04c0,.32.26.58.58.58h7.29c.32,0,.58-.26.58-.58v-29.04h11.1c.32,0,.58-.26.58-.58v-5.73c0-.32-.26-.58-.58-.58h-30.66c-.32,0-.58.26-.58.58v5.73c0,.32.26.58.58.58Z"/>
    <path class="cls-12" d="M152.67,34.9c2.36-1.04,4.19-2.55,5.48-4.51,1.29-1.96,1.93-4.3,1.93-7.01s-.64-5.11-1.93-7.09c-1.29-1.98-3.11-3.5-5.48-4.56-2.36-1.06-5.18-1.59-8.45-1.59h-15.22c-.32,0-.58.26-.58.58v35.35c0,.32.26.58.58.58h7.29c.32,0,.58-.26.58-.58v-9.59h7.35c.13,0,.26,0,.39,0l6.84,9.93c.11.16.29.25.47.25h8.01c.34,0,.54-.38.35-.66l-7.69-11.04s.05-.02.07-.03ZM149.59,18.69c1.29,1.11,1.93,2.68,1.93,4.69s-.64,3.54-1.93,4.67c-1.29,1.13-3.23,1.69-5.84,1.69h-6.88v-12.72h6.88c2.61,0,4.55.56,5.84,1.67Z"/>
    <path class="cls-9" d="M178.07,10.48l-15.85,35.56c-.12.28.08.59.39.59h7.72c.17,0,.32-.1.39-.26l3.14-7.56h16.92l3.13,7.56c.07.16.22.26.39.26h7.93c.31,0,.51-.32.39-.6l-15.9-35.56c-.09-.21-.3-.34-.53-.34h-7.6c-.23,0-.43.13-.53.34ZM176.53,32.4l5.81-13.97,5.79,13.97h-11.6Z"/>
    <path class="cls-8" d="M233.75,12.4c-3.02-1.51-6.52-2.27-10.48-2.27h-16.01c-.32,0-.58.26-.58.58v35.35c0,.32.26.58.58.58h16.01c3.96,0,7.46-.76,10.48-2.27,3.02-1.51,5.39-3.63,7.09-6.36,1.7-2.73,2.56-5.94,2.56-9.62s-.85-6.94-2.56-9.65c-1.7-2.71-4.07-4.82-7.09-6.34ZM233.36,34.38c-.99,1.7-2.38,3.02-4.17,3.94-1.79.92-3.9,1.38-6.34,1.38h-7.72v-22.63h7.72c2.43,0,4.54.46,6.34,1.38,1.79.92,3.18,2.23,4.17,3.91.99,1.69,1.49,3.69,1.49,6.02s-.5,4.29-1.49,6Z"/>
    <path class="cls-10" d="M258.15,39.86v-8.45h16.37c.32,0,.58-.26.58-.58v-5.42c0-.32-.26-.58-.58-.58h-16.37v-7.93h18.61c.32,0,.58-.26.58-.58v-5.63c0-.32-.26-.58-.58-.58h-26.43c-.32,0-.58.26-.58.58v35.35c0,.32.26.58.58.58h27.11c.32,0,.58-.26.58-.58v-5.63c0-.32-.26-.58-.58-.58h-19.29Z"/>
  </g>
  <g>
    <path class="cls-3" d="M200.86,57.09c-1.41-.63-3.09-.95-5.05-.95h-8.86c-.32,0-.58.26-.58.58v20.65c0,.32.26.58.58.58h3.89c.32,0,.58-.26.58-.58v-4.86c0-.32.26-.58.58-.58h3.82c1.95,0,3.63-.32,5.05-.95,1.41-.63,2.5-1.54,3.27-2.73.77-1.18,1.15-2.59,1.15-4.21s-.38-3.05-1.15-4.24c-.77-1.18-1.86-2.09-3.27-2.73ZM199.02,66.82c-.77.66-1.93,1-3.49,1h-3.54c-.32,0-.58-.26-.58-.58v-6.42c0-.32.26-.58.58-.58h3.54c1.56,0,2.72.33,3.49,1,.77.66,1.15,1.6,1.15,2.8s-.38,2.11-1.15,2.77Z"/>
    <path class="cls-11" d="M228.26,58.97c-1.07-1.02-2.33-1.81-3.77-2.37-1.44-.56-3.03-.84-4.75-.84s-3.28.28-4.74.84c-1.45.56-2.72,1.35-3.8,2.37-1.08,1.02-1.92,2.21-2.51,3.58-.59,1.37-.89,2.87-.89,4.49s.3,3.12.89,4.49c.59,1.37,1.42,2.56,2.49,3.58,1.07,1.02,2.34,1.81,3.8,2.37,1.46.56,3.06.84,4.78.84s3.28-.28,4.72-.84c1.44-.56,2.7-1.34,3.77-2.35,1.07-1.01,1.91-2.2,2.51-3.58.6-1.38.9-2.88.9-4.5s-.3-3.14-.9-4.5c-.6-1.36-1.44-2.55-2.51-3.57ZM226.04,69.88c-.34.85-.83,1.59-1.45,2.21-.62.62-1.34,1.1-2.17,1.43-.82.33-1.72.5-2.69.5s-1.88-.17-2.71-.5c-.83-.33-1.55-.81-2.16-1.43-.61-.62-1.09-1.37-1.43-2.23-.34-.86-.51-1.8-.51-2.82s.17-1.98.51-2.83c.34-.85.83-1.59,1.45-2.21.62-.62,1.34-1.1,2.16-1.43.82-.33,1.72-.5,2.69-.5s1.88.17,2.71.5c.83.33,1.55.81,2.17,1.43.61.62,1.09,1.36,1.43,2.21.34.85.51,1.8.51,2.83s-.17,1.98-.51,2.83Z"/>
    <path class="cls-4" d="M254.55,58.97c-1.07-1.02-2.33-1.81-3.77-2.37-1.44-.56-3.03-.84-4.75-.84s-3.28.28-4.74.84c-1.45.56-2.72,1.35-3.8,2.37-1.08,1.02-1.92,2.21-2.51,3.58-.59,1.37-.89,2.87-.89,4.49s.3,3.12.89,4.49c.59,1.37,1.42,2.56,2.49,3.58,1.07,1.02,2.34,1.81,3.8,2.37,1.46.56,3.06.84,4.78.84s3.28-.28,4.72-.84c1.44-.56,2.7-1.34,3.77-2.35,1.07-1.01,1.91-2.2,2.51-3.58.6-1.38.9-2.88.9-4.5s-.3-3.14-.9-4.5c-.6-1.36-1.44-2.55-2.51-3.57ZM252.34,69.88c-.34.85-.83,1.59-1.45,2.21-.62.62-1.34,1.1-2.17,1.43-.82.33-1.72.5-2.69.5s-1.88-.17-2.71-.5c-.83-.33-1.55-.81-2.16-1.43-.61-.62-1.09-1.37-1.43-2.23-.34-.86-.51-1.8-.51-2.82s.17-1.98.51-2.83c.34-.85.83-1.59,1.45-2.21.62-.62,1.34-1.1,2.16-1.43.82-.33,1.72-.5,2.69-.5s1.88.17,2.71.5c.83.33,1.55.81,2.17,1.43.61.62,1.09,1.36,1.43,2.21.34.85.51,1.8.51,2.83s-.17,1.98-.51,2.83Z"/>
    <path class="cls-1" d="M266.81,73.83v-17.12c0-.32-.26-.58-.58-.58h-3.89c-.32,0-.58.26-.58.58v20.65c0,.32.26.58.58.58h14.83c.32,0,.58-.26.58-.58v-2.96c0-.32-.26-.58-.58-.58h-10.36Z"/>
  </g>
</svg>