<svg width="951" height="251" viewBox="0 0 951 251" fill="none" xmlns="http://www.w3.org/2000/svg">
<path d="M243.788 245.249H160.712L146.072 202.69H138.241L124.281 244.568L40.8652 244.228L17.3724 127.445L22.1391 121.657L35.4176 128.807L38.4819 151.618C29.97 154.002 30.6614 164.526 35.0771 181.921C39.0311 207.166 42.2271 219.713 55.1651 224.14C64.0175 225.161 74.9127 220.735 81.3817 205.413C87.449 193.156 90.9195 183.471 92.6173 167.28H107.258C108.073 168.959 108.677 169.457 109.982 169.664H172.629C173.805 169.075 174.331 168.642 174.672 166.94H191.015C195.781 196.561 201.229 197.242 212.124 216.99C221.657 226.182 237.66 229.247 251.279 205.413L243.788 245.249Z" fill="#1164AC"/>
<path d="M36.0142 127.699L36.5783 128.003L39.8742 152.534L38.8212 152.83C36.951 153.354 35.6632 154.293 34.7843 155.611C33.8857 156.958 33.3478 158.8 33.1867 161.224C32.8826 165.801 33.9402 172.066 35.8938 180.002L36.2958 181.611L36.3106 181.668L36.3196 181.726C38.3006 194.375 40.0702 203.667 42.9096 210.345C45.6899 216.885 49.4528 220.817 55.4445 222.904C63.6599 223.795 73.9805 219.708 80.2226 204.924L80.2373 204.889L80.2545 204.856C86.2685 192.707 89.6867 183.165 91.3662 167.149L91.4849 166.022H108.045L108.389 166.731C108.778 167.531 109.043 167.885 109.26 168.073C109.426 168.216 109.635 168.325 110.092 168.406H172.319C172.702 168.2 172.872 168.069 172.988 167.925C173.123 167.76 173.286 167.457 173.439 166.693L173.641 165.682H192.086L192.256 166.74C194.628 181.474 197.151 188.905 200.385 195.084C202.014 198.196 203.833 201.009 205.958 204.325C208.053 207.594 210.423 211.319 213.127 216.207C217.695 220.556 223.65 223.319 229.977 222.343C236.352 221.359 243.483 216.521 250.186 204.79L252.515 205.646L244.831 246.507H159.815L145.175 203.948H139.147L125.187 245.83L39.8341 245.481L16.0213 127.107L21.8253 120.059L36.0142 127.699ZM18.7227 127.782L41.8951 242.974L123.376 243.306L137.334 201.432H146.97L161.61 243.992H242.745L248.842 211.563C242.893 219.868 236.537 223.876 230.361 224.829C222.959 225.971 216.2 222.667 211.251 217.895L211.114 217.763L211.023 217.597C208.32 212.698 205.955 208.981 203.841 205.682C201.731 202.391 199.847 199.48 198.157 196.251C194.834 189.902 192.294 182.395 189.947 168.197H175.641C175.473 168.694 175.251 169.13 174.94 169.513C174.437 170.13 173.798 170.484 173.191 170.788L172.926 170.921H109.883L109.784 170.906C108.998 170.781 108.269 170.542 107.613 169.975C107.172 169.593 106.819 169.106 106.497 168.538H93.7449C91.9882 184.217 88.4944 193.872 82.5268 205.933C75.8633 221.686 64.4825 226.481 55.0211 225.389L54.886 225.374L54.7583 225.329C47.8866 222.979 43.6157 218.435 40.5948 211.33C37.6175 204.327 35.8121 194.74 33.8426 182.171C31.645 173.505 30.3239 166.369 30.677 161.057C30.855 158.377 31.4637 156.055 32.6913 154.215C33.7493 152.629 35.2187 151.476 37.0959 150.755L34.2561 129.609L22.4525 123.253L18.7227 127.782Z" fill="white"/>
<path d="M231.191 44.998L211.443 142.033L226.424 158.376C226.859 154.764 227.667 152.988 230.85 150.545C231.363 146.995 232.364 144.254 235.957 141.195C229.357 133.473 226.487 129.6 225.875 119.221C224.869 105.291 225.374 100.615 240.043 89.3919C250.497 84.225 257.871 86.6072 274.09 91.9073L282.943 44.998H231.191Z" fill="#1165AC"/>
<path d="M282.943 43.7402C283.317 43.7402 283.672 43.9073 283.911 44.1955C284.15 44.4837 284.248 44.8635 284.178 45.2313L275.327 92.1403C275.259 92.4959 275.042 92.8052 274.73 92.9895C274.419 93.1737 274.043 93.2148 273.7 93.1025C265.546 90.4381 259.782 88.5675 254.756 87.9732C249.86 87.3943 245.673 88.0328 240.71 90.465C233.463 96.0194 229.928 99.8104 228.238 103.783C226.647 107.526 226.621 111.584 227.04 117.848L227.13 119.131L227.13 119.147C227.43 124.222 228.274 127.606 229.795 130.641C231.335 133.715 233.602 136.504 236.913 140.377C237.13 140.631 237.238 140.962 237.211 141.295C237.185 141.627 237.026 141.936 236.772 142.153C235.078 143.596 234.045 144.919 233.371 146.253C232.693 147.594 232.342 149.018 232.095 150.725C232.048 151.05 231.876 151.343 231.616 151.543C230.096 152.709 229.248 153.637 228.711 154.624C228.17 155.616 227.883 156.776 227.672 158.526C227.614 159.014 227.276 159.423 226.809 159.574C226.341 159.724 225.829 159.588 225.497 159.226L210.516 142.883C210.244 142.586 210.13 142.177 210.211 141.783L229.958 44.7474C230.077 44.1616 230.592 43.7404 231.19 43.7402H282.943ZM212.803 141.656L225.634 155.655C225.842 154.862 226.118 154.125 226.502 153.42C227.209 152.122 228.235 151.024 229.683 149.865C229.95 148.21 230.353 146.648 231.126 145.119C231.83 143.725 232.816 142.406 234.208 141.078C231.312 137.666 229.104 134.877 227.546 131.768C225.831 128.346 224.934 124.608 224.621 119.312C224.121 112.386 223.953 107.433 225.923 102.799C227.895 98.1638 231.923 94.0216 239.279 88.3933L239.379 88.3237C239.413 88.3022 239.449 88.282 239.486 88.2639C244.928 85.5741 249.63 84.8346 255.052 85.4758C260.078 86.07 265.729 87.856 273.12 90.2676L281.425 46.2557H232.219L212.803 141.656Z" fill="white"/>
<path d="M175.012 188.677C176.17 188.677 177.109 189.615 177.109 190.773V201.669H172.916V192.869H111.737V201.669H107.545V190.773C107.545 189.615 108.483 188.677 109.641 188.677H175.012Z" fill="white"/>
<path d="M169.224 126.764C199.69 133.454 211.375 139.988 226.083 161.833C219.955 170.004 223.263 170.26 226.764 178.175L215.869 187.368C207.986 196.788 207.367 202.36 210.422 214.606C198.571 197.182 194.567 187.124 191.015 166.599H175.012L172.288 170.345L109.641 169.664C108.666 169.418 108.143 168.983 107.258 167.28H92.6173C90.3783 192.249 82.4724 202.717 73.2103 216.309C76.2679 201.961 69.9987 196.309 58.9103 185.325C62.9735 184.086 65.7198 181.58 66.0603 177.154C72.3228 169.674 72.9032 166.545 71.5079 161.833C69.9293 157.4 68.4436 155.023 64.3579 152.299C81.9147 134.506 93.2983 130.169 115.089 126.423C113.386 143.447 124.622 146.852 141.646 147.873C160.256 147.403 170.984 141.588 169.224 126.764Z" fill="#003161"/>
<path d="M116.34 126.549C115.928 130.671 116.311 133.861 117.295 136.35C118.272 138.819 119.872 140.675 122.036 142.098C126.44 144.995 133.17 146.101 141.67 146.613C150.877 146.375 157.882 144.813 162.35 141.673C164.563 140.117 166.155 138.174 167.106 135.785C168.06 133.386 168.396 130.462 167.975 126.912L167.767 125.156L169.494 125.536C184.755 128.887 195.462 132.227 204.215 137.54C212.997 142.87 219.717 150.125 227.127 161.13L227.626 161.872L227.09 162.587C224.04 166.654 223.682 168.336 224.035 169.806C224.238 170.648 224.696 171.529 225.417 172.818C226.118 174.072 227.011 175.625 227.914 177.666L228.296 178.529L216.767 188.256C212.931 192.853 210.978 196.383 210.281 200.156C209.574 203.978 210.123 208.212 211.642 214.302L209.381 215.313C203.431 206.564 199.413 199.611 196.44 192.236C193.568 185.113 191.691 177.645 189.959 167.857H175.653L172.924 171.609L109.479 170.92L109.334 170.883C108.699 170.723 108.104 170.469 107.54 169.921C107.166 169.559 106.839 169.098 106.513 168.538H93.7627C92.5818 180.551 90.0649 189.235 86.6904 196.586C83.2222 204.14 78.8586 210.253 74.2497 217.017L71.9799 216.046C73.4564 209.118 72.6648 204.44 70.2685 200.171C67.805 195.784 63.6276 191.769 58.0252 186.219L56.5292 184.737L58.5435 184.122C60.4318 183.546 61.9156 182.705 62.9587 181.58C63.9863 180.471 64.6556 179.012 64.806 177.057L64.8371 176.656L65.0959 176.346C68.2081 172.629 69.7852 170.13 70.4601 168.065C71.1039 166.094 70.9582 164.418 70.3111 162.221C69.5416 160.065 68.8255 158.503 67.8546 157.163C66.8862 155.828 65.6168 154.65 63.6604 153.346L62.3921 152.501L63.4623 151.416C72.3006 142.458 79.6498 136.822 87.5854 132.962C95.5121 129.106 103.947 127.062 114.876 125.184L116.504 124.904L116.34 126.549ZM113.71 127.942C103.635 129.733 95.9117 131.71 88.6859 135.224C81.399 138.769 74.547 143.912 66.3004 152.131C67.7977 153.252 68.9468 154.385 69.891 155.687C70.9261 157.115 71.6791 158.696 72.3901 160.583L72.6931 161.411L72.7045 161.443L72.7136 161.475C73.4538 163.976 73.711 166.214 72.8511 168.846C72.0414 171.324 70.2719 174.046 67.2748 177.658C67.0238 179.943 66.1696 181.816 64.8035 183.29C63.8096 184.363 62.5784 185.186 61.1908 185.812C66.0434 190.611 70.0134 194.58 72.4614 198.94C73.9892 201.661 74.9175 204.516 75.1693 207.791C80.0607 194.062 81.163 183.706 80.8053 166.626L83.32 166.573C83.6652 183.058 82.6545 193.496 78.2563 206.558C80.5121 203.05 82.5849 199.499 84.4042 195.536C87.7516 188.244 90.256 179.527 91.3643 167.168L91.4675 166.022H108.021L108.373 166.7C108.803 167.525 109.079 167.91 109.291 168.115C109.432 168.252 109.568 168.332 109.825 168.408L171.653 169.079L174.372 165.341H192.074L192.254 166.385C194.023 176.605 195.893 184.153 198.773 191.295C200.125 194.649 201.707 197.924 203.614 201.354C201.061 191.678 201.78 182.772 202.014 169.641L204.529 169.686C204.254 185.077 203.372 194.194 207.517 205.356C207.391 203.364 207.473 201.506 207.807 199.698C208.622 195.291 210.902 191.345 214.905 186.561L214.975 186.477L225.222 177.83C224.511 176.327 223.824 175.124 223.222 174.045C222.529 172.805 221.886 171.628 221.59 170.394C220.984 167.876 221.878 165.488 224.543 161.803C217.446 151.382 211.075 144.646 202.91 139.69C194.838 134.791 184.924 131.578 170.626 128.366C170.804 131.503 170.411 134.283 169.443 136.715C168.296 139.6 166.372 141.92 163.797 143.73C158.697 147.315 151.052 148.894 141.677 149.131L141.624 149.132L141.571 149.129C133.071 148.619 125.689 147.512 120.653 144.2C118.094 142.517 116.14 140.265 114.957 137.276C113.932 134.686 113.51 131.601 113.71 127.942Z" fill="white"/>
<path d="M67.4193 220.735C54.484 226.182 45.9667 222.096 40.1813 206.094C34.3959 190.092 33.7152 175.452 32.3504 165.578C31.8233 156.629 34.3962 152.98 39.5004 151.959C46.7438 150.437 51.2325 150.315 59.9288 151.278C64.355 151.959 66.0401 157.411 63.6741 161.151C64.8312 166.681 65.4108 170.002 61.9717 172.728C67.4222 175.792 63.6741 184.985 58.5669 184.985C63.1674 190.186 65.6589 193.938 69.8026 199.625C75.5999 207.861 75.2502 216.308 67.4193 220.735Z" fill="#A0CAEF"/>
<path d="M39.4182 151.547C46.2552 150.111 50.6679 149.915 58.385 150.692L59.9752 150.861L59.9834 150.862L59.9924 150.864C62.3821 151.231 64.0217 152.891 64.7433 154.928C65.4451 156.908 65.2915 159.272 64.1177 161.229C64.6765 163.905 65.1072 166.128 64.9644 168.022C64.8283 169.828 64.172 171.334 62.6782 172.677C65.1885 174.423 65.5007 177.516 64.6262 180.138C63.799 182.619 61.8426 184.883 59.4209 185.325C63.1423 189.594 65.497 192.946 68.6599 197.333L70.1411 199.378L70.1452 199.384C73.0807 203.555 74.4923 207.823 74.1387 211.647C73.7833 215.491 71.6494 218.825 67.6257 221.1L67.6044 221.111L67.5823 221.121C61.056 223.87 55.5498 224.252 50.9246 221.829C46.3166 219.416 42.6923 214.274 39.7867 206.237C33.9816 190.18 33.2939 175.467 31.9348 165.635L31.9332 165.619L31.9315 165.602C31.6662 161.097 32.1746 157.852 33.448 155.59C34.7364 153.302 36.7753 152.076 39.4182 151.547ZM59.8745 151.693C51.2184 150.736 46.7758 150.859 39.5869 152.369L39.5828 152.369C37.1216 152.862 35.3216 153.972 34.1793 156.001C33.0233 158.054 32.5085 161.103 32.7684 165.54C34.1371 175.455 34.8134 190.015 40.5752 205.952C43.455 213.917 46.9828 218.819 51.3135 221.087C55.6218 223.343 60.8343 223.047 67.2326 220.357C71.0265 218.206 72.9771 215.109 73.3043 211.57C73.6338 208.007 72.3228 203.936 69.464 199.872L67.9778 197.821C64.692 193.264 62.31 189.864 58.3695 185.395L50.7182 185.063L50.7542 184.226L58.5775 184.565C60.87 184.558 62.9659 182.465 63.8303 179.873C64.6818 177.319 64.2557 174.536 61.8266 173.129C58.4369 172.579 56.0108 172.36 53.6497 172.469C51.27 172.578 48.9371 173.022 45.7298 173.816L45.5284 173.002C48.7535 172.203 51.1492 171.745 53.6112 171.632C56.0284 171.521 58.4912 171.743 61.8496 172.284C63.3738 171.026 64.0005 169.656 64.1284 167.959C64.2583 166.235 63.8753 164.179 63.3276 161.548C55.0448 160.972 50.516 161.088 42.9687 162.247L42.9048 161.833L42.8418 161.418C50.478 160.245 55.0735 160.131 63.4438 160.715C64.4385 158.999 64.566 156.937 63.9532 155.208C63.3182 153.416 61.906 152.009 59.8745 151.693Z" fill="white"/>
<path d="M191.015 132.892V155.364C192.494 155.6 192.816 155.953 193.398 156.726V165.237C193.263 166.193 192.875 166.469 191.696 166.599L173.991 166.259V157.406C174.362 155.762 175.039 155.321 177.055 155.364L177.396 128.807L191.015 132.892Z" fill="#003666"/>
<path d="M192.272 131.957V154.357C192.618 154.464 192.931 154.6 193.216 154.781C193.77 155.132 194.116 155.589 194.403 155.969L194.656 156.305V165.325L194.644 165.413C194.558 166.02 194.352 166.718 193.714 167.218C193.151 167.659 192.44 167.783 191.834 167.85L191.753 167.858L191.671 167.857L172.733 167.493V157.266L172.764 157.13C172.973 156.206 173.333 155.286 174.21 154.704C174.686 154.388 175.233 154.23 175.812 154.157L176.159 127.122L192.272 131.957ZM177.029 156.621C176.048 156.6 175.722 156.72 175.601 156.8C175.546 156.837 175.401 156.95 175.249 157.56V165.024L191.624 165.339C191.848 165.312 191.994 165.285 192.09 165.257C192.101 165.254 192.109 165.25 192.118 165.248C192.125 165.219 192.132 165.179 192.14 165.126V157.162C192.02 157.019 191.949 156.956 191.869 156.906C191.75 156.83 191.514 156.724 190.905 156.621H177.029ZM178.329 154.106H189.757V133.828L178.631 130.49L178.329 154.106Z" fill="white"/>
<path d="M93.2983 132.892V155.364C91.8191 155.6 91.4966 155.953 90.915 156.726V165.237C91.0498 166.193 91.4381 166.469 92.6173 166.599L110.322 166.259V157.406C109.951 155.762 109.274 155.321 107.258 155.364L106.917 128.807L93.2983 132.892Z" fill="#003666"/>
<path d="M92.0406 131.957V154.357C91.6944 154.464 91.3823 154.6 91.0965 154.781C90.5431 155.132 90.1965 155.589 89.91 155.969L89.6569 156.305V165.325L89.6692 165.413C89.7548 166.02 89.9609 166.718 90.5986 167.218C91.1618 167.659 91.8732 167.783 92.4787 167.85L92.5597 167.858L92.6416 167.857L111.58 167.493V157.266L111.549 157.13C111.34 156.206 110.979 155.286 110.103 154.704C109.626 154.388 109.08 154.23 108.501 154.157L108.154 127.122L92.0406 131.957ZM107.284 156.621C108.265 156.6 108.591 156.72 108.711 156.8C108.767 156.837 108.912 156.95 109.064 157.56V165.024L92.6891 165.339C92.4651 165.312 92.3187 165.285 92.2224 165.257C92.2122 165.254 92.2036 165.25 92.1953 165.248C92.1878 165.219 92.1813 165.179 92.1724 165.126V157.162C92.2928 157.019 92.3641 156.956 92.4435 156.906C92.5631 156.83 92.7991 156.724 93.408 156.621H107.284ZM105.984 154.106H94.5561V133.828L105.682 130.49L105.984 154.106Z" fill="white"/>
<path d="M189.312 154.002H178.417V129.488L189.312 132.552V154.002Z" fill="#1166AE"/>
<path d="M189.732 132.234V154.421H177.998V128.934L189.732 132.234ZM178.836 153.583H188.893V132.869L178.836 130.041V153.583Z" fill="white"/>
<path d="M95.0007 154.002H105.896V129.488L95.0007 132.552V154.002Z" fill="#1166AE"/>
<path d="M94.5811 132.234V154.421H106.315V128.934L94.5811 132.234ZM105.477 153.583H95.4196V132.869L105.477 130.041V153.583Z" fill="white"/>
<path d="M73.8912 141.745L64.0175 151.959C54.0893 149.171 48.4277 148.862 38.1414 151.959L35.7581 127.445L21.1176 121.657C20.0967 114.487 19.2896 112.532 13.2867 110.761L1.71058 46.0713H54.8247L67.8446 112.123C60.9532 115.869 61.9746 125.402 71.1674 127.445L73.8912 141.745Z" fill="#1164AC"/>
<path d="M55.8589 44.8135L69.2576 112.787L68.4453 113.229C65.4454 114.859 64.2685 117.662 64.7131 120.206C65.1414 122.656 67.1313 125.129 71.0542 126.125L71.4407 126.217L72.248 126.396L75.2491 142.15L64.4003 153.373L63.6772 153.17C58.7557 151.788 54.9815 151.047 51.2014 151.01C47.4282 150.973 43.5734 151.637 38.5036 153.163L37.0379 153.605L34.5797 128.331L19.9757 122.558L19.8725 121.834C19.3538 118.191 18.9182 116.212 18.0268 114.886C17.2004 113.656 15.859 112.831 12.9312 111.968L12.1852 111.748L0.208008 44.8135H55.8589ZM14.3895 109.786C17.0555 110.643 18.892 111.665 20.114 113.482C21.2935 115.237 21.7876 117.595 22.2553 120.754L36.9355 126.558L39.2455 150.329C43.7828 149.053 47.5075 148.458 51.2259 148.494C55.1299 148.533 58.9581 149.266 63.6314 150.547L72.533 141.339L70.0814 128.467C65.5561 127.198 62.8436 124.119 62.2353 120.639C61.6398 117.233 63.1129 113.684 66.4392 111.501L53.7905 47.329H3.21316L14.3895 109.786Z" fill="white"/>
<path d="M14.4657 110.421C19.1667 110.421 22.9775 114.232 22.9775 118.933C22.9775 119.501 22.9206 120.055 22.8146 120.592L23.1659 119.834L37.1255 126.304L37.7666 126.601L37.8461 127.304L40.5703 151.478L39.32 151.619L38.0704 151.759L35.4247 128.288L22.32 122.216C21.0349 125.286 18.0029 127.445 14.4657 127.445C9.76478 127.445 5.95394 123.634 5.95382 118.933C5.95382 114.232 9.76471 110.421 14.4657 110.421Z" fill="#3E80FF"/>
<path d="M40.8652 87.9504C45.5661 87.9504 49.377 91.7613 49.377 96.4623C49.377 100.248 46.9051 103.454 43.4879 104.56L50.2802 149.388L47.7926 149.765L41.0052 104.97C40.9586 104.971 40.9119 104.974 40.8652 104.974C36.1642 104.974 32.3534 101.163 32.3533 96.4623C32.3533 91.7613 36.1642 87.9505 40.8652 87.9504Z" fill="#3E80FF"/>
<path d="M71.5076 110.421C76.2086 110.421 80.0195 114.232 80.0195 118.933C80.0193 123.634 76.2085 127.445 71.5076 127.445C69.5241 127.445 67.7003 126.764 66.2531 125.627L56.4466 136.241L57.1025 149.855L55.8464 149.915L54.5895 149.976L53.9091 135.835L53.8837 135.308L54.2415 134.921L64.4557 123.867L64.8447 124.227C63.6884 122.773 62.9958 120.934 62.9957 118.933C62.9957 114.232 66.8067 110.421 71.5076 110.421Z" fill="#3E80FF"/>
<path d="M167.939 124.04C147.709 136.158 136.58 136.781 117.053 124.04C112.705 137.267 120.877 142.766 125.592 144.638C132.023 147.191 140.278 149.015 151.547 147.191C162.135 144.638 171.948 137.267 167.939 124.04Z" fill="#9EC9EF"/>
<path d="M117.282 123.689C127.018 130.041 134.598 133.02 142.228 132.943C149.865 132.866 157.625 129.729 167.724 123.68L168.185 123.405L168.34 123.918C170.384 130.663 168.907 135.963 165.535 139.891C162.182 143.796 156.989 146.31 151.646 147.599L151.63 147.602L151.614 147.605C140.26 149.442 131.929 147.605 125.437 145.028C123.036 144.074 119.725 142.187 117.571 138.823C115.404 135.439 114.448 130.623 116.655 123.909L116.825 123.391L117.282 123.689ZM167.687 124.677C157.777 130.567 149.982 133.704 142.236 133.782C134.487 133.86 126.861 130.875 117.287 124.69C115.363 130.926 116.32 135.314 118.277 138.371C120.301 141.531 123.433 143.33 125.746 144.248C132.114 146.776 140.286 148.584 151.459 146.78C156.699 145.515 161.702 143.068 164.899 139.345C167.992 135.741 169.424 130.909 167.687 124.677Z" fill="white"/>
<path d="M155.953 130.509C171.955 124.721 183.524 110.421 179.779 82.1615C176.034 88.2901 173.65 99.1853 168.21 97.4829C164.117 95.4401 161.316 92.3056 155.953 89.9925C152.044 88.2297 150.532 88.2767 148.802 89.9925C146.426 94.3209 144.846 94.7532 141.653 94.7591C137.463 93.1203 136.044 92.6024 134.844 89.9925H129.396C123.009 91.3249 120.154 95.6741 115.096 99.8662L105.216 86.2472C102.491 99.8662 105.339 108.7 111.692 118.592C122.92 132.211 138.929 136.667 155.953 130.509Z" fill="#003160"/>
<path d="M140.745 73.5541L135.742 89.9211C136.246 90.9294 136.778 91.5193 137.581 92.0345C138.499 92.624 139.763 93.1192 141.806 93.9178C143.298 93.9075 144.253 93.784 145.105 93.2767C145.999 92.7442 146.899 91.7166 148.068 89.5886L148.133 89.4879C148.157 89.4559 148.183 89.4253 148.212 89.397C149.176 88.4407 150.185 87.8568 151.556 87.8494C152.833 87.8425 154.331 88.3424 156.285 89.2226C159.046 90.4139 161.144 91.8158 163.041 93.1538C164.93 94.4868 166.573 95.7192 168.519 96.6994C169.528 96.996 170.389 96.7457 171.247 96.0263C172.165 95.2565 173.029 93.9825 173.89 92.3653C174.745 90.7583 175.549 88.9097 176.391 87.0363C177.225 85.1822 178.096 83.3072 179.063 81.7245L179.141 81.618C179.338 81.3866 179.648 81.2769 179.952 81.3412C180.3 81.4147 180.563 81.6991 180.61 82.0512C182.499 96.3079 180.539 107.143 176.001 115.174C171.461 123.211 164.391 128.348 156.239 131.297C138.883 137.575 122.5 133.02 111.044 119.126C111.023 119.1 111.004 119.073 110.986 119.046C107.78 114.053 105.426 109.279 104.232 104.003C103.036 98.7208 103.013 92.9865 104.394 86.0832L104.427 85.9636C104.523 85.6948 104.752 85.4903 105.037 85.4281C105.362 85.357 105.699 85.4852 105.895 85.7548L115.243 98.6409C116.215 97.802 117.113 96.9609 117.991 96.1328C119.064 95.12 120.115 94.1208 121.212 93.2112C123.424 91.3769 125.857 89.8744 129.225 89.1718L129.31 89.1587C129.339 89.1558 129.368 89.1538 129.396 89.1538H134.223L139.141 73.0644L140.745 73.5541ZM179.253 84.877C178.803 85.783 178.362 86.7431 177.921 87.7241C177.093 89.564 176.259 91.4829 175.37 93.153C174.487 94.8126 173.5 96.3263 172.325 97.3119C171.105 98.3342 169.645 98.8106 167.96 98.2831C167.917 98.2698 167.876 98.253 167.836 98.2331C165.717 97.1758 163.929 95.832 162.075 94.5238C160.207 93.2057 158.222 91.8837 155.621 90.762C155.617 90.7602 155.612 90.759 155.608 90.7571C153.659 89.8783 152.45 89.5216 151.565 89.5264C150.797 89.5306 150.201 89.81 149.471 90.5139C148.289 92.6446 147.228 93.9636 145.963 94.717C144.662 95.492 143.266 95.5943 141.655 95.5973C141.55 95.5975 141.446 95.5782 141.348 95.54C139.29 94.7353 137.79 94.1623 136.674 93.4454C135.632 92.7758 134.923 91.9854 134.321 90.8308H129.491C126.511 91.4672 124.341 92.7955 122.282 94.5025C121.235 95.3707 120.225 96.3288 119.141 97.3521C118.063 98.3695 116.919 99.4447 115.632 100.512C115.453 100.66 115.221 100.727 114.991 100.698C114.761 100.669 114.553 100.546 114.417 100.359L105.687 88.3251C104.712 94.1842 104.843 99.1035 105.868 103.632C107.001 108.636 109.238 113.214 112.371 118.098C123.37 131.411 138.991 135.753 155.668 129.721C163.517 126.882 170.233 121.974 174.541 114.35C178.58 107.199 180.548 97.5795 179.253 84.877Z" fill="white"/>
<path d="M153.903 5.55931C175.536 13.9034 183.271 22.7323 187.269 48.1185C156 37.8901 136.196 39.2306 98.4054 47.0949C100.108 27.3451 110.663 11.0046 131.091 4.87748C134.836 0.447773 152.2 0.788886 153.903 5.55931Z" fill="#2A80C8"/>
<path d="M135.706 1.22049C138.012 0.674547 140.698 0.444424 143.295 0.510557C145.887 0.576572 148.464 0.939476 150.54 1.62254C151.578 1.96399 152.535 2.39996 153.314 2.95234C153.923 3.38394 154.465 3.91775 154.829 4.56955C165.466 8.71501 172.914 13.0769 178.181 19.6624C183.522 26.3397 186.5 35.1514 188.512 47.9231C188.58 48.3555 188.418 48.7922 188.085 49.076C187.752 49.3599 187.294 49.4505 186.878 49.3143C171.345 44.2332 158.711 42.0407 145.287 42.0799C131.837 42.1191 117.542 44.3971 98.6617 48.326C98.2725 48.407 97.8675 48.2991 97.5702 48.0353C97.2732 47.7715 97.1186 47.3829 97.1526 46.9872C98.8816 26.9285 109.605 10.1557 130.395 3.7761C131.632 2.51751 133.616 1.71543 135.706 1.22049ZM143.231 3.02522C140.807 2.96349 138.342 3.18115 136.286 3.66801C134.402 4.11414 133.044 4.74432 132.299 5.43343L129.619 32.5805L127.116 32.3332L129.651 6.65842C111.544 12.8195 101.867 27.5404 99.8269 45.5182C117.923 41.7937 131.97 39.6032 145.279 39.5644C158.445 39.526 170.839 41.592 185.692 46.2912C183.718 34.8024 180.883 27.0675 176.217 21.2338C171.589 15.4483 165.056 11.3991 155.389 7.49773L158.217 32.3144L155.718 32.5993L152.672 5.87151C152.551 5.61818 152.307 5.32075 151.86 5.00436C151.35 4.64248 150.642 4.304 149.754 4.01192C147.979 3.42781 145.661 3.0871 143.231 3.02522Z" fill="white"/>
<path d="M92.6169 55.446C91.9654 51.606 92.3818 49.7199 96.7026 47.615C117.257 39.711 131.077 38.2638 159.35 40.4651C173.987 42.5936 180.664 44.6764 191.014 49.3174C193.397 50.6793 192.716 56.8079 189.312 56.4674C189.312 56.4674 185.566 55.446 181.14 54.765C145.895 48.5388 127.788 48.8535 96.7026 58.5102C94.5077 58.1515 93.6475 57.245 92.6169 55.446Z" fill="#A0CBEF" stroke="#E60C0C" stroke-linejoin="round"/>
<path d="M96.5523 47.2241C116.537 39.5392 130.193 37.9393 156.77 39.8512L159.383 40.0469L159.411 40.0502C173.166 42.0505 179.927 44.0153 189.278 48.0912L191.186 48.9346L191.222 48.9535C191.945 49.3665 192.399 50.1176 192.635 50.9416C192.873 51.77 192.905 52.7188 192.746 53.6053C192.587 54.4891 192.231 55.3469 191.657 55.9693C191.072 56.6038 190.265 56.9843 189.27 56.8848C189.247 56.8824 189.224 56.8777 189.202 56.8717H189.199C189.198 56.8712 189.195 56.8701 189.191 56.8692C189.184 56.8673 189.174 56.8647 189.16 56.861C189.132 56.8535 189.09 56.8419 189.036 56.8274C188.926 56.7985 188.763 56.7566 188.554 56.7038C188.137 56.5981 187.534 56.4498 186.793 56.2804C185.31 55.9415 183.277 55.5176 181.076 55.1791L181.067 55.1783C163.456 52.0672 150.152 50.5947 137.378 51.1005C124.608 51.6061 112.347 54.0891 96.8266 58.9106C96.7646 58.9298 96.6991 58.9341 96.635 58.9237C95.4881 58.7362 94.6503 58.3989 93.9607 57.8453C93.2792 57.2982 92.7752 56.5649 92.2534 55.654C92.229 55.6114 92.2117 55.5649 92.2034 55.5165C91.8766 53.5899 91.7936 52.0438 92.4147 50.7033C93.0391 49.3558 94.3313 48.3036 96.5187 47.238C96.5296 47.2327 96.5411 47.2284 96.5523 47.2241ZM159.305 40.8813C131.093 38.6855 117.34 40.1305 96.8757 47.997C94.7495 49.0342 93.6757 49.9764 93.1754 51.0562C92.6774 52.1311 92.7059 53.4289 93.019 55.3028C93.512 56.1559 93.9443 56.7564 94.4855 57.191C95.0159 57.6168 95.6812 57.9053 96.6768 58.0786C112.195 53.2635 124.506 50.7711 137.345 50.2628C150.205 49.7537 163.575 51.2366 181.203 54.3504C183.429 54.6929 185.483 55.1213 186.979 55.4632C187.728 55.6343 188.337 55.7836 188.76 55.8907C188.972 55.9442 189.137 55.9872 189.249 56.0168C189.305 56.0315 189.348 56.0434 189.377 56.0512L189.38 56.052C190.074 56.1136 190.621 55.8566 191.041 55.401C191.477 54.9277 191.782 54.2327 191.921 53.4571C192.06 52.6838 192.028 51.8656 191.829 51.1725C191.632 50.4824 191.282 49.9609 190.821 49.6904C180.524 45.0749 173.886 43.0024 159.305 40.8813Z" fill="#EFF2F5"/>
<path d="M106.577 56.9665L98.7459 58.6689L105.555 74.3307L106.577 56.9665Z" fill="#003261"/>
<path d="M106.488 56.557C106.616 56.5293 106.75 56.5628 106.849 56.6479C106.949 56.7332 107.003 56.8601 106.996 56.991L105.974 74.3554C105.962 74.5489 105.82 74.7094 105.629 74.7435C105.438 74.7774 105.248 74.6758 105.171 74.4979L98.361 58.8359C98.3111 58.7209 98.3155 58.5896 98.3725 58.478C98.4297 58.3664 98.5341 58.2861 98.6566 58.2594L106.488 56.557ZM99.3338 58.9693L105.239 72.5531L106.125 57.493L99.3338 58.9693Z" fill="white"/>
<path d="M177.396 57.3069L185.226 59.0093L178.417 74.6711L177.396 57.3069Z" fill="#003261"/>
<path d="M177.484 56.8975C177.356 56.8697 177.223 56.9032 177.123 56.9884C177.024 57.0736 176.969 57.2006 176.977 57.3315L177.999 74.6958C178.01 74.8893 178.152 75.0499 178.343 75.084C178.534 75.1179 178.725 75.0162 178.802 74.8383L185.611 59.1763C185.661 59.0614 185.657 58.93 185.6 58.8185C185.543 58.7069 185.438 58.6266 185.316 58.5999L177.484 56.8975ZM184.639 59.3098L178.733 72.8936L177.847 57.8334L184.639 59.3098Z" fill="white"/>
<path d="M94.6609 77.7365C95.0025 80.46 98.0183 89.1194 102.832 92.7163L103.52 80.1198C100.443 80.157 98.4054 80.1198 98.0724 77.7365C97.9782 75.8556 99.0588 76.2618 102.832 76.0348C102.832 72.6283 99.8028 70.8471 97.3914 71.608C94.2872 73.1894 94.6611 75.3532 94.6609 77.7365Z" fill="#A0CBEF"/>
<path d="M97.0133 70.4088C100.235 69.3924 104.089 71.7786 104.089 76.0351C104.089 76.7002 103.571 77.2503 102.907 77.2903C101.945 77.3483 101.139 77.3661 100.529 77.3886C99.9267 77.4108 99.5635 77.4382 99.3266 77.4836C99.3258 77.5209 99.3256 77.5656 99.3274 77.6187C99.3883 78.0011 99.4985 78.1969 99.5919 78.3073C99.6895 78.4228 99.8487 78.5401 100.154 78.639C100.852 78.8645 101.898 78.882 103.505 78.8625C103.853 78.8584 104.187 78.9986 104.428 79.2498C104.669 79.5011 104.795 79.8407 104.776 80.1882L104.087 92.7853C104.062 93.248 103.784 93.6592 103.364 93.8555C102.944 94.0518 102.45 94.0012 102.079 93.7237C99.426 91.7414 97.361 88.4557 95.9325 85.437C94.5013 82.4127 93.6061 79.4334 93.4129 77.893C93.4064 77.8411 93.4031 77.7889 93.4031 77.7366C93.4031 76.702 93.2946 75.2859 93.652 74.0281C94.0551 72.6095 95.0018 71.4141 96.8209 70.4874L96.9151 70.444C96.9472 70.4309 96.9802 70.4193 97.0133 70.4088ZM101.391 74.842C100.846 73.1651 99.177 72.4245 97.8641 72.7802C96.6559 73.4189 96.2529 74.0776 96.0717 74.7151C95.8455 75.5108 95.9136 76.3471 95.9169 77.6408C96.0838 78.8542 96.8638 81.5239 98.2064 84.361C99.1626 86.3817 100.355 88.3776 101.723 89.948L102.191 81.3805C101.176 81.3669 100.196 81.2964 99.3798 81.0324C98.7501 80.8287 98.145 80.4925 97.6709 79.9319C97.1969 79.3715 96.9345 78.6821 96.8266 77.9102C96.8215 77.8735 96.8179 77.8366 96.816 77.7997C96.7891 77.2623 96.821 76.603 97.1861 76.0318C97.5888 75.4019 98.2109 75.1528 98.7296 75.0377C99.2246 74.9279 99.825 74.8973 100.437 74.8748C100.733 74.8639 101.048 74.8541 101.391 74.842Z" fill="white"/>
<path d="M190.341 77.9094C189.999 80.6329 186.984 89.2924 182.17 92.8892L181.482 80.2927C184.559 80.33 186.596 80.2927 186.929 77.9094C187.024 76.0285 185.943 76.4347 182.17 76.2077C182.17 72.8012 185.199 71.02 187.61 71.7809C190.715 73.3623 190.341 75.5261 190.341 77.9094Z" fill="#A0CBEF"/>
<path d="M187.988 70.5816C184.767 69.5653 180.913 71.9515 180.913 76.2079C180.913 76.873 181.431 77.4231 182.094 77.4632C183.057 77.5211 183.862 77.539 184.472 77.5615C185.075 77.5837 185.438 77.611 185.675 77.6564C185.676 77.6938 185.676 77.7385 185.674 77.7915C185.613 78.1739 185.503 78.3698 185.41 78.4802C185.312 78.5956 185.153 78.713 184.847 78.8118C184.15 79.0374 183.104 79.0548 181.497 79.0354C181.149 79.0313 180.815 79.1714 180.574 79.4227C180.333 79.6739 180.207 80.0136 180.226 80.3611L180.914 92.9581C180.94 93.4209 181.218 93.832 181.638 94.0284C182.058 94.2247 182.552 94.1741 182.923 93.8965C185.576 91.9142 187.641 88.6285 189.069 85.6098C190.5 82.5856 191.396 79.6062 191.589 78.0659C191.595 78.014 191.599 77.9617 191.599 77.9095C191.599 76.8748 191.707 75.4587 191.35 74.2009C190.947 72.7824 190 71.587 188.181 70.6603L188.087 70.6169C188.055 70.6037 188.022 70.5921 187.988 70.5816ZM183.611 75.0149C184.156 73.3379 185.825 72.5973 187.138 72.953C188.346 73.5918 188.749 74.2505 188.93 74.8879C189.156 75.6837 189.088 76.52 189.085 77.8137C188.918 79.027 188.138 81.6967 186.795 84.5339C185.839 86.5545 184.647 88.5504 183.278 90.1208L182.811 81.5533C183.826 81.5398 184.806 81.4692 185.622 81.2053C186.252 81.0016 186.857 80.6653 187.331 80.1048C187.805 79.5443 188.067 78.8549 188.175 78.0831C188.18 78.0464 188.184 78.0095 188.186 77.9725C188.213 77.4352 188.181 76.7759 187.816 76.2046C187.413 75.5748 186.791 75.3256 186.272 75.2106C185.777 75.1008 185.177 75.0702 184.565 75.0476C184.269 75.0367 183.954 75.027 183.611 75.0149Z" fill="white"/>
<path d="M159.01 98.5044C145.679 101.522 137.123 100.925 124.622 98.8448C127.162 106.104 133.815 112.464 141.646 112.464C150.839 112.464 157.936 107.7 159.01 98.5044Z" fill="white"/>
<path d="M159.01 98.5044C157.936 107.7 150.838 112.464 141.646 112.464V111.625C146.103 111.625 149.984 110.47 152.863 108.266C155.466 106.274 157.301 103.386 157.999 99.5852C145.714 102.223 137.366 101.742 125.935 99.9062C128.7 106.352 134.751 111.625 141.646 111.625V112.464L141.28 112.459C133.608 112.265 127.122 105.991 124.622 98.845C137.123 100.925 145.679 101.522 159.01 98.5044Z" fill="white"/>
<path d="M174.197 94.5808C172.675 97.93 169.612 98.8104 167.85 96.3431C167.85 96.3431 163.97 91.0563 151.278 88.2366L147.399 91.0563C144.883 93.5328 143.185 94.1449 139.29 92.8186L135.41 89.999C126.929 90.3136 122.716 92.1137 115.664 99.1628C110.597 95.1584 108.614 90.3514 108.614 85.0645L109.319 58.2779C125.596 54.7817 131.252 54.8608 142.109 54.7557C157.591 54.4926 165.38 55.8131 176.311 58.2777C177.369 63.2121 177.37 76.9581 177.37 76.9581C176.698 87.4291 176.311 90.7039 174.197 94.5808Z" fill="#A0CBEF"/>
<path d="M141.665 53.9173C157.402 53.6532 165.348 54.9819 176.453 57.4552C176.786 57.5296 177.046 57.7887 177.118 58.119C177.672 60.6728 177.941 65.4179 178.074 69.4489C178.141 71.4804 178.175 73.3568 178.191 74.7249C178.2 75.4091 178.205 75.967 178.207 76.3537C178.208 76.5468 178.208 76.6974 178.209 76.7999V76.9573C178.209 76.9757 178.208 76.9949 178.207 77.0132C177.531 87.4174 177.14 90.8948 174.901 94.9584C174.06 96.763 172.743 98.0353 171.242 98.4515C169.667 98.8884 168.082 98.3257 166.998 96.8319L166.991 96.8226C166.986 96.817 166.98 96.8092 166.973 96.7998C166.949 96.7699 166.908 96.7213 166.85 96.6558C166.735 96.5248 166.549 96.3265 166.283 96.0751C165.754 95.5725 164.905 94.8577 163.659 94.0517C161.219 92.4732 157.244 90.5379 151.141 89.1559L147.589 91.7067C146.308 92.9457 145.116 93.837 143.658 94.1855C142.179 94.5391 140.575 94.3015 138.546 93.6191C138.463 93.5911 138.385 93.5507 138.314 93.4997L134.637 90.8618C130.56 91.0303 127.559 91.5535 124.748 92.8242C121.86 94.13 119.099 96.2562 115.563 99.7476C115.248 100.059 114.748 100.087 114.398 99.8145C109.06 95.6465 106.937 90.5926 106.937 85.0541V85.0313L107.65 58.2781C107.661 57.8784 107.947 57.5377 108.343 57.4535C124.876 53.9455 130.661 54.0225 141.665 53.9173ZM175.507 59.0231C164.8 56.6536 156.999 55.3934 141.695 55.6503H141.688C130.895 55.7535 125.247 55.6766 109.386 59.007L108.693 85.077C108.698 89.8797 110.434 94.2472 114.888 97.9689C118.228 94.7327 121.019 92.6037 124.018 91.2478C127.022 89.8897 130.172 89.3363 134.179 89.1457C135.35 83.3556 137.033 78.3931 139.843 73.3703L140.612 73.7894L141.38 74.2093C138.655 79.0819 137.019 83.9031 135.876 89.6071L139.235 92.0174C141.075 92.6238 142.267 92.7338 143.245 92.4999C144.247 92.2604 145.172 91.6278 146.413 90.4207L146.513 90.3377L150.434 87.5211L150.512 87.4712C150.701 87.3636 150.925 87.3291 151.141 87.3763C157.654 88.8056 161.942 90.8685 164.621 92.6015C165.96 93.4675 166.893 94.2493 167.5 94.8247C167.803 95.1122 168.025 95.3476 168.174 95.5163C168.248 95.6004 168.304 95.6681 168.344 95.717C168.363 95.7414 168.379 95.7614 168.391 95.7762C168.397 95.7836 168.402 95.7899 168.405 95.7948C168.407 95.7972 168.408 95.7998 168.41 95.8016L168.411 95.8042L168.412 95.805C168.41 95.8073 168.375 95.8336 167.895 96.1809L168.413 95.8059L168.42 95.8152L168.552 95.987C169.222 96.8048 170.017 96.9909 170.768 96.7828C171.634 96.5423 172.625 95.7179 173.323 94.1999L173.352 94.144C175.378 90.4728 175.772 87.4063 176.453 76.9277V76.8049C176.452 76.704 176.452 76.5547 176.451 76.363C176.449 75.9797 176.444 75.4259 176.436 74.746C176.419 73.386 176.386 71.522 176.319 69.5056C176.194 65.7301 175.953 61.5078 175.507 59.0231Z" fill="white"/>
<path d="M125.643 70.9259C127.9 70.9259 129.729 73.3649 129.729 76.3735C129.729 79.3821 127.9 81.8211 125.643 81.8211C123.387 81.8211 121.558 79.3821 121.558 76.3735C121.558 73.3649 123.387 70.9259 125.643 70.9259ZM157.988 70.9259C160.057 70.9259 161.734 73.2124 161.734 76.033C161.734 78.8536 160.057 81.1401 157.988 81.1401C155.92 81.1401 154.243 78.8536 154.243 76.033C154.243 73.2124 155.92 70.9259 157.988 70.9259Z" fill="#002553"/>
<path d="M152.44 65.0393C150.4 65.3812 149.038 63.6788 151.418 62.6559C157.55 60.6144 163.338 60.954 168.442 64.3583C169.806 65.7207 168.785 67.0826 166.74 66.7416C165.04 66.0612 160.614 64.0183 152.44 65.0393Z" fill="#002553"/>
<path d="M131.988 65.443C134.006 65.8998 135.462 64.2772 133.143 63.1213C127.137 60.7361 121.339 60.7477 116.05 63.8578C114.612 65.1408 115.553 66.5583 117.615 66.3336C119.35 65.7504 123.885 63.9612 131.988 65.443Z" fill="#002553"/>
<path d="M510.607 48.2707C509.608 48.4523 506.521 49.0878 503.797 49.6326C495.808 51.2669 491.268 53.6275 482.733 60.7094C479.646 63.1608 475.47 69.5163 472.292 76.5074C470.295 80.7747 469.75 83.4077 469.478 90.762C468.751 106.469 472.201 115.912 482.098 125.99C506.975 151.412 552.826 138.61 559.998 104.199C561.451 97.3899 561.27 87.1302 559.635 80.8655C555.731 66.157 543.474 53.7183 528.947 49.905C523.863 48.5431 513.422 47.6352 510.607 48.2707ZM524.771 71.0598C531.671 73.7836 536.665 81.8642 537.209 91.3975C538.117 106.015 530.581 116.547 518.143 118.091C501.618 120.179 489.906 106.378 493.084 88.5829C495.808 72.9665 509.881 65.1583 524.771 71.0598Z" fill="#3E80FF"/>
<path d="M898.112 49.5418C892.756 50.6313 883.586 55.2618 878.864 59.2567C874.325 63.1608 868.877 70.8782 866.698 76.5982C861.795 89.1277 863.883 110.01 871.056 120.27C873.871 124.265 883.404 132.89 886.945 134.615C897.386 139.7 914.092 141.243 925.986 138.156C933.159 136.34 942.147 131.891 946.959 127.806L950.5 124.719V106.197V87.675H930.526H910.551V96.7543V105.834H919.177H927.802V110.827C927.802 115.73 927.802 115.821 923.989 117.637C918.269 120.361 906.284 120.361 900.836 117.546C891.939 113.006 887.217 103.655 888.034 92.2146C889.033 78.6864 899.293 68.6084 911.913 68.6084C917.361 68.6084 921.628 70.6966 925.35 75.0547L928.619 78.7772L939.06 76.3258C944.871 75.0547 949.592 73.602 949.592 73.2388C949.592 71.423 942.692 61.3449 939.333 58.258C934.521 53.8999 930.253 51.7208 923.081 49.9958C916.997 48.5431 904.377 48.3615 898.112 49.5418Z" fill="#3E80FF"/>
<path d="M342.185 51.6307C342.185 52.811 342.548 54.0821 343.002 54.5361C343.456 55.0808 344.092 56.6243 344.273 58.1678C344.546 59.6205 345 61.5272 345.272 62.2535C345.544 62.9799 345.998 64.7957 346.271 66.3392C346.906 69.4262 347.088 70.2433 347.905 72.2408C348.177 72.9671 351.718 86.6769 355.804 102.657C359.89 118.636 363.703 133.254 364.248 135.07L365.337 138.52H377.776H390.215L391.577 135.524C392.394 133.98 393.392 130.802 393.846 128.533C394.3 126.263 395.118 122.994 395.662 121.269C400.474 104.291 403.924 91.4889 403.924 90.127C403.924 86.4953 405.377 89.0375 406.921 95.6654C407.919 99.4788 409.009 103.02 409.372 103.564C409.735 104.018 411.006 107.923 412.096 112.19C413.185 116.457 414.638 121.723 415.274 123.993C416 126.263 417.18 130.439 417.997 133.345L419.45 138.611L431.798 138.338L444.146 138.066L451.319 110.828C455.223 95.847 458.673 82.3188 458.945 80.8661C459.127 79.3226 459.762 77.3252 460.216 76.3265C460.67 75.3277 461.215 73.5119 461.487 72.2408C461.669 70.9697 463.122 65.7037 464.665 60.4376C466.209 55.1716 467.48 50.632 467.48 50.178C467.48 49.8148 462.032 49.5425 455.495 49.5425H443.42L437.609 77.0528C434.431 92.1245 431.344 105.471 430.89 106.742C429.982 109.103 429.619 108.013 420.176 68.1551C418.633 61.618 416.908 54.8085 416.363 52.9018L415.274 49.5425H405.196H395.208L392.212 61.5272C390.578 68.1551 388.944 74.4198 388.49 75.4185C388.036 76.4173 387.491 78.4147 387.218 79.9582C386.674 83.2268 381.408 104.836 380.681 106.742C380.227 107.923 376.505 95.4839 375.234 88.1296C374.871 86.5861 374.326 84.6795 373.872 83.8623C373.418 83.0452 373.055 81.1385 373.055 79.7766C373.055 78.3239 372.692 76.7804 372.238 76.2357C371.784 75.7817 371.239 74.1474 370.966 72.6947C370.785 71.1513 370.422 69.3354 370.059 68.609C369.786 67.8827 368.606 63.2522 367.516 58.3494L365.428 49.5425H353.807C342.276 49.5425 342.185 49.5425 342.185 51.6307Z" fill="#3E80FF"/>
<path d="M570.984 93.9394V138.519H582.787H594.59V122.63C594.59 101.657 594.681 101.657 608.209 122.267C613.838 130.801 618.923 137.974 619.558 138.156C620.103 138.428 626.368 138.428 633.45 138.337L646.252 138.065L634.539 122.176C628.093 113.46 622.736 106.015 622.736 105.743C622.736 105.47 624.461 104.653 626.64 103.927C632.088 102.111 637.717 96.2092 639.442 90.3077C641.258 84.3153 641.258 74.8728 639.533 68.9712C637.808 63.2513 631.725 56.2602 625.369 52.7192L620.466 49.9954L595.771 49.7231L570.984 49.4507V93.9394ZM611.296 69.8792C615.473 71.6042 617.289 74.5096 617.289 79.6848C617.289 87.5839 611.841 91.2156 599.856 91.3064H594.59V79.9572V68.6081H601.4C605.213 68.6081 609.571 69.1528 611.296 69.8792Z" fill="#3E80FF"/>
<path d="M653.152 50.632C652.88 51.2675 652.789 71.242 652.88 94.9391L653.152 138.066L664.683 138.338L676.304 138.611L676.486 121.178C676.668 110.556 677.122 103.655 677.666 103.474C678.211 103.292 684.294 111.01 691.376 120.634L704.178 138.066L718.886 138.247C726.876 138.338 733.504 138.157 733.504 137.884C733.504 137.612 730.508 133.708 726.876 129.077C723.245 124.538 717.434 117.093 713.984 112.644C710.443 108.104 705.903 102.384 703.906 99.7511C701.817 97.2089 699.82 94.2127 699.457 93.214C698.73 90.9442 698.186 91.9429 721.066 60.4376L728.965 49.4517L715.164 49.724L701.273 49.9964L690.196 66.3392C684.113 75.3277 679.119 83.2268 679.119 83.8623C679.028 84.5887 678.483 84.9518 677.939 84.7702C677.031 84.4071 676.668 79.8674 676.486 66.9748L676.304 49.5425H664.864C656.693 49.5425 653.425 49.8148 653.152 50.632Z" fill="#3E80FF"/>
<path d="M739.86 94.0302V138.519H751.663H763.466V94.0302V49.5415H751.663H739.86V94.0302Z" fill="#3E80FF"/>
<path d="M777.993 94.0302V138.519H788.979H800.056L799.42 111.735C799.057 97.0264 798.966 84.9509 799.148 84.9509C799.42 84.9509 800.782 86.8575 802.144 89.2181C803.596 91.6696 805.231 94.3934 805.866 95.3921C806.502 96.3908 807.319 97.8435 807.682 98.5698C808.318 99.9317 823.48 124.991 825.205 127.624C825.75 128.35 827.384 131.165 828.928 133.707L831.742 138.519H843.455H855.167V94.0302V49.5415H843.999H832.832L833.195 73.3293C833.377 86.4943 833.467 98.2067 833.286 99.387C833.013 101.203 831.47 99.2054 825.75 89.3997C813.13 67.8817 809.498 61.8894 805.503 55.6246L801.599 49.5415H789.796H777.993V94.0302Z" fill="#3E80FF"/>
<path d="M609.118 157.949C608.845 158.222 607.302 158.676 605.668 158.948C587.963 162.035 573.618 176.38 570.077 194.63C567.807 205.888 570.44 220.96 576.069 229.767C586.601 246.11 609.572 254.644 628.184 249.106C632.088 248.016 640.986 243.84 642.348 242.478C642.893 242.024 644.709 240.571 646.434 239.391C653.062 234.851 660.053 222.594 661.869 212.516C665.41 192.178 655.422 171.659 637.99 163.215C632.815 160.673 630.363 159.856 625.007 158.767C621.556 158.04 609.572 157.405 609.118 157.949ZM625.279 180.194C628.729 182.01 634.086 187.276 636.083 190.817C636.628 191.906 637.627 195.265 638.172 198.352C640.532 211.245 634.631 223.502 623.917 227.951C619.922 229.676 610.934 229.676 607.029 228.042C598.586 224.501 592.593 214.241 592.866 203.982C593.41 188.547 602.581 178.469 616.109 178.469C620.013 178.469 623.009 179.013 625.279 180.194Z" fill="#3E80FF"/>
<path d="M420.268 204.254V249.288H432.071H443.874V234.761V220.234H454.77C468.661 220.234 475.38 218.236 481.372 212.516C487.364 206.615 489.543 201.44 489.997 191.543C490.542 180.648 488.908 175.473 483.097 169.571C480.736 167.21 476.378 164.123 473.382 162.58L467.935 159.947L444.147 159.584L420.268 159.221V204.254ZM458.311 178.106C459.854 178.469 462.396 179.831 463.849 181.193C466.391 183.553 466.573 184.28 466.573 189.818C466.573 195.447 466.391 196.083 463.758 198.534C460.399 201.621 456.131 202.983 449.14 202.983H443.874V190.272V177.561H449.685C452.863 177.561 456.767 177.833 458.311 178.106Z" fill="#3E80FF"/>
<path d="M501.074 204.345V249.288H530.582H560.089V239.3V229.313H542.385H524.589L524.862 221.323L525.134 213.424H540.75H556.458V204.073V194.812H540.569H524.68V186.64V178.469H542.385H560.089V168.936V159.402H530.582H501.074V204.345Z" fill="#3E80FF"/>
<path d="M673.581 203.345C673.581 227.587 673.581 247.743 673.581 248.106C673.581 248.56 678.757 248.833 685.203 248.833H696.734L697.006 234.669L697.188 220.414L710.171 220.051C721.066 219.779 723.79 219.416 727.603 217.691C733.323 215.058 739.225 209.338 741.222 204.435C742.039 202.437 743.129 199.986 743.583 199.169C744.672 197.081 744.672 182.554 743.583 180.465C743.129 179.648 742.221 177.742 741.585 176.38C739.316 171.477 734.322 166.846 727.876 163.396L721.248 159.946L697.46 159.583L673.581 159.22V203.345ZM712.713 178.377C713.984 178.65 716.163 179.83 717.616 181.01C719.977 182.826 720.34 183.825 720.612 189C720.975 194.72 720.975 194.811 717.434 198.352C714.529 201.348 713.076 201.983 708.991 202.528C702.272 203.345 696.734 202.801 696.824 201.348C696.915 200.803 697.006 195.174 697.097 188.909L697.188 177.56L703.815 177.651C707.356 177.742 711.351 178.014 712.713 178.377Z" fill="#3E80FF"/>
<path d="M755.113 204.073L755.385 248.834L784.439 249.106L813.402 249.288V238.846V228.405H795.697H777.993V193.904V159.402H766.371H754.84L755.113 204.073Z" fill="#3E80FF"/>
<path d="M824.297 204.345V249.288H853.805H883.313V239.3V229.313H865.154H846.905L847.177 221.505L847.45 213.697L863.338 213.515L879.227 213.424L879.5 204.073L879.772 194.812H863.338H846.996V186.64V178.469H864.61H882.223L882.133 169.117L881.951 159.856L853.17 159.584L824.297 159.402V204.345Z" fill="#3E80FF"/>
<path d="M285.875 115.528C285.875 97.9249 271.605 83.655 254.002 83.6549C236.4 83.6549 222.13 97.9248 222.13 115.528C222.13 133.13 236.4 147.4 254.002 147.4V149.916L253.115 149.904C234.828 149.441 220.089 134.702 219.626 116.415L219.614 115.528C219.614 96.5356 235.01 81.1394 254.002 81.1394L254.89 81.1509C273.471 81.6218 288.39 96.8324 288.39 115.528L288.379 116.415C287.908 134.997 272.697 149.916 254.002 149.916V147.4C271.605 147.4 285.875 133.13 285.875 115.528Z" fill="#072D5E"/>
<path d="M280.9 115.527C280.9 100.672 268.857 88.6299 254.002 88.6299C239.147 88.6299 227.105 100.672 227.105 115.527C227.105 130.382 239.147 142.425 254.002 142.425V146.511C236.891 146.511 223.019 132.639 223.019 115.527C223.019 98.4158 236.891 84.5442 254.002 84.5442C271.114 84.5442 284.985 98.4158 284.985 115.527C284.985 132.639 271.114 146.511 254.002 146.511V142.425C268.857 142.425 280.9 130.382 280.9 115.527Z" fill="#5098D3"/>
<path d="M276.814 115.528C276.814 128.127 266.753 138.34 254.343 138.34C241.932 138.34 231.871 128.127 231.871 115.528C231.871 102.929 241.932 92.7162 254.343 92.7162C266.753 92.7162 276.814 102.929 276.814 115.528Z" fill="#072D5E"/>
<path d="M273.46 115.528C273.46 104.734 264.854 96.0703 254.343 96.0702C243.832 96.0702 235.225 104.734 235.225 115.528C235.226 126.322 243.832 134.986 254.343 134.986V138.34L253.763 138.332C241.813 138.025 232.182 128.248 231.879 116.117L231.871 115.528C231.871 102.93 241.932 92.7162 254.343 92.7162L254.923 92.7236C267.065 93.0358 276.814 103.127 276.814 115.528L276.807 116.117C276.499 128.443 266.559 138.34 254.343 138.34V134.986C264.854 134.986 273.46 126.322 273.46 115.528Z" fill="#072D5E"/>
<path d="M267.124 110.254C267.519 106.476 264.615 104.576 260.703 103.391L261.74 98.2525L258.653 97.6092L257.643 102.613C256.833 102.443 256 102.287 255.173 102.132L256.19 97.0952L253.106 96.4517L252.068 101.589C251.397 101.463 250.738 101.339 250.098 101.206L250.101 101.19L245.845 100.301L245.172 103.642C245.172 103.642 247.459 104.073 247.413 104.108C248.663 104.369 248.922 105.189 248.911 105.849L247.73 111.703C247.816 111.721 247.928 111.748 248.052 111.793L247.727 111.725L246.07 119.926C245.934 120.313 245.575 120.901 244.701 120.72C244.734 120.764 242.458 120.252 242.458 120.252L241.091 123.86L245.108 124.698C245.855 124.855 246.588 125.021 247.308 125.176L246.26 130.375L249.343 131.018L250.381 125.876C251.223 126.07 252.041 126.248 252.841 126.414L251.807 131.532L254.893 132.175L255.941 126.988C261.19 127.768 265.089 127.201 266.535 122.357C267.702 118.457 266.215 116.297 263.415 114.965C265.39 114.413 266.838 113.02 267.124 110.254ZM260.562 120.467C259.779 124.351 253.308 122.542 251.216 122.107L252.606 115.221C254.698 115.657 261.378 116.416 260.562 120.467ZM261.087 110.452C260.373 113.985 254.984 112.432 253.241 112.069L254.502 105.823C256.245 106.186 261.832 106.766 261.087 110.452Z" fill="#B2D2F1"/>
<path d="M244.469 136.978C240.409 138.758 239.079 140.163 237.66 143.107C233.914 144.809 230.913 148.933 230.169 153.321C227.445 154.683 225.627 157.279 226.765 162.514C221.258 167.261 221.476 171.067 226.765 177.495C219.955 183.623 210.081 192.135 208.719 202.009C208.526 212.245 210.583 216.761 219.274 223.118C228.467 227.885 244.81 222.437 250.257 207.116C255.024 190.773 256.322 181.767 262.514 166.94C263.775 161.479 263.788 158.202 262.514 151.959C258.223 144.992 254.739 141.459 244.469 136.978Z" fill="#A0CAEF"/>
<path d="M244.972 135.825C250.164 138.091 253.729 140.154 256.554 142.583C259.209 144.866 261.154 147.425 263.179 150.646L263.585 151.3L263.702 151.489L263.747 151.707C264.391 154.868 264.724 157.341 264.723 159.743C264.721 162.152 264.383 164.437 263.74 167.223L263.716 167.327L263.675 167.424C257.517 182.167 256.272 190.984 251.465 207.468L251.455 207.503L251.443 207.538C248.597 215.541 242.895 220.983 236.69 223.796C230.519 226.592 223.718 226.839 218.696 224.235L218.61 224.19L218.532 224.133C214.124 220.909 211.246 218.046 209.537 214.574C207.828 211.102 207.364 207.173 207.462 201.985L207.463 201.911L207.473 201.837C208.202 196.554 211.187 191.736 214.739 187.535C217.993 183.685 221.823 180.242 225.042 177.352C222.823 174.492 221.489 171.925 221.459 169.389C221.428 166.676 222.875 164.349 225.393 162.049C224.962 159.596 225.147 157.586 225.869 155.956C226.572 154.371 227.725 153.268 229.048 152.497C229.984 148.131 232.937 144.067 236.726 142.16C237.41 140.801 238.144 139.679 239.22 138.683C240.386 137.603 241.88 136.74 243.964 135.826L244.468 135.606L244.972 135.825ZM244.474 138.355C242.792 139.125 241.721 139.795 240.929 140.529C240.32 141.092 239.839 141.728 239.367 142.553C245.344 145.534 249.389 147.779 254.814 152.36L253.191 154.282C247.816 149.743 243.896 147.609 237.657 144.511C234.9 145.985 232.599 148.982 231.679 152.321C238.976 153.802 242.699 157.022 248.699 162.246L247.048 164.143C240.84 158.739 237.512 155.901 230.379 154.634C229.383 155.2 228.623 155.949 228.169 156.974C227.689 158.057 227.488 159.588 227.9 161.786L241.467 171.712L239.981 173.743L226.848 164.133C224.751 166.113 223.955 167.744 223.974 169.359C223.995 171.226 225.094 173.465 227.659 176.6L238.453 185.371L236.866 187.323L226.806 179.148C223.555 182.068 219.82 185.422 216.66 189.16C213.25 193.193 210.627 197.542 209.976 202.105C209.886 207.114 210.357 210.543 211.793 213.463C213.228 216.377 215.7 218.935 219.932 222.04C224.098 224.161 230.025 224.054 235.651 221.505C241.27 218.958 246.457 214.023 249.062 206.719C253.766 190.582 255.125 181.394 261.31 166.559C261.913 163.931 262.206 161.871 262.207 159.742C262.209 157.631 261.923 155.401 261.324 152.428C259.257 149.092 257.416 146.642 254.914 144.49C252.442 142.365 249.266 140.479 244.474 138.355Z" fill="white"/>
</svg>
