<svg width="1134" height="299" viewBox="0 0 1134 299" fill="none" xmlns="http://www.w3.org/2000/svg">
<path d="M290.704 292.392H191.627L174.167 241.635H164.827L148.179 291.58L48.6955 291.174L20.6777 151.897L26.3625 144.994L42.1987 153.521L45.8532 180.727C35.7018 183.569 36.5264 196.121 41.7926 216.866C46.5081 246.974 50.3198 261.938 65.7499 267.217C76.3073 268.435 89.3011 263.156 97.0161 244.884C104.252 230.266 108.391 218.715 110.416 199.406H127.876C128.849 201.408 129.569 202.001 131.125 202.248H205.839C207.242 201.546 207.869 201.03 208.275 198.999H227.766C233.451 234.326 239.948 235.138 252.941 258.69C264.311 269.653 283.395 273.308 299.638 244.884L290.704 292.392Z" fill="#1164AC" stroke="white" stroke-width="3"/>
<path d="M275.682 53.5684L252.131 169.294L269.997 188.785C270.517 184.477 271.48 182.359 275.276 179.445C275.888 175.212 277.081 171.943 281.367 168.294C273.495 159.085 270.072 154.467 269.343 142.088C268.143 125.475 268.745 119.899 286.24 106.513C298.707 100.351 307.501 103.192 326.845 109.513L337.402 53.5684H275.682Z" fill="#1165AC" stroke="white" stroke-width="3" stroke-linejoin="round"/>
<path d="M130.719 240.416V227.422H208.681V240.416" stroke="white" stroke-width="5" stroke-linejoin="round"/>
<path d="M201.779 151.084C238.112 159.063 252.049 166.855 269.59 192.907C262.281 202.653 266.226 202.959 270.402 212.398L257.408 223.362C248.007 234.596 247.268 241.24 250.911 255.846C236.778 235.066 232.003 223.071 227.766 198.592H208.682L205.433 203.059L130.719 202.247C129.556 201.954 128.933 201.435 127.877 199.404H110.416C107.746 229.182 98.3173 241.667 87.2711 257.876C90.9177 240.765 83.4409 234.025 70.2168 220.925C75.0626 219.447 78.3379 216.459 78.744 211.18C86.2127 202.259 86.9049 198.528 85.2408 192.907C83.3582 187.621 81.5863 184.786 76.7137 181.538C97.6521 160.317 111.228 155.144 137.216 150.678C135.186 170.98 148.585 175.041 168.888 176.259C191.083 175.699 203.877 168.764 201.779 151.084Z" fill="#003161"/>
<path d="M87.2711 257.876C90.9177 240.765 83.4409 234.025 70.2168 220.925C75.0626 219.447 78.3379 216.459 78.744 211.18C86.2127 202.259 86.9049 198.528 85.2408 192.907C83.3582 187.621 81.5863 184.786 76.7137 181.538C97.6521 160.317 111.228 155.144 137.216 150.678C135.186 170.98 148.585 175.041 168.888 176.259C191.083 175.699 203.877 168.764 201.779 151.084C238.112 159.063 252.049 166.855 269.59 192.907C262.281 202.653 266.226 202.959 270.402 212.398L257.408 223.362C248.007 234.596 247.268 241.24 250.911 255.846M87.2711 257.876C96.3719 235.998 98.3378 222.909 97.8286 198.592M87.2711 257.876C98.3173 241.667 107.746 229.182 110.416 199.404H127.877C128.933 201.435 129.556 201.954 130.719 202.247L205.433 203.059L208.682 198.592H227.766C232.003 223.071 236.778 235.066 250.911 255.846M250.911 255.846C240.406 236.669 241.978 224.986 242.384 202.247" stroke="white" stroke-width="3"/>
<path d="M80.3652 263.155C64.9383 269.652 54.7805 264.78 47.8808 245.695C40.9811 226.61 40.1692 209.15 38.5415 197.374C37.9129 186.702 40.9813 182.35 47.0687 181.132C55.7073 179.317 61.0607 179.172 71.432 180.32C76.7107 181.132 78.7204 187.635 75.8986 192.096C77.2787 198.69 77.9698 202.651 73.8683 205.901C80.3687 209.556 75.8986 220.519 69.8078 220.519C75.2944 226.723 78.2657 231.198 83.2076 237.98C90.1215 247.803 89.7045 257.877 80.3652 263.155Z" fill="#A0CAEF"/>
<path d="M69.8078 220.519C75.2944 226.723 78.2657 231.198 83.2076 237.98C90.1215 247.803 89.7045 257.877 80.3652 263.155C64.9383 269.652 54.7805 264.78 47.8808 245.695C40.9811 226.61 40.1692 209.15 38.5415 197.374C37.9129 186.702 40.9813 182.35 47.0687 181.132C55.7073 179.317 61.0607 179.172 71.432 180.32C76.7107 181.132 78.7204 187.635 75.8986 192.096M69.8078 220.519L60.4685 220.113M69.8078 220.519C75.8986 220.519 80.3687 209.556 73.8683 205.901M73.8683 205.901C65.6557 204.564 62.0492 204.814 54.3777 206.714M73.8683 205.901C77.9698 202.651 77.2787 198.69 75.8986 192.096M75.8986 192.096C65.7487 191.377 60.2874 191.501 51.1292 192.908" stroke="white"/>
<path d="M227.768 158.392V185.192C229.532 185.474 229.916 185.895 230.61 186.816V196.967C230.449 198.107 229.986 198.436 228.58 198.592L207.465 198.186V187.628C207.908 185.667 208.715 185.141 211.119 185.192L211.525 153.52L227.768 158.392Z" fill="#003666"/>
<path d="M227.768 185.192V158.392L211.525 153.52L211.119 185.192M227.768 185.192C229.532 185.474 229.916 185.895 230.61 186.816V196.967C230.449 198.107 229.986 198.436 228.58 198.592L207.465 198.186V187.628C207.908 185.667 208.715 185.141 211.119 185.192M227.768 185.192H211.119" stroke="white" stroke-width="3"/>
<path d="M111.228 158.392V185.192C109.464 185.474 109.08 185.895 108.386 186.816V196.967C108.547 198.107 109.01 198.436 110.416 198.592L131.531 198.186V187.628C131.088 185.667 130.281 185.141 127.877 185.192L127.471 153.52L111.228 158.392Z" fill="#003666"/>
<path d="M111.228 185.192V158.392L127.471 153.52L127.877 185.192M111.228 185.192C109.464 185.474 109.08 185.895 108.386 186.816V196.967C108.547 198.107 109.01 198.436 110.416 198.592L131.531 198.186V187.628C131.088 185.667 130.281 185.141 127.877 185.192M111.228 185.192H127.877" stroke="white" stroke-width="3"/>
<path d="M225.736 183.568H212.742V154.332L225.736 157.987V183.568Z" fill="#1166AE" stroke="white"/>
<path d="M113.258 183.568H126.252V154.332L113.258 157.987V183.568Z" fill="#1166AE" stroke="white"/>
<path d="M88.0837 168.951L76.3081 181.133C64.4676 177.808 57.7155 177.44 45.4479 181.133L42.6055 151.897L25.1452 144.994C23.9275 136.443 22.965 134.112 15.8059 132L2 54.8496H65.3446L80.8724 133.624C72.6536 138.091 73.8718 149.46 84.8353 151.897L88.0837 168.951Z" fill="#1164AC" stroke="white" stroke-width="3"/>
<path d="M16.2119 131.594C21.8184 131.594 26.3633 136.139 26.3633 141.745C26.3633 142.422 26.2954 143.084 26.1689 143.724L26.5879 142.82L43.2363 150.536L44.001 150.891L44.0957 151.729L47.3447 180.559L45.8535 180.727L44.3633 180.895L41.208 152.902L25.5791 145.66C24.0465 149.323 20.4304 151.896 16.2119 151.896C10.6056 151.896 6.06068 147.351 6.06055 141.745C6.06055 136.139 10.6055 131.594 16.2119 131.594Z" fill="#3E80FF"/>
<path d="M48.6963 104.795C54.3027 104.795 58.8477 109.34 58.8477 114.946C58.8476 119.461 55.8996 123.285 51.8242 124.604L59.9248 178.066L56.958 178.516L48.8633 125.093C48.8077 125.094 48.7521 125.098 48.6963 125.098C43.0899 125.098 38.545 120.553 38.5449 114.946C38.5449 109.34 43.0899 104.795 48.6963 104.795Z" fill="#3E80FF"/>
<path d="M85.2412 131.594C90.8477 131.594 95.3926 136.139 95.3926 141.745C95.3924 147.351 90.8476 151.896 85.2412 151.896C82.8756 151.896 80.7005 151.085 78.9746 149.729L67.2793 162.387L68.0615 178.623L66.5635 178.695L65.0645 178.768L64.2529 161.902L64.2227 161.274L64.6494 160.812L76.8311 147.63L77.2949 148.059C75.9159 146.325 75.0899 144.132 75.0898 141.745C75.0898 136.139 79.6348 131.594 85.2412 131.594Z" fill="#3E80FF"/>
<path d="M200.248 147.836C176.12 162.289 162.848 163.032 139.56 147.836C134.374 163.61 144.121 170.169 149.743 172.401C157.414 175.446 167.258 177.622 180.698 175.446C193.325 172.401 205.028 163.61 200.248 147.836Z" fill="#9EC9EF" stroke="white"/>
<path d="M185.951 155.551C205.035 148.648 218.833 131.594 214.366 97.8914C209.9 105.2 207.057 118.194 200.569 116.164C195.688 113.728 192.347 109.989 185.951 107.231C181.289 105.128 179.486 105.184 177.423 107.231C174.59 112.393 172.705 112.908 168.897 112.915C163.899 110.961 162.208 110.343 160.776 107.231H154.279C146.661 108.82 143.256 114.007 137.225 119.006L125.441 102.764C122.192 119.006 125.588 129.542 133.164 141.339C146.555 157.582 165.648 162.896 185.951 155.551Z" fill="#003160"/>
<path d="M160.776 107.231H154.279C146.661 108.82 143.256 114.007 137.225 119.006L125.441 102.764C122.192 119.006 125.588 129.542 133.164 141.339C146.555 157.582 165.648 162.896 185.951 155.551C205.035 148.648 218.833 131.594 214.366 97.8914C209.9 105.2 207.057 118.194 200.569 116.164C195.688 113.728 192.347 109.989 185.951 107.231C181.289 105.128 179.486 105.184 177.423 107.231C174.59 112.393 172.705 112.908 168.897 112.915C163.899 110.961 162.208 110.343 160.776 107.231ZM160.776 107.231L166.858 87.334" stroke="white" stroke-width="2" stroke-linejoin="round"/>
<path d="M183.507 6.53375C209.307 16.485 218.532 27.0145 223.301 57.2906C186.009 45.092 162.39 46.6907 117.32 56.0698C119.351 32.5159 131.938 13.0279 156.302 5.72059C160.768 0.437639 181.477 0.844456 183.507 6.53375Z" fill="#2A80C8"/>
<path d="M183.507 6.53375C209.307 16.485 218.532 27.0145 223.301 57.2906C186.009 45.092 162.39 46.6907 117.32 56.0698C119.351 32.5159 131.938 13.0279 156.302 5.72059M183.507 6.53375L187.162 38.6121M183.507 6.53375C181.477 0.844456 160.768 0.437639 156.302 5.72059M156.302 5.72059L153.053 38.6121" stroke="white" stroke-width="3" stroke-linejoin="round"/>
<path d="M110.416 67.0302C109.639 62.4507 110.136 60.2013 115.289 57.6909C139.802 48.2644 156.284 46.5385 190.003 49.1638C207.46 51.7023 215.422 54.1862 227.766 59.7212C230.608 61.3454 229.796 68.6544 225.736 68.2484C225.736 68.2484 221.269 67.0302 215.99 66.2181C173.957 58.7927 152.362 59.1679 115.289 70.6847C112.671 70.2569 111.645 69.1758 110.416 67.0302Z" fill="white" stroke="white" stroke-linejoin="round"/>
<path d="M127.066 67.8438L117.727 69.874L125.848 88.5526L127.066 67.8438Z" fill="#003261" stroke="white" stroke-linejoin="round"/>
<path d="M211.524 68.248L220.863 70.2783L212.742 88.9569L211.524 68.248Z" fill="#003261" stroke="white" stroke-linejoin="round"/>
<path d="M112.855 92.6142C113.262 95.8622 116.859 106.19 122.599 110.479L123.42 95.4565C119.75 95.5009 117.32 95.4565 116.923 92.6142C116.811 90.371 118.1 90.8554 122.599 90.5846C122.599 86.522 118.987 84.3978 116.111 85.3052C112.409 87.1912 112.855 89.7718 112.855 92.6142Z" stroke="white" stroke-width="3" stroke-linejoin="round"/>
<path d="M226.964 92.8192C226.556 96.0673 222.96 106.395 217.219 110.684L216.398 95.6616C220.068 95.706 222.498 95.6616 222.895 92.8192C223.008 90.5761 221.719 91.0604 217.219 90.7897C217.219 86.7271 220.831 84.6029 223.707 85.5102C227.409 87.3963 226.964 89.9768 226.964 92.8192Z" stroke="white" stroke-width="3" stroke-linejoin="round"/>
<path d="M189.006 118.022C188.262 123.034 185.947 126.836 182.57 129.421C179.03 132.131 174.287 133.529 168.889 133.529C160.109 133.529 152.529 126.601 149.352 118.417C163.627 120.754 173.722 121.396 189.006 118.022Z" fill="white" stroke="white" stroke-linejoin="round"/>
<path d="M205.839 112.888C204.087 116.747 200.558 117.761 198.53 114.919C198.53 114.919 194.062 108.828 179.445 105.579L174.979 108.828C172.081 111.681 170.125 112.386 165.639 110.858L161.171 107.61C151.404 107.972 146.553 110.046 138.432 118.167C132.597 113.554 130.312 108.016 130.312 101.925L131.125 71.0647C149.869 67.0367 156.384 67.1279 168.886 67.0068C186.715 66.7037 195.686 68.225 208.274 71.0644C209.492 76.7492 209.493 92.5856 209.493 92.5856C208.72 104.649 208.274 108.422 205.839 112.888Z" fill="#A0CBEF"/>
<path d="M161.171 107.61C151.404 107.972 146.553 110.046 138.432 118.167C132.597 113.554 130.312 108.016 130.312 101.925L131.125 71.0647C149.869 67.0367 156.384 67.1279 168.886 67.0068C186.715 66.7037 195.686 68.225 208.274 71.0644C209.492 76.7492 209.493 92.5856 209.493 92.5856C208.72 104.649 208.274 108.422 205.839 112.888C204.087 116.747 200.558 117.761 198.53 114.919C198.53 114.919 194.062 108.828 179.445 105.579L174.979 108.828C172.081 111.681 170.125 112.386 165.639 110.858L161.171 107.61ZM161.171 107.61C162.494 100.676 164.407 94.8382 167.67 88.9311" stroke="white" stroke-width="2" stroke-linejoin="round"/>
<path d="M149.804 84.4902C152.495 84.4902 154.677 87.399 154.677 90.9871C154.677 94.5752 152.495 97.484 149.804 97.484C147.113 97.484 144.932 94.5752 144.932 90.9871C144.932 87.399 147.113 84.4902 149.804 84.4902ZM188.38 84.4902C190.846 84.4902 192.846 87.2172 192.846 90.5811C192.846 93.9449 190.846 96.6719 188.38 96.6719C185.913 96.6719 183.913 93.9449 183.913 90.5811C183.913 87.2172 185.913 84.4902 188.38 84.4902Z" fill="#002553"/>
<path d="M181.763 77.4702C179.33 77.878 177.705 75.8477 180.545 74.6278C187.857 72.193 194.76 72.598 200.847 76.6581C202.474 78.2829 201.257 79.9071 198.817 79.5004C196.79 78.689 191.511 76.2526 181.763 77.4702Z" fill="#002553"/>
<path d="M157.37 77.9518C159.776 78.4966 161.513 76.5615 158.748 75.1829C151.585 72.3383 144.67 72.3521 138.362 76.0612C136.647 77.5915 137.77 79.2819 140.229 79.0139C142.298 78.3184 147.706 76.1846 157.37 77.9518Z" fill="#002553"/>
<path d="M608.917 57.4737C607.726 57.6902 604.044 58.4482 600.796 59.0979C591.267 61.0469 585.853 63.8623 575.674 72.3082C571.993 75.2318 567.012 82.8115 563.222 91.1492C560.84 96.2384 560.19 99.3786 559.865 108.149C558.999 126.882 563.114 138.143 574.916 150.163C604.585 180.481 659.268 165.214 667.822 124.175C669.554 116.054 669.338 103.818 667.389 96.3467C662.733 78.8051 648.115 63.9705 630.789 59.4227C624.726 57.7985 612.273 56.7157 608.917 57.4737ZM625.809 84.6523C634.038 87.9007 639.993 97.5378 640.643 108.907C641.726 126.341 632.739 138.901 617.904 140.742C598.197 143.233 584.228 126.774 588.018 105.551C591.267 86.9262 608.05 77.614 625.809 84.6523Z" fill="#3E80FF"/>
<path d="M1071.06 58.9898C1064.67 60.2892 1053.74 65.8115 1048.11 70.5759C1042.69 75.232 1036.19 84.4359 1033.6 91.2577C1027.75 106.201 1030.24 131.105 1038.79 143.341C1042.15 148.105 1053.52 158.392 1057.74 160.449C1070.19 166.513 1090.12 168.354 1104.3 164.672C1112.86 162.507 1123.58 157.201 1129.32 152.328L1133.54 148.647V126.557V104.468H1109.72H1085.9V115.296V126.124H1096.18H1106.47V132.08C1106.47 137.927 1106.47 138.035 1101.92 140.201C1095.1 143.449 1080.81 143.449 1074.31 140.093C1063.7 134.679 1058.07 123.526 1059.04 109.882C1060.23 93.7481 1072.47 81.7289 1087.52 81.7289C1094.02 81.7289 1099.11 84.2194 1103.55 89.4169L1107.44 93.8564L1119.9 90.9328C1126.83 89.4169 1132.46 87.6844 1132.46 87.2513C1132.46 85.0856 1124.23 73.0664 1120.22 69.3848C1114.48 64.1873 1109.39 61.5886 1100.84 59.5312C1093.58 57.7987 1078.53 57.5822 1071.06 58.9898Z" fill="#3E80FF"/>
<path d="M408.055 61.4793C408.055 62.887 408.488 64.4029 409.029 64.9443C409.571 65.594 410.329 67.4348 410.545 69.2756C410.87 71.0081 411.411 73.282 411.736 74.1482C412.061 75.0145 412.603 77.1801 412.927 79.0209C413.685 82.7025 413.902 83.677 414.876 86.0592C415.201 86.9254 419.424 103.276 424.297 122.333C429.17 141.391 433.717 158.824 434.367 160.99L435.666 165.105H450.501H465.336L466.96 161.531C467.934 159.691 469.125 155.901 469.667 153.194C470.208 150.487 471.183 146.588 471.832 144.531C477.571 124.283 481.686 109.015 481.686 107.391C481.686 103.059 483.419 106.091 485.259 113.996C486.45 118.544 487.75 122.767 488.183 123.416C488.616 123.958 490.132 128.614 491.431 133.703C492.731 138.792 494.463 145.073 495.221 147.78C496.087 150.487 497.495 155.468 498.47 158.933L500.202 165.213L514.928 164.888L529.655 164.563L538.209 132.079C542.865 114.212 546.98 98.0784 547.305 96.3459C547.521 94.5051 548.279 92.1229 548.821 90.9318C549.362 89.7408 550.012 87.5751 550.336 86.0592C550.553 84.5432 552.286 78.2629 554.126 71.9826C555.967 65.7023 557.483 60.2882 557.483 59.7468C557.483 59.3137 550.986 58.9888 543.19 58.9888H528.788L521.858 91.7981C518.069 109.773 514.387 125.69 513.846 127.206C512.763 130.021 512.33 128.722 501.068 81.1865C499.228 73.3903 497.17 65.2692 496.521 62.9952L495.221 58.9888H483.202H471.291L467.718 73.282C465.769 81.1865 463.82 88.6579 463.278 89.849C462.737 91.0401 462.087 93.4223 461.762 95.2631C461.113 99.1612 454.832 124.932 453.966 127.206C453.425 128.614 448.985 113.779 447.469 105.008C447.036 103.168 446.386 100.894 445.845 99.9192C445.303 98.9447 444.87 96.6708 444.87 95.0465C444.87 93.314 444.437 91.4733 443.896 90.8236C443.354 90.2822 442.705 88.3331 442.38 86.6006C442.163 84.7598 441.73 82.5942 441.297 81.7279C440.972 80.8617 439.565 75.3393 438.265 69.4921L435.775 58.9888H421.915C408.163 58.9888 408.055 58.9888 408.055 61.4793Z" fill="#3E80FF"/>
<path d="M680.924 111.937V165.104H695H709.077V146.154C709.077 121.141 709.185 121.141 725.319 145.721C732.033 155.9 738.096 164.454 738.854 164.67C739.504 164.995 746.975 164.995 755.421 164.887L770.689 164.562L756.721 145.613C749.033 135.218 742.644 126.339 742.644 126.014C742.644 125.689 744.702 124.715 747.3 123.848C753.797 121.683 760.511 114.644 762.568 107.606C764.734 100.46 764.734 89.1983 762.676 82.16C760.619 75.3382 753.364 67.0006 745.784 62.7776L739.937 59.5291L710.485 59.2043L680.924 58.8795V111.937ZM729.001 83.2428C733.982 85.3001 736.147 88.7651 736.147 94.9372C736.147 104.358 729.65 108.689 715.357 108.797H709.077V95.262V81.7268H717.198C721.746 81.7268 726.943 82.3765 729.001 83.2428Z" fill="#3E80FF"/>
<path d="M778.918 60.2882C778.593 61.0462 778.485 84.8681 778.593 113.13L778.918 164.563L792.67 164.888L806.53 165.213L806.747 144.423C806.963 131.754 807.504 123.525 808.154 123.308C808.804 123.091 816.059 132.295 824.505 143.773L839.772 164.563L857.314 164.78C866.843 164.888 874.747 164.671 874.747 164.347C874.747 164.022 871.174 159.366 866.843 153.843C862.511 148.429 855.581 139.55 851.467 134.244C847.244 128.83 841.83 122.009 839.447 118.868C836.957 115.837 834.575 112.263 834.142 111.072C833.275 108.365 832.626 109.556 859.913 71.9826L869.333 58.8806L852.874 59.2054L836.307 59.5302L823.097 79.0209C815.842 89.7408 809.887 99.1612 809.887 99.9192C809.778 100.785 809.129 101.219 808.479 101.002C807.396 100.569 806.963 95.1548 806.747 79.7789L806.53 58.9888H792.886C783.141 58.9888 779.243 59.3137 778.918 60.2882Z" fill="#3E80FF"/>
<path d="M882.326 112.046V165.104H896.403H910.479V112.046V58.9877H896.403H882.326V112.046Z" fill="#3E80FF"/>
<path d="M927.805 112.046V165.104H940.907H954.117L953.359 133.161C952.926 115.619 952.818 101.217 953.034 101.217C953.359 101.217 954.983 103.491 956.608 106.307C958.34 109.23 960.289 112.479 961.047 113.67C961.805 114.861 962.78 116.593 963.213 117.46C963.971 119.084 982.054 148.97 984.111 152.11C984.761 152.976 986.71 156.333 988.551 159.365L991.907 165.104H1005.88H1019.84V112.046V58.9877H1006.53H993.207L993.64 87.3575C993.856 103.058 993.965 117.027 993.748 118.434C993.423 120.6 991.582 118.218 984.761 106.523C969.71 80.8606 965.378 73.714 960.614 66.2426L955.958 58.9877H941.881H927.805V112.046Z" fill="#3E80FF"/>
<path d="M726.402 188.277C726.077 188.602 724.237 189.143 722.288 189.468C701.173 193.149 684.064 210.258 679.841 232.022C677.134 245.449 680.274 263.424 686.988 273.927C699.549 293.418 726.944 303.596 749.141 296.991C753.798 295.692 764.409 290.711 766.033 289.087C766.683 288.545 768.849 286.813 770.906 285.405C778.811 279.991 787.148 265.373 789.314 253.354C793.537 229.099 781.626 204.627 760.836 194.557C754.664 191.525 751.74 190.551 745.352 189.251C741.237 188.385 726.944 187.627 726.402 188.277ZM745.676 214.806C749.791 216.971 756.18 223.252 758.562 227.475C759.212 228.774 760.403 232.78 761.052 236.462C763.868 251.838 756.829 266.456 744.052 271.762C739.288 273.819 728.568 273.819 723.912 271.87C713.842 267.647 706.695 255.411 707.02 243.175C707.67 224.768 718.606 212.748 734.74 212.748C739.396 212.748 742.969 213.398 745.676 214.806Z" fill="#3E80FF"/>
<path d="M501.178 243.501V297.209H515.254H529.331V279.884V262.559H542.325C558.892 262.559 566.905 260.177 574.051 253.355C581.198 246.317 583.796 240.145 584.338 228.342C584.988 215.348 583.038 209.176 576.108 202.138C573.293 199.323 568.096 195.641 564.522 193.8L558.025 190.66L529.656 190.227L501.178 189.794V243.501ZM546.548 212.316C548.388 212.749 551.42 214.374 553.153 215.998C556.185 218.813 556.401 219.68 556.401 226.285C556.401 232.998 556.185 233.756 553.045 236.68C549.038 240.361 543.949 241.985 535.611 241.985H529.331V226.826V211.667H536.261C540.051 211.667 544.707 211.992 546.548 212.316Z" fill="#3E80FF"/>
<path d="M597.547 243.61V297.209H632.738H667.93V285.298V273.387H646.815H625.592L625.917 263.858L626.241 254.438H644.866H663.599V243.285V232.24H644.649H625.7V222.495V212.749H646.815H667.93V201.38V190.01H632.738H597.547V243.61Z" fill="#3E80FF"/>
<path d="M803.283 242.417C803.283 271.328 803.283 295.367 803.283 295.8C803.283 296.341 809.455 296.666 817.143 296.666H830.895L831.22 279.774L831.436 262.774L846.921 262.341C859.914 262.016 863.163 261.583 867.711 259.525C874.532 256.385 881.571 249.564 883.953 243.716C884.927 241.334 886.227 238.411 886.768 237.436C888.068 234.946 888.068 217.621 886.768 215.13C886.227 214.156 885.144 211.882 884.386 210.257C881.679 204.41 875.723 198.888 868.035 194.773L860.131 190.659L831.761 190.225L803.283 189.792V242.417ZM849.952 212.64C851.468 212.964 854.067 214.372 855.8 215.78C858.615 217.945 859.048 219.137 859.373 225.309C859.806 232.13 859.806 232.239 855.583 236.462C852.118 240.035 850.386 240.793 845.513 241.442C837.5 242.417 830.895 241.767 831.003 240.035C831.112 239.385 831.22 232.672 831.328 225.2L831.436 211.665L839.341 211.773C843.564 211.882 848.328 212.207 849.952 212.64Z" fill="#3E80FF"/>
<path d="M900.518 243.285L900.843 296.668L935.493 296.992L970.035 297.209V284.757V272.304H948.92H927.805V231.157V190.01H913.945H900.193L900.518 243.285Z" fill="#3E80FF"/>
<path d="M983.029 243.61V297.209H1018.22H1053.41V285.298V273.387H1031.76H1009.99L1010.32 264.075L1010.64 254.763L1029.59 254.546L1048.54 254.438L1048.86 243.285L1049.19 232.24H1029.59H1010.1V222.495V212.749H1031.11H1052.11L1052 201.597L1051.79 190.552L1017.46 190.227L983.029 190.01V243.61Z" fill="#3E80FF"/>
<circle cx="302.887" cy="137.683" r="39.5116" stroke="#072D5E" stroke-width="3"/>
<path d="M334.965 137.683C334.965 119.967 320.603 105.605 302.887 105.605C285.17 105.605 270.808 119.967 270.808 137.683C270.808 155.4 285.17 169.762 302.887 169.762V174.634C282.479 174.634 265.936 158.091 265.936 137.683C265.936 117.276 282.479 100.732 302.887 100.732C323.294 100.732 339.838 117.276 339.838 137.683C339.838 158.091 323.294 174.634 302.887 174.634V169.762C320.603 169.762 334.965 155.4 334.965 137.683Z" fill="#5098D3"/>
<path d="M303.292 112.479C316.96 112.479 328.092 123.735 328.092 137.685C328.092 151.634 316.96 162.89 303.292 162.89C289.624 162.89 278.492 151.634 278.492 137.685C278.492 123.735 289.624 112.479 303.292 112.479Z" fill="#072D5E" stroke="#072D5E" stroke-width="4"/>
<path d="M318.537 131.394C319.008 126.889 315.544 124.623 310.879 123.21L312.116 117.081L308.434 116.314L307.23 122.281C306.263 122.079 305.271 121.893 304.284 121.707L305.497 115.701L301.818 114.934L300.581 121.06C299.78 120.91 298.995 120.762 298.232 120.604L298.235 120.584L293.159 119.524L292.356 123.508C292.356 123.508 295.085 124.023 295.029 124.064C296.52 124.375 296.829 125.354 296.816 126.14L295.407 133.122C295.51 133.144 295.644 133.177 295.791 133.229L295.403 133.149L293.427 142.929C293.266 143.391 292.837 144.092 291.795 143.877C291.834 143.929 289.12 143.318 289.12 143.318L287.49 147.621L292.28 148.62C293.171 148.807 294.045 149.005 294.904 149.191L293.655 155.39L297.331 156.158L298.57 150.025C299.574 150.257 300.549 150.469 301.503 150.667L300.269 156.771L303.95 157.538L305.2 151.351C311.46 152.282 316.11 151.605 317.835 145.829C319.226 141.177 317.453 138.602 314.113 137.013C316.469 136.355 318.196 134.693 318.537 131.394ZM310.712 143.574C309.778 148.207 302.06 146.049 299.564 145.53L301.223 137.318C303.718 137.839 311.684 138.743 310.712 143.574ZM311.337 131.63C310.486 135.844 304.059 133.992 301.98 133.558L303.484 126.11C305.563 126.543 312.225 127.235 311.337 131.63Z" fill="#B2D2F1"/>
<path d="M291.517 163.266C286.675 165.388 285.089 167.064 283.396 170.575C278.93 172.605 275.35 177.523 274.463 182.756C271.215 184.38 269.046 187.477 270.403 193.72C263.835 199.382 264.096 203.92 270.403 211.586C262.281 218.895 250.506 229.047 248.882 240.822C248.651 253.031 251.104 258.416 261.469 265.998C272.433 271.682 291.923 265.185 298.42 246.913C304.105 227.422 305.653 216.681 313.038 198.998C314.542 192.486 314.557 188.578 313.038 181.132C307.921 172.824 303.766 168.61 291.517 163.266Z" fill="#A0CAEF"/>
<path d="M283.396 170.575C285.089 167.064 286.675 165.388 291.517 163.266C303.766 168.61 307.921 172.824 313.038 181.132C314.557 188.578 314.542 192.486 313.038 198.998C305.653 216.681 304.105 227.422 298.42 246.913C291.923 265.185 272.433 271.682 261.469 265.998C251.104 258.416 248.651 253.031 248.882 240.822C250.506 229.047 262.281 218.895 270.403 211.586M283.396 170.575C278.93 172.605 275.35 177.523 274.463 182.756M283.396 170.575C291.261 174.468 296.149 177.067 302.887 182.756M270.403 211.586L283.396 222.144M270.403 211.586C264.096 203.92 263.835 199.382 270.403 193.72M270.403 193.72L287.051 205.901M270.403 193.72C269.046 187.477 271.215 184.38 274.463 182.756M274.463 182.756C283.765 184.298 288.02 187.952 295.578 194.532" stroke="white" stroke-width="3"/>
</svg>
