<svg width="1134" height="299" viewBox="0 0 1134 299" fill="none" xmlns="http://www.w3.org/2000/svg">
<path d="M290.705 292.391H191.628L174.167 241.634H164.828L148.18 291.579L48.6964 291.173L20.6785 151.896L26.3633 144.993L42.1995 153.52L45.854 180.726C35.7026 183.569 36.5272 196.12 41.7934 216.865C46.5089 246.973 50.3206 261.937 65.7507 267.216C76.3081 268.434 89.3019 263.155 97.0169 244.883C104.253 230.265 108.392 218.714 110.417 199.405H127.877C128.849 201.407 129.57 202 131.126 202.247H205.84C207.243 201.545 207.87 201.029 208.276 198.999H227.767C233.451 234.325 239.948 235.138 252.942 258.689C264.312 269.652 283.396 273.307 299.639 244.883L290.705 292.391Z" fill="#1164AC"/>
<path d="M42.911 152.199L43.5838 152.563L47.5145 181.819L46.2586 182.171C44.0282 182.796 42.4924 183.916 41.4442 185.487C40.3725 187.094 39.731 189.292 39.5389 192.182C39.1762 197.64 40.4376 205.112 42.7674 214.576L43.2469 216.496L43.2645 216.564L43.2752 216.633C45.6378 231.718 47.7483 242.8 51.1346 250.765C54.4504 258.564 58.938 263.253 66.0838 265.742C75.8817 266.805 88.1902 261.93 95.6346 244.299L95.6522 244.258L95.6727 244.218C102.845 229.728 106.922 218.349 108.925 199.248L109.066 197.904H128.816L129.226 198.749C129.69 199.704 130.006 200.126 130.264 200.35C130.463 200.521 130.712 200.651 131.258 200.747H205.47C205.927 200.502 206.129 200.345 206.268 200.174C206.429 199.977 206.623 199.616 206.805 198.704L207.047 197.498H229.045L229.248 198.76C232.076 216.333 235.085 225.195 238.942 232.564C240.885 236.275 243.054 239.631 245.589 243.585C248.088 247.484 250.913 251.926 254.139 257.755C259.586 262.942 266.688 266.238 274.234 265.073C281.837 263.9 290.341 258.13 298.336 244.139L301.113 245.16L291.949 293.892H190.557L173.097 243.135H165.909L149.26 293.084L47.4666 292.668L19.0672 151.493L25.9891 143.088L42.911 152.199ZM22.2889 152.299L49.9246 289.678L147.099 290.074L163.747 240.135H175.238L192.698 290.892H289.461L296.732 252.217C289.638 262.121 282.057 266.902 274.692 268.038C265.864 269.401 257.804 265.46 251.901 259.769L251.738 259.611L251.629 259.413C248.405 253.571 245.585 249.138 243.063 245.203C240.548 241.278 238.301 237.806 236.285 233.955C232.322 226.384 229.292 217.431 226.493 200.498H209.432C209.231 201.09 208.967 201.611 208.596 202.068C207.996 202.804 207.235 203.226 206.511 203.588L206.194 203.747H131.008L130.89 203.729C129.953 203.58 129.083 203.295 128.301 202.618C127.774 202.163 127.354 201.583 126.97 200.904H111.762C109.666 219.604 105.5 231.119 98.3826 245.503C90.4356 264.29 76.8627 270.008 65.5789 268.706L65.4178 268.688L65.2655 268.635C57.0702 265.831 51.9767 260.413 48.3739 251.939C44.8232 243.587 42.67 232.154 40.3211 217.163C37.7003 206.828 36.1247 198.318 36.5457 191.983C36.7581 188.787 37.484 186.017 38.9481 183.822C40.2098 181.931 41.9623 180.557 44.201 179.696L40.8143 154.478L26.7371 146.898L22.2889 152.299Z" fill="white"/>
<path d="M275.681 53.569L252.13 169.295L269.996 188.785C270.516 184.477 271.479 182.359 275.275 179.446C275.887 175.213 277.081 171.944 281.366 168.295C273.494 159.086 270.072 154.467 269.342 142.089C268.143 125.476 268.744 119.899 286.239 106.514C298.706 100.352 307.5 103.193 326.844 109.514L337.402 53.569H275.681Z" fill="#1165AC"/>
<path d="M337.402 52.069C337.848 52.069 338.272 52.2682 338.557 52.612C338.842 52.9557 338.958 53.4087 338.875 53.8474L328.319 109.792C328.238 110.216 327.979 110.585 327.608 110.804C327.236 111.024 326.788 111.073 326.378 110.939C316.654 107.762 309.78 105.531 303.786 104.822C297.947 104.132 292.953 104.893 287.034 107.794C278.391 114.418 274.175 118.939 272.16 123.677C270.262 128.141 270.231 132.981 270.732 140.451L270.838 141.981L270.839 142.001C271.196 148.052 272.203 152.089 274.017 155.709C275.854 159.374 278.557 162.7 282.506 167.32C282.765 167.623 282.893 168.017 282.861 168.414C282.83 168.811 282.641 169.179 282.338 169.437C280.317 171.158 279.086 172.736 278.281 174.328C277.474 175.927 277.054 177.625 276.76 179.661C276.704 180.048 276.499 180.398 276.189 180.636C274.376 182.027 273.365 183.134 272.724 184.31C272.079 185.494 271.737 186.877 271.485 188.965C271.415 189.546 271.013 190.034 270.455 190.214C269.898 190.393 269.287 190.231 268.891 189.799L251.025 170.308C250.7 169.954 250.565 169.466 250.66 168.996L274.211 53.2702C274.353 52.5715 274.968 52.0692 275.681 52.069H337.402ZM253.752 168.844L269.055 185.54C269.303 184.594 269.632 183.716 270.09 182.875C270.933 181.327 272.156 180.017 273.883 178.635C274.202 176.661 274.683 174.798 275.604 172.975C276.444 171.312 277.62 169.739 279.279 168.156C275.827 164.086 273.193 160.76 271.335 157.052C269.29 152.971 268.22 148.513 267.846 142.197C267.25 133.937 267.05 128.03 269.4 122.504C271.75 116.975 276.554 112.035 285.327 105.323L285.446 105.24C285.488 105.214 285.531 105.19 285.574 105.169C292.065 101.961 297.672 101.079 304.139 101.843C310.132 102.552 316.872 104.682 325.687 107.558L335.592 55.069H276.907L253.752 168.844Z" fill="white"/>
<path d="M208.682 224.923C210.063 224.923 211.182 226.042 211.182 227.423V240.417H206.182V229.923H133.22V240.417H128.22V227.423C128.22 226.042 129.339 224.923 130.72 224.923H208.682Z" fill="white"/>
<path d="M201.779 151.084C238.113 159.063 252.049 166.855 269.59 192.908C262.281 202.653 266.227 202.959 270.403 212.398L257.409 223.362C248.007 234.596 247.269 241.241 250.912 255.846C236.779 235.066 232.003 223.071 227.767 198.593H208.682L205.434 203.059L130.72 202.247C129.556 201.954 128.933 201.435 127.877 199.405H110.417C107.746 229.183 98.3177 241.667 87.2716 257.877C90.9182 240.765 83.4414 234.025 70.2173 220.926C75.063 219.448 78.3384 216.459 78.7444 211.18C86.2132 202.259 86.9054 198.528 85.2413 192.908C83.3586 187.622 81.5868 184.787 76.7142 181.538C97.6526 160.317 111.229 155.145 137.216 150.678C135.186 170.981 148.586 175.041 168.889 176.26C191.084 175.699 203.878 168.764 201.779 151.084Z" fill="#003161"/>
<path d="M138.708 150.828C138.217 155.744 138.674 159.549 139.848 162.517C141.013 165.462 142.921 167.675 145.501 169.372C150.754 172.827 158.781 174.146 168.917 174.757C179.898 174.473 188.253 172.61 193.582 168.865C196.221 167.01 198.119 164.693 199.252 161.843C200.391 158.981 200.792 155.495 200.29 151.261L200.042 149.166L202.101 149.62C220.302 153.616 233.071 157.6 243.51 163.936C253.983 170.292 261.998 178.945 270.834 192.07L271.43 192.954L270.791 193.808C267.153 198.658 266.727 200.664 267.148 202.417C267.389 203.421 267.936 204.471 268.795 206.009C269.631 207.505 270.697 209.356 271.774 211.791L272.229 212.82L258.479 224.42C253.905 229.903 251.576 234.113 250.744 238.613C249.901 243.171 250.556 248.221 252.368 255.484L249.671 256.69C242.575 246.255 237.783 237.962 234.237 229.167C230.812 220.672 228.574 211.766 226.508 200.092H209.446L206.192 204.568L130.526 203.745L130.353 203.702C129.596 203.511 128.887 203.207 128.213 202.554C127.768 202.122 127.377 201.573 126.989 200.905H111.783C110.374 215.231 107.373 225.588 103.348 234.355C99.212 243.365 94.0078 250.655 88.5112 258.721L85.8042 257.564C87.5652 249.301 86.6211 243.721 83.7632 238.631C80.8251 233.398 75.8431 228.61 69.1616 221.992L67.3774 220.224L69.7798 219.491C72.0318 218.804 73.8014 217.801 75.0454 216.458C76.271 215.136 77.0692 213.397 77.2485 211.065L77.2856 210.586L77.5942 210.217C81.3059 205.784 83.1868 202.804 83.9917 200.34C84.7596 197.99 84.5857 195.991 83.814 193.371C82.8963 190.8 82.0423 188.936 80.8843 187.339C79.7294 185.747 78.2156 184.342 75.8823 182.786L74.3696 181.779L75.646 180.485C86.1867 169.802 94.9515 163.079 104.416 158.476C113.869 153.878 123.928 151.44 136.962 149.2L138.905 148.866L138.708 150.828ZM135.572 152.49C123.557 154.625 114.346 156.983 105.728 161.174C97.0376 165.401 88.8658 171.535 79.0308 181.337C80.8164 182.674 82.1869 184.025 83.313 185.578C84.5474 187.281 85.4455 189.167 86.2935 191.417L86.6548 192.405L86.6685 192.443L86.6792 192.482C87.562 195.464 87.8688 198.133 86.8433 201.272C85.8776 204.227 83.7673 207.474 80.1929 211.782C79.8935 214.507 78.8747 216.741 77.2456 218.498C76.0602 219.777 74.5919 220.759 72.937 221.506C78.7243 227.229 83.4589 231.963 86.3784 237.162C88.2005 240.408 89.3076 243.812 89.6079 247.718C95.4415 231.345 96.7561 218.994 96.3296 198.624L99.3286 198.561C99.7403 218.222 98.5349 230.67 93.2896 246.247C95.9798 242.064 98.4519 237.829 100.622 233.103C104.614 224.407 107.601 214.01 108.922 199.271L109.045 197.905H128.788L129.208 198.712C129.72 199.697 130.05 200.156 130.302 200.401C130.47 200.564 130.633 200.659 130.939 200.749L204.675 201.55L207.918 197.092H229.03L229.245 198.337C231.354 210.526 233.585 219.528 237.019 228.045C238.632 232.045 240.519 235.951 242.792 240.041C239.748 228.502 240.606 217.881 240.885 202.22L243.884 202.274C243.557 220.629 242.505 231.503 247.448 244.814C247.297 242.439 247.395 240.223 247.793 238.067C248.766 232.81 251.484 228.105 256.258 222.4L256.342 222.299L268.563 211.987C267.716 210.193 266.896 208.759 266.177 207.473C265.351 205.994 264.584 204.589 264.231 203.119C263.509 200.115 264.575 197.268 267.753 192.872C259.289 180.444 251.691 172.411 241.954 166.5C232.327 160.657 220.503 156.826 203.451 152.995C203.664 156.736 203.194 160.052 202.041 162.953C200.672 166.393 198.378 169.16 195.306 171.319C189.224 175.593 180.107 177.477 168.926 177.759L168.863 177.761L168.799 177.757C158.662 177.149 149.858 175.828 143.853 171.879C140.8 169.871 138.47 167.186 137.059 163.621C135.837 160.533 135.333 156.853 135.572 152.49Z" fill="white"/>
<path d="M80.3652 263.155C64.9383 269.652 54.7805 264.779 47.8808 245.695C40.981 226.61 40.1692 209.15 38.5415 197.374C37.9129 186.702 40.9813 182.35 47.0686 181.132C55.7072 179.317 61.0606 179.172 71.432 180.32C76.7107 181.132 78.7204 187.634 75.8986 192.095C77.2786 198.689 77.9698 202.651 73.8683 205.901C80.3687 209.556 75.8986 220.519 69.8077 220.519C75.2944 226.723 78.2657 231.197 83.2076 237.98C90.1214 247.802 89.7044 257.876 80.3652 263.155Z" fill="#A0CAEF"/>
<path d="M46.9707 180.641C55.1246 178.929 60.3872 178.695 69.5908 179.622L71.4873 179.823L71.497 179.824L71.5078 179.826C74.3577 180.264 76.3131 182.244 77.1738 184.673C78.0107 187.035 77.8276 189.854 76.4277 192.188C77.094 195.379 77.6078 198.03 77.4375 200.29C77.2752 202.443 76.4924 204.24 74.7109 205.841C77.7047 207.924 78.0771 211.612 77.0341 214.739C76.0475 217.698 73.7143 220.398 70.8261 220.925C75.2644 226.016 78.0726 230.014 81.8447 235.246L83.6113 237.685L83.6162 237.692C87.1171 242.666 88.8005 247.757 88.3789 252.317C87.955 256.901 85.41 260.878 80.6113 263.591L80.5859 263.604L80.5595 263.616C72.7762 266.894 66.2094 267.35 60.6933 264.461C55.1977 261.583 50.8754 255.45 47.4101 245.865C40.4868 226.715 39.6667 209.169 38.0459 197.442L38.0439 197.424L38.042 197.403C37.7256 192.031 38.3318 188.16 39.8506 185.463C41.3871 182.734 43.8187 181.272 46.9707 180.641ZM71.3672 180.815C61.0437 179.673 55.7454 179.82 47.1718 181.621L47.167 181.622C44.2317 182.209 42.085 183.534 40.7226 185.953C39.344 188.401 38.73 192.038 39.04 197.329C40.6724 209.154 41.4789 226.518 48.3506 245.525C51.785 255.025 55.9923 260.87 61.1572 263.575C66.2954 266.266 72.5118 265.913 80.1425 262.705C84.6672 260.139 86.9935 256.446 87.3838 252.225C87.7767 247.976 86.2132 243.121 82.8037 238.274L81.0312 235.828C77.1126 230.393 74.2718 226.339 69.5722 221.009L60.4472 220.613L60.4902 219.614L69.8203 220.018C72.5544 220.011 75.0541 217.514 76.0849 214.423C77.1005 211.377 76.5923 208.058 73.6953 206.38C69.6527 205.724 66.7593 205.463 63.9433 205.593C61.1053 205.723 58.323 206.252 54.498 207.199L54.2578 206.228C58.1041 205.276 60.9613 204.73 63.8974 204.595C66.7802 204.462 69.7175 204.727 73.7226 205.372C75.5405 203.872 76.2879 202.238 76.4404 200.215C76.5954 198.159 76.1386 195.706 75.4853 192.568C65.6071 191.881 60.206 192.02 51.205 193.402L51.1289 192.908L51.0537 192.413C60.1608 191.014 65.6414 190.878 75.624 191.575C76.8102 189.528 76.9623 187.07 76.2314 185.007C75.4742 182.87 73.79 181.192 71.3672 180.815Z" fill="white"/>
<path d="M227.767 158.393V185.193C229.531 185.475 229.915 185.896 230.609 186.817V196.968C230.448 198.108 229.985 198.437 228.579 198.593L207.464 198.187V187.629C207.907 185.668 208.714 185.142 211.118 185.193L211.525 153.52L227.767 158.393Z" fill="#003666"/>
<path d="M229.267 157.277V183.992C229.68 184.12 230.052 184.282 230.393 184.498C231.053 184.916 231.466 185.461 231.808 185.915L232.109 186.315V197.073L232.095 197.178C231.993 197.901 231.747 198.734 230.986 199.33C230.315 199.856 229.466 200.004 228.744 200.084L228.648 200.094L228.55 200.093L205.964 199.658V187.462L206.001 187.299C206.25 186.197 206.68 185.101 207.726 184.406C208.294 184.029 208.946 183.841 209.636 183.754L210.05 151.512L229.267 157.277ZM211.087 186.692C209.917 186.668 209.528 186.811 209.385 186.906C209.319 186.95 209.146 187.085 208.964 187.812V196.714L228.493 197.09C228.76 197.058 228.935 197.025 229.05 196.992C229.062 196.989 229.072 196.984 229.082 196.98C229.091 196.946 229.099 196.898 229.109 196.836V187.338C228.966 187.167 228.881 187.092 228.786 187.032C228.644 186.942 228.362 186.816 227.636 186.692H211.087ZM212.638 183.692H226.267V159.509L212.998 155.528L212.638 183.692Z" fill="white"/>
<path d="M111.229 158.393V185.193C109.465 185.475 109.08 185.896 108.386 186.817V196.968C108.547 198.108 109.01 198.437 110.417 198.593L131.532 198.187V187.629C131.089 185.668 130.281 185.142 127.877 185.193L127.471 153.52L111.229 158.393Z" fill="#003666"/>
<path d="M109.729 157.277V183.992C109.316 184.12 108.944 184.282 108.603 184.498C107.943 184.916 107.53 185.461 107.188 185.915L106.886 186.315V197.073L106.901 197.178C107.003 197.901 107.249 198.734 108.009 199.33C108.681 199.856 109.529 200.004 110.251 200.084L110.348 200.094L110.446 200.093L133.032 199.658V187.462L132.995 187.299C132.746 186.197 132.316 185.101 131.27 184.406C130.702 184.029 130.05 183.841 129.36 183.754L128.946 151.512L109.729 157.277ZM127.909 186.692C129.078 186.668 129.467 186.811 129.611 186.906C129.677 186.95 129.85 187.085 130.032 187.812V196.714L110.502 197.09C110.235 197.058 110.061 197.025 109.946 196.992C109.934 196.989 109.923 196.984 109.913 196.98C109.905 196.946 109.897 196.898 109.886 196.836V187.338C110.03 187.167 110.115 187.092 110.209 187.032C110.352 186.942 110.633 186.816 111.36 186.692H127.909ZM126.358 183.692H112.729V159.509L125.997 155.528L126.358 183.692Z" fill="white"/>
<path d="M225.736 183.569H212.743V154.333L225.736 157.987V183.569Z" fill="#1166AE"/>
<path d="M226.237 157.608V184.069H212.243V153.672L226.237 157.608ZM213.243 183.069H225.237V158.366L213.243 154.993V183.069Z" fill="white"/>
<path d="M113.259 183.569H126.253V154.333L113.259 157.987V183.569Z" fill="#1166AE"/>
<path d="M112.759 157.608V184.069H126.753V153.672L112.759 157.608ZM125.753 183.069H113.759V158.366L125.753 154.993V183.069Z" fill="white"/>
<path d="M88.0837 168.951L76.3081 181.132C64.4676 177.807 57.7155 177.439 45.4479 181.132L42.6055 151.896L25.1452 144.993C23.9275 136.443 22.965 134.111 15.8059 132L2 54.8491H65.3446L80.8724 133.624C72.6536 138.09 73.8718 149.46 84.8353 151.896L88.0837 168.951Z" fill="#1164AC"/>
<path d="M66.5781 53.3491L82.5576 134.415L81.5889 134.942C78.0111 136.886 76.6075 140.23 77.1377 143.263C77.6485 146.186 80.0217 149.134 84.7002 150.323L85.1611 150.432L86.124 150.646L89.7031 169.434L76.7646 182.819L75.9023 182.577C70.0329 180.928 65.5317 180.045 61.0234 180C56.5235 179.956 51.9263 180.749 45.8799 182.569L44.1318 183.095L41.2002 152.954L23.7832 146.068L23.6602 145.205C23.0416 140.861 22.522 138.5 21.459 136.918C20.4734 135.452 18.8736 134.468 15.3818 133.438L14.4922 133.176L0.208008 53.3491H66.5781ZM17.1211 130.836C20.3006 131.858 22.4908 133.077 23.9482 135.245C25.3549 137.337 25.9441 140.149 26.502 143.916L44.0098 150.838L46.7646 179.188C52.1759 177.667 56.6181 176.957 61.0527 177C65.7087 177.046 70.2743 177.921 75.8477 179.449L86.4639 168.466L83.54 153.116C78.1431 151.602 74.9081 147.93 74.1826 143.78C73.4725 139.717 75.2293 135.485 79.1963 132.881L64.1113 56.3491H3.79199L17.1211 130.836Z" fill="white"/>
<path d="M17.2119 131.594C22.8184 131.594 27.3633 136.138 27.3633 141.745C27.3633 142.422 27.2954 143.083 27.169 143.723L27.5879 142.82L44.2363 150.536L45.001 150.89L45.0957 151.728L48.3447 180.558L46.8535 180.726L45.3633 180.894L42.208 152.902L26.5791 145.66C25.0465 149.322 21.4304 151.896 17.2119 151.896C11.6056 151.896 7.06069 147.351 7.06055 141.745C7.06055 136.138 11.6055 131.594 17.2119 131.594Z" fill="#3E80FF"/>
<path d="M48.6963 104.795C54.3028 104.795 58.8477 109.34 58.8477 114.946C58.8477 119.461 55.8997 123.284 51.8243 124.603L59.9249 178.066L56.9581 178.516L48.8633 125.093C48.8078 125.094 48.7521 125.098 48.6963 125.098C43.0899 125.097 38.545 120.553 38.545 114.946C38.545 109.34 43.0899 104.795 48.6963 104.795Z" fill="#3E80FF"/>
<path d="M85.241 131.594C90.8474 131.594 95.3923 136.138 95.3923 141.745C95.3922 147.351 90.8473 151.896 85.241 151.896C82.8754 151.896 80.7003 151.085 78.9743 149.728L67.279 162.386L68.0613 178.623L66.5632 178.695L65.0642 178.767L64.2527 161.902L64.2224 161.274L64.6492 160.812L76.8308 147.63L77.2947 148.058C75.9156 146.325 75.0896 144.132 75.0896 141.745C75.0896 136.138 79.6346 131.594 85.241 131.594Z" fill="#3E80FF"/>
<path d="M200.247 147.836C176.119 162.288 162.847 163.031 139.559 147.836C134.373 163.61 144.12 170.169 149.742 172.401C157.413 175.446 167.257 177.621 180.697 175.446C193.325 172.401 205.028 163.61 200.247 147.836Z" fill="#9EC9EF"/>
<path d="M139.832 147.417C151.443 154.993 160.483 158.545 169.583 158.454C178.691 158.362 187.946 154.621 199.99 147.407L200.539 147.078L200.725 147.69C203.163 155.734 201.401 162.055 197.379 166.74C193.38 171.397 187.188 174.395 180.815 175.932L180.796 175.936L180.777 175.939C167.236 178.131 157.3 175.94 149.558 172.866C146.694 171.729 142.746 169.478 140.177 165.467C137.593 161.431 136.452 155.687 139.084 147.679L139.287 147.061L139.832 147.417ZM199.946 148.595C188.127 155.619 178.83 159.361 169.593 159.454C160.352 159.547 151.256 155.988 139.838 148.611C137.544 156.048 138.685 161.282 141.019 164.927C143.432 168.695 147.168 170.841 149.927 171.936C157.521 174.951 167.267 177.108 180.592 174.956C186.842 173.447 192.808 170.528 196.62 166.089C200.31 161.791 202.018 156.028 199.946 148.595Z" fill="white"/>
<path d="M185.952 155.551C205.036 148.648 218.834 131.593 214.367 97.8909C209.9 105.2 207.058 118.194 200.57 116.163C195.688 113.727 192.348 109.989 185.952 107.23C181.289 105.128 179.487 105.184 177.424 107.23C174.59 112.392 172.706 112.908 168.898 112.915C163.9 110.96 162.208 110.343 160.777 107.23H154.28C146.662 108.819 143.257 114.006 137.225 119.006L125.442 102.764C122.192 119.006 125.589 129.541 133.165 141.339C146.556 157.581 165.648 162.895 185.952 155.551Z" fill="#003160"/>
<path d="M167.815 87.6255L161.848 107.145C162.448 108.347 163.084 109.051 164.041 109.665C165.135 110.369 166.644 110.959 169.08 111.912C170.86 111.899 171.998 111.752 173.014 111.147C174.08 110.512 175.154 109.286 176.547 106.749L176.626 106.628C176.654 106.59 176.685 106.554 176.719 106.52C177.869 105.379 179.073 104.683 180.708 104.674C182.231 104.666 184.017 105.262 186.347 106.312C189.641 107.733 192.143 109.405 194.405 111C196.658 112.59 198.618 114.06 200.938 115.229C202.141 115.583 203.169 115.284 204.192 114.426C205.287 113.508 206.317 111.989 207.343 110.06C208.363 108.144 209.322 105.939 210.327 103.705C211.321 101.493 212.36 99.2573 213.513 97.3696L213.606 97.2426C213.841 96.9667 214.211 96.8359 214.574 96.9126C214.988 97.0002 215.302 97.3394 215.358 97.7592C217.611 114.762 215.273 127.685 209.862 137.262C204.447 146.847 196.015 152.974 186.293 156.491C165.594 163.978 146.055 158.546 132.393 141.975C132.368 141.945 132.345 141.913 132.324 141.879C128.5 135.925 125.693 130.232 124.268 123.939C122.842 117.64 122.814 110.801 124.462 102.568L124.501 102.425C124.616 102.105 124.889 101.861 125.228 101.787C125.616 101.702 126.018 101.855 126.252 102.176L137.401 117.544C138.56 116.544 139.631 115.541 140.677 114.553C141.957 113.345 143.211 112.154 144.519 111.069C147.158 108.881 150.059 107.089 154.076 106.251L154.177 106.236C154.211 106.232 154.246 106.23 154.28 106.23H160.037L165.902 87.0415L167.815 87.6255ZM213.74 101.129C213.203 102.21 212.677 103.355 212.151 104.525C211.164 106.719 210.169 109.008 209.109 110.999C208.056 112.979 206.879 114.784 205.477 115.959C204.023 117.179 202.282 117.747 200.271 117.118C200.22 117.102 200.171 117.082 200.124 117.058C197.597 115.797 195.464 114.194 193.253 112.634C191.025 111.062 188.658 109.486 185.556 108.148C185.551 108.146 185.546 108.144 185.541 108.142C183.216 107.094 181.774 106.669 180.718 106.674C179.803 106.679 179.092 107.013 178.221 107.852C176.812 110.393 175.546 111.966 174.038 112.865C172.486 113.789 170.821 113.911 168.9 113.915C168.775 113.915 168.65 113.892 168.534 113.846C166.08 112.886 164.291 112.203 162.96 111.348C161.716 110.55 160.872 109.607 160.153 108.23H154.393C150.839 108.989 148.251 110.573 145.796 112.609C144.547 113.644 143.342 114.787 142.049 116.007C140.764 117.221 139.399 118.503 137.864 119.776C137.651 119.952 137.374 120.032 137.1 119.998C136.826 119.963 136.578 119.817 136.416 119.593L126.004 105.242C124.841 112.229 124.997 118.096 126.219 123.497C127.571 129.465 130.239 134.924 133.975 140.749C147.093 156.626 165.722 161.805 185.612 154.611C194.973 151.225 202.982 145.372 208.12 136.279C212.938 127.751 215.284 116.279 213.74 101.129Z" fill="white"/>
<path d="M183.507 6.53387C209.306 16.4851 218.531 27.0146 223.3 57.2906C186.008 45.0921 162.39 46.6907 117.32 56.0698C119.35 32.5159 131.938 13.028 156.301 5.72071C160.768 0.437773 181.476 0.844589 183.507 6.53387Z" fill="#2A80C8"/>
<path d="M161.805 1.35936C164.555 0.708261 167.758 0.433813 170.856 0.512684C173.947 0.591415 177.02 1.02422 179.496 1.83886C180.734 2.24607 181.876 2.76602 182.805 3.42479C183.531 3.93952 184.177 4.57615 184.611 5.3535C197.297 10.2974 206.179 15.4995 212.461 23.3535C218.831 31.3169 222.382 41.8259 224.782 57.0576C224.863 57.5733 224.67 58.0941 224.273 58.4326C223.875 58.7712 223.33 58.8791 222.833 58.7168C204.308 52.657 189.241 50.0422 173.231 50.0889C157.19 50.1356 140.142 52.8524 117.625 57.5381C117.161 57.6347 116.678 57.5061 116.324 57.1914C115.969 56.8768 115.785 56.4134 115.826 55.9414C117.888 32.0191 130.677 12.0156 155.471 4.40722C156.947 2.90621 159.312 1.94963 161.805 1.35936ZM170.78 3.51171C167.888 3.43808 164.949 3.69768 162.496 4.27831C160.249 4.81037 158.63 5.56193 157.742 6.38378L154.545 38.7598L151.56 38.4648L154.583 7.84472C132.989 15.1925 121.448 32.7488 119.015 54.1894C140.597 49.7475 157.35 47.1352 173.222 47.0889C188.923 47.0431 203.705 49.507 221.419 55.1113C219.064 41.4097 215.683 32.1849 210.119 25.2275C204.6 18.3277 196.808 13.4986 185.28 8.84569L188.652 38.4424L185.671 38.7822L182.038 6.90624C181.894 6.60411 181.603 6.24939 181.071 5.87206C180.462 5.44048 179.618 5.0368 178.559 4.68847C176.442 3.99184 173.677 3.58551 170.78 3.51171Z" fill="white"/>
<path d="M110.416 66.0295C109.639 61.45 110.136 59.2006 115.289 56.6902C139.802 47.2637 156.285 45.5377 190.003 48.1631C207.46 50.7015 215.422 53.1855 227.766 58.7205C230.609 60.3447 229.796 67.6537 225.736 67.2476C225.736 67.2476 221.269 66.0295 215.991 65.2174C173.957 57.792 152.362 58.1672 115.289 69.684C112.671 69.2561 111.645 68.1751 110.416 66.0295Z" fill="#A0CBEF" stroke="#E60C0C" stroke-linejoin="round"/>
<path d="M115.11 56.2239C138.943 47.0589 155.23 45.1508 186.926 47.4309L190.042 47.6643L190.075 47.6682C206.481 50.0538 214.543 52.3972 225.696 57.2581L227.971 58.2639L228.014 58.2864C228.876 58.779 229.418 59.6748 229.699 60.6575C229.983 61.6455 230.021 62.777 229.831 63.8343C229.642 64.8883 229.218 65.9113 228.533 66.6536C227.836 67.4103 226.873 67.8641 225.686 67.7454C225.658 67.7426 225.631 67.737 225.605 67.7298H225.602C225.6 67.7292 225.596 67.728 225.592 67.7268C225.584 67.7246 225.571 67.7215 225.555 67.7171C225.522 67.7081 225.472 67.6943 225.407 67.677C225.276 67.6425 225.081 67.5926 224.832 67.5296C224.334 67.4035 223.615 67.2267 222.732 67.0247C220.963 66.6204 218.538 66.1149 215.914 65.7112L215.904 65.7102C194.9 61.9999 179.033 60.2438 163.799 60.847C148.569 61.45 133.947 64.4112 115.437 70.1614C115.363 70.1843 115.285 70.1895 115.208 70.177C113.84 69.9535 112.841 69.5512 112.019 68.8909C111.206 68.2385 110.605 67.364 109.983 66.2776C109.954 66.2267 109.933 66.1714 109.923 66.1136C109.533 63.8159 109.434 61.972 110.175 60.3733C110.92 58.7663 112.461 57.5114 115.07 56.2405C115.083 56.2342 115.096 56.2291 115.11 56.2239ZM189.949 48.6595C156.304 46.0407 139.901 47.764 115.495 57.1458C112.96 58.3827 111.679 59.5064 111.082 60.7942C110.488 62.0761 110.522 63.6239 110.896 65.8587C111.484 66.8761 111.999 67.5924 112.645 68.1106C113.277 68.6184 114.071 68.9625 115.258 69.1692C133.766 63.4266 148.448 60.4541 163.76 59.8479C179.097 59.2407 195.042 61.0093 216.066 64.7229C218.72 65.1313 221.17 65.6422 222.954 66.0501C223.847 66.254 224.574 66.4321 225.078 66.5598C225.331 66.6237 225.528 66.675 225.661 66.7102C225.728 66.7278 225.779 66.742 225.814 66.7513L225.818 66.7522C226.645 66.8257 227.297 66.5192 227.798 65.9759C228.319 65.4114 228.682 64.5826 228.848 63.6575C229.013 62.7353 228.976 61.7595 228.739 60.9329C228.503 60.1099 228.086 59.4879 227.535 59.1653C215.256 53.6607 207.339 51.1891 189.949 48.6595Z" fill="#EFF2F5"/>
<path d="M127.065 67.8428L117.726 69.8731L125.847 88.5517L127.065 67.8428Z" fill="#003261"/>
<path d="M126.959 67.3545C127.112 67.3214 127.271 67.3614 127.39 67.4629C127.509 67.5646 127.574 67.716 127.565 67.8721L126.346 88.5811C126.332 88.8119 126.162 89.0034 125.935 89.044C125.707 89.0844 125.48 88.9632 125.388 88.751L117.267 70.0723C117.207 69.9352 117.212 69.7786 117.28 69.6455C117.349 69.5124 117.473 69.4167 117.619 69.3848L126.959 67.3545ZM118.427 70.2315L125.47 86.4317L126.527 68.4707L118.427 70.2315Z" fill="white"/>
<path d="M211.525 68.2488L220.864 70.2791L212.743 88.9577L211.525 68.2488Z" fill="#003261"/>
<path d="M211.63 67.7606C211.478 67.7275 211.318 67.7675 211.2 67.869C211.081 67.9707 211.016 68.1221 211.025 68.2782L212.244 88.9872C212.257 89.218 212.427 89.4094 212.655 89.45C212.883 89.4905 213.109 89.3693 213.202 89.1571L221.323 70.4784C221.382 70.3413 221.377 70.1847 221.309 70.0516C221.241 69.9185 221.116 69.8227 220.97 69.7909L211.63 67.7606ZM220.163 70.6375L213.12 86.8377L212.063 68.8768L220.163 70.6375Z" fill="white"/>
<path d="M112.854 92.6135C113.261 95.8616 116.858 106.189 122.598 110.479L123.419 95.4559C119.75 95.5003 117.32 95.4559 116.923 92.6135C116.81 90.3703 118.099 90.8547 122.598 90.584C122.598 86.5214 118.986 84.3971 116.11 85.3045C112.408 87.1906 112.854 89.7711 112.854 92.6135Z" fill="#A0CBEF"/>
<path d="M115.659 83.8743C119.502 82.6622 124.098 85.508 124.098 90.5843C124.098 91.3775 123.481 92.0336 122.689 92.0814C121.541 92.1504 120.58 92.1718 119.853 92.1986C119.134 92.2251 118.701 92.2577 118.418 92.3118C118.417 92.3564 118.417 92.4097 118.419 92.473C118.492 92.929 118.623 93.1626 118.735 93.2943C118.851 93.432 119.041 93.5719 119.406 93.6898C120.238 93.9587 121.485 93.9796 123.402 93.9564C123.817 93.9515 124.215 94.1186 124.502 94.4183C124.789 94.718 124.94 95.123 124.917 95.5374L124.096 110.561C124.066 111.113 123.734 111.603 123.234 111.837C122.733 112.071 122.143 112.011 121.7 111.68C118.537 109.316 116.074 105.397 114.37 101.797C112.664 98.1904 111.596 94.6372 111.366 92.8001C111.358 92.7383 111.354 92.676 111.354 92.6136C111.354 91.3797 111.225 89.6908 111.651 88.1908C112.131 86.499 113.261 85.0733 115.43 83.9681L115.542 83.9163C115.581 83.9007 115.62 83.8868 115.659 83.8743ZM120.88 89.1615C120.23 87.1615 118.24 86.2783 116.674 86.7025C115.233 87.4643 114.753 88.2499 114.536 89.0101C114.267 89.9591 114.348 90.9565 114.352 92.4993C114.551 93.9464 115.481 97.1304 117.082 100.514C118.223 102.924 119.645 105.304 121.277 107.177L121.834 96.9593C120.624 96.9432 119.455 96.859 118.482 96.5443C117.731 96.3013 117.009 95.9003 116.444 95.2318C115.878 94.5634 115.565 93.7412 115.437 92.8206C115.431 92.7769 115.426 92.7329 115.424 92.6888C115.392 92.0479 115.43 91.2616 115.866 90.5804C116.346 89.8292 117.088 89.5321 117.706 89.3949C118.297 89.2639 119.013 89.2274 119.742 89.2005C120.095 89.1875 120.471 89.1759 120.88 89.1615Z" fill="white"/>
<path d="M226.963 92.8197C226.556 96.0678 222.959 106.395 217.219 110.685L216.398 95.6621C220.068 95.7065 222.498 95.6621 222.895 92.8197C223.007 90.5765 221.718 91.0609 217.219 90.7902C217.219 86.7276 220.831 84.6033 223.707 85.5107C227.409 87.3968 226.963 89.9773 226.963 92.8197Z" fill="#A0CBEF"/>
<path d="M224.158 84.0805C220.315 82.8684 215.719 85.7142 215.719 90.7905C215.719 91.5837 216.337 92.2398 217.128 92.2876C218.276 92.3566 219.237 92.3779 219.964 92.4047C220.683 92.4312 221.116 92.4639 221.399 92.518C221.4 92.5626 221.4 92.6159 221.398 92.6792C221.325 93.1352 221.194 93.3688 221.083 93.5004C220.966 93.6381 220.776 93.778 220.412 93.896C219.58 94.1649 218.332 94.1857 216.416 94.1626C216.001 94.1576 215.602 94.3248 215.315 94.6245C215.028 94.9241 214.877 95.3292 214.9 95.7436L215.721 110.767C215.752 111.319 216.083 111.809 216.584 112.043C217.084 112.278 217.674 112.217 218.117 111.886C221.28 109.522 223.743 105.604 225.447 102.003C227.154 98.3966 228.221 94.8433 228.452 93.0063C228.459 92.9444 228.463 92.8821 228.463 92.8198C228.463 91.5859 228.593 89.897 228.167 88.3969C227.686 86.7051 226.557 85.2795 224.387 84.1743L224.275 84.1225C224.237 84.1068 224.197 84.093 224.158 84.0805ZM218.937 89.3676C219.587 87.3677 221.577 86.4845 223.143 86.9086C224.584 87.6704 225.065 88.456 225.281 89.2163C225.55 90.1652 225.469 91.1626 225.465 92.7055C225.266 94.1526 224.336 97.3365 222.735 100.72C221.595 103.13 220.173 105.51 218.541 107.383L217.983 97.1655C219.194 97.1493 220.362 97.0652 221.335 96.7504C222.086 96.5075 222.808 96.1065 223.374 95.4379C223.939 94.7696 224.252 93.9474 224.38 93.0268C224.386 92.9831 224.391 92.9391 224.393 92.895C224.425 92.2541 224.387 91.4678 223.952 90.7866C223.471 90.0354 222.729 89.7383 222.111 89.601C221.521 89.4701 220.805 89.4336 220.075 89.4067C219.722 89.3937 219.346 89.3821 218.937 89.3676Z" fill="white"/>
<path d="M189.598 117.382C173.699 120.98 163.495 120.268 148.586 117.788C151.615 126.445 159.549 134.03 168.889 134.03C179.852 134.03 188.317 128.348 189.598 117.382Z" fill="white"/>
<path d="M189.598 117.382C188.317 128.348 179.852 134.03 168.889 134.03V133.03C174.204 133.03 178.833 131.652 182.267 129.024C185.371 126.648 187.559 123.204 188.392 118.671C173.741 121.817 163.784 121.243 150.151 119.053C153.45 126.74 160.666 133.03 168.889 133.03V134.03L168.452 134.024C159.303 133.792 151.568 126.31 148.586 117.788C163.495 120.268 173.699 120.98 189.598 117.382Z" fill="white"/>
<path d="M207.71 112.702C205.895 116.697 202.241 117.747 200.14 114.804C200.14 114.804 195.513 108.499 180.376 105.136L175.751 108.499C172.75 111.452 170.725 112.182 166.079 110.601L161.451 107.238C151.337 107.613 146.313 109.76 137.903 118.167C131.86 113.391 129.494 107.658 129.494 101.353L130.335 69.4069C149.747 65.2373 156.494 65.3316 169.441 65.2063C187.905 64.8925 197.195 66.4673 210.231 69.4066C211.492 75.2915 211.494 91.6851 211.494 91.6851C210.693 104.173 210.231 108.079 207.71 112.702Z" fill="#A0CBEF"/>
<path d="M168.912 64.2064C187.68 63.8913 197.157 65.476 210.4 68.4257C210.798 68.5144 211.108 68.8234 211.193 69.2173C211.854 72.263 212.174 77.9222 212.334 82.7296C212.414 85.1523 212.454 87.3901 212.474 89.0217C212.484 89.8377 212.49 90.5031 212.492 90.9643C212.493 91.1946 212.494 91.3742 212.494 91.4964V91.6842C212.494 91.7061 212.493 91.729 212.492 91.7508C211.686 104.159 211.22 108.306 208.549 113.153C207.546 115.305 205.975 116.822 204.186 117.318C202.308 117.84 200.417 117.168 199.124 115.387L199.116 115.376C199.11 115.369 199.103 115.36 199.094 115.349C199.065 115.313 199.017 115.255 198.948 115.177C198.81 115.021 198.588 114.784 198.272 114.484C197.64 113.885 196.628 113.033 195.142 112.071C192.232 110.189 187.491 107.881 180.213 106.232L175.977 109.274C174.448 110.752 173.027 111.815 171.289 112.231C169.525 112.652 167.612 112.369 165.192 111.555C165.093 111.522 165 111.474 164.915 111.413L160.53 108.267C155.668 108.468 152.089 109.092 148.737 110.607C145.292 112.165 141.999 114.7 137.783 118.864C137.407 119.235 136.81 119.269 136.393 118.944C130.026 113.973 127.494 107.946 127.494 101.341V101.313L128.345 69.4071C128.358 68.9304 128.699 68.5241 129.171 68.4237C148.889 64.2399 155.789 64.3318 168.912 64.2064ZM209.272 70.2956C196.503 67.4697 187.199 65.9668 168.948 66.2731H168.939C156.067 66.3962 149.331 66.3045 130.415 70.2764L129.588 101.368C129.595 107.096 131.665 112.304 136.977 116.743C140.96 112.883 144.288 110.344 147.866 108.727C151.449 107.108 155.205 106.448 159.984 106.22C161.38 99.3149 163.388 93.3965 166.739 87.4063L167.656 87.9061L168.572 88.4069C165.322 94.218 163.371 99.9678 162.008 106.771L166.014 109.645C168.208 110.368 169.63 110.5 170.796 110.221C171.991 109.935 173.094 109.18 174.574 107.741L174.693 107.642L179.37 104.283L179.463 104.223C179.689 104.095 179.956 104.054 180.213 104.11C187.98 105.815 193.094 108.275 196.289 110.342C197.886 111.374 199 112.307 199.723 112.993C200.085 113.336 200.349 113.617 200.527 113.818C200.615 113.918 200.682 113.999 200.729 114.057C200.753 114.086 200.772 114.11 200.785 114.128C200.792 114.137 200.798 114.144 200.803 114.15C200.805 114.153 200.806 114.156 200.808 114.158L200.81 114.161L200.811 114.162C200.808 114.165 200.766 114.196 200.194 114.611L200.812 114.163L200.82 114.174L200.978 114.379C201.777 115.355 202.725 115.576 203.62 115.328C204.654 115.042 205.835 114.058 206.668 112.248L206.702 112.181C209.119 107.803 209.588 104.146 210.4 91.6489V91.5025C210.4 91.382 210.399 91.204 210.398 90.9754C210.395 90.5183 210.39 89.8578 210.38 89.047C210.36 87.425 210.32 85.202 210.241 82.7972C210.091 78.2944 209.804 73.2589 209.272 70.2956Z" fill="white"/>
<path d="M149.804 84.4911C152.495 84.4911 154.677 87.3998 154.677 90.988C154.677 94.5761 152.495 97.4849 149.804 97.4849C147.113 97.4849 144.931 94.5761 144.931 90.988C144.931 87.3998 147.113 84.4911 149.804 84.4911ZM188.379 84.4911C190.846 84.4911 192.846 87.218 192.846 90.5819C192.846 93.9458 190.846 96.6727 188.379 96.6727C185.913 96.6727 183.913 93.9458 183.913 90.5819C183.913 87.218 185.913 84.4911 188.379 84.4911Z" fill="#002553"/>
<path d="M181.762 77.4706C179.329 77.8784 177.705 75.8481 180.544 74.6282C187.856 72.1935 194.759 72.5985 200.846 76.6585C202.473 78.2833 201.256 79.9075 198.816 79.5009C196.789 78.6894 191.511 76.253 181.762 77.4706Z" fill="#002553"/>
<path d="M157.371 77.952C159.777 78.4968 161.514 76.5617 158.748 75.1831C151.585 72.3386 144.67 72.3524 138.363 76.0615C136.647 77.5917 137.77 79.2822 140.229 79.0142C142.299 78.3187 147.707 76.1849 157.371 77.952Z" fill="#002553"/>
<path d="M608.917 57.4721C607.726 57.6887 604.045 58.4467 600.796 59.0964C591.267 61.0454 585.853 63.8607 575.675 72.3067C571.993 75.2303 567.012 82.81 563.223 91.1477C560.84 96.2369 560.191 99.377 559.866 108.148C559 126.881 563.114 138.142 574.917 150.161C604.586 180.48 659.268 165.212 667.822 124.173C669.555 116.052 669.338 103.817 667.389 96.3452C662.733 78.8036 648.115 63.969 630.79 59.4212C624.726 57.797 612.274 56.7142 608.917 57.4721ZM625.809 84.6508C634.039 87.8992 639.994 97.5363 640.644 108.906C641.727 126.339 632.739 138.9 617.905 140.741C598.197 143.231 584.229 126.772 588.019 105.549C591.267 86.9247 608.051 77.6125 625.809 84.6508Z" fill="#3E80FF"/>
<path d="M1071.06 58.9881C1064.67 60.2875 1053.74 65.8098 1048.11 70.5742C1042.69 75.2303 1036.2 84.4342 1033.6 91.2559C1027.75 106.199 1030.24 131.103 1038.79 143.339C1042.15 148.104 1053.52 158.39 1057.74 160.448C1070.2 166.512 1090.12 168.352 1104.3 164.671C1112.86 162.505 1123.58 157.199 1129.32 152.327L1133.54 148.645V126.556V104.466H1109.72H1085.9V115.294V126.123H1096.18H1106.47V132.078C1106.47 137.925 1106.47 138.034 1101.92 140.199C1095.1 143.448 1080.81 143.448 1074.31 140.091C1063.7 134.677 1058.07 123.524 1059.04 109.88C1060.23 93.7464 1072.47 81.7272 1087.52 81.7272C1094.02 81.7272 1099.11 84.2176 1103.55 89.4151L1107.44 93.8547L1119.9 90.9311C1126.83 89.4152 1132.46 87.6826 1132.46 87.2495C1132.46 85.0839 1124.23 73.0647 1120.22 69.3831C1114.48 64.1856 1109.39 61.5868 1100.84 59.5295C1093.58 57.797 1078.53 57.5804 1071.06 58.9881Z" fill="#3E80FF"/>
<path d="M408.055 61.4793C408.055 62.887 408.488 64.4029 409.029 64.9443C409.571 65.594 410.329 67.4348 410.545 69.2756C410.87 71.0081 411.412 73.282 411.736 74.1482C412.061 75.0145 412.603 77.1801 412.928 79.0209C413.686 82.7025 413.902 83.677 414.877 86.0592C415.201 86.9254 419.424 103.276 424.297 122.333C429.17 141.391 433.718 158.824 434.367 160.99L435.667 165.105H450.501H465.336L466.96 161.531C467.934 159.691 469.126 155.901 469.667 153.194C470.208 150.487 471.183 146.588 471.833 144.531C477.572 124.283 481.686 109.015 481.686 107.391C481.686 103.059 483.419 106.091 485.26 113.996C486.451 118.544 487.75 122.767 488.183 123.416C488.616 123.958 490.132 128.614 491.432 133.703C492.731 138.792 494.463 145.073 495.221 147.78C496.088 150.487 497.495 155.468 498.47 158.933L500.202 165.213L514.929 164.888L529.655 164.563L538.209 132.079C542.865 114.212 546.98 98.0784 547.305 96.3459C547.521 94.5051 548.279 92.1229 548.821 90.9318C549.362 89.7408 550.012 87.5751 550.337 86.0592C550.553 84.5432 552.286 78.2629 554.126 71.9826C555.967 65.7023 557.483 60.2882 557.483 59.7468C557.483 59.3137 550.986 58.9888 543.19 58.9888H528.789L521.859 91.7981C518.069 109.773 514.387 125.69 513.846 127.206C512.763 130.021 512.33 128.722 501.069 81.1865C499.228 73.3903 497.17 65.2692 496.521 62.9952L495.221 58.9888H483.202H471.291L467.718 73.282C465.769 81.1865 463.82 88.6579 463.278 89.849C462.737 91.0401 462.087 93.4223 461.762 95.2631C461.113 99.1612 454.832 124.932 453.966 127.206C453.425 128.614 448.985 113.779 447.469 105.008C447.036 103.168 446.386 100.894 445.845 99.9192C445.304 98.9447 444.871 96.6708 444.871 95.0465C444.871 93.314 444.437 91.4733 443.896 90.8236C443.355 90.2822 442.705 88.3331 442.38 86.6006C442.164 84.7598 441.73 82.5942 441.297 81.7279C440.972 80.8617 439.565 75.3393 438.265 69.4921L435.775 58.9888H421.915C408.163 58.9888 408.055 58.9888 408.055 61.4793Z" fill="#3E80FF"/>
<path d="M680.924 111.937V165.103H695.001H709.077V146.154C709.077 121.141 709.185 121.141 725.319 145.721C732.033 155.9 738.097 164.454 738.855 164.67C739.504 164.995 746.976 164.995 755.422 164.887L770.689 164.562L756.721 145.613C749.033 135.218 742.644 126.339 742.644 126.014C742.644 125.689 744.702 124.714 747.3 123.848C753.797 121.683 760.511 114.644 762.568 107.606C764.734 100.459 764.734 89.1982 762.676 82.1599C760.619 75.3382 753.364 67.0005 745.785 62.7775L739.937 59.5291L710.485 59.2042L680.924 58.8794V111.937ZM729.001 83.2427C733.982 85.3001 736.147 88.7651 736.147 94.9371C736.147 104.358 729.651 108.689 715.357 108.797H709.077V95.2619V81.7268H717.198C721.746 81.7268 726.944 82.3765 729.001 83.2427Z" fill="#3E80FF"/>
<path d="M778.919 60.2882C778.594 61.0462 778.486 84.8681 778.594 113.13L778.919 164.563L792.671 164.888L806.531 165.213L806.747 144.423C806.964 131.754 807.505 123.525 808.155 123.308C808.804 123.091 816.059 132.295 824.505 143.773L839.773 164.563L857.315 164.78C866.843 164.888 874.748 164.671 874.748 164.347C874.748 164.022 871.175 159.366 866.843 153.843C862.512 148.429 855.582 139.55 851.467 134.244C847.244 128.83 841.83 122.009 839.448 118.868C836.958 115.837 834.575 112.263 834.142 111.072C833.276 108.365 832.626 109.556 859.913 71.9826L869.334 58.8806L852.875 59.2054L836.308 59.5302L823.098 79.0209C815.843 89.7408 809.887 99.1612 809.887 99.9192C809.779 100.785 809.129 101.219 808.48 101.002C807.397 100.569 806.964 95.1548 806.747 79.7789L806.531 58.9888H792.887C783.142 58.9888 779.244 59.3137 778.919 60.2882Z" fill="#3E80FF"/>
<path d="M882.327 112.046V165.103H896.404H910.481V112.046V58.9877H896.404H882.327V112.046Z" fill="#3E80FF"/>
<path d="M927.806 112.046V165.103H940.908H954.118L953.36 133.16C952.927 115.619 952.819 101.217 953.035 101.217C953.36 101.217 954.984 103.491 956.608 106.307C958.341 109.23 960.29 112.479 961.048 113.67C961.806 114.861 962.78 116.593 963.214 117.46C963.972 119.084 982.055 148.97 984.112 152.11C984.762 152.976 986.711 156.333 988.551 159.365L991.908 165.103H1005.88H1019.84V112.046V58.9877H1006.53H993.208L993.641 87.3574C993.857 103.058 993.966 117.027 993.749 118.434C993.424 120.6 991.583 118.218 984.762 106.523C969.711 80.8605 965.379 73.7139 960.615 66.2425L955.959 58.9877H941.882H927.806V112.046Z" fill="#3E80FF"/>
<path d="M726.403 188.277C726.078 188.601 724.237 189.143 722.288 189.468C701.173 193.149 684.065 210.258 679.842 232.022C677.135 245.449 680.275 263.424 686.988 273.927C699.549 293.418 726.944 303.596 749.142 296.991C753.798 295.692 764.409 290.711 766.034 289.087C766.683 288.545 768.849 286.813 770.906 285.405C778.811 279.991 787.149 265.373 789.314 253.354C793.537 229.099 781.626 204.627 760.836 194.557C754.664 191.525 751.741 190.551 745.352 189.251C741.237 188.385 726.944 187.627 726.403 188.277ZM745.677 214.806C749.791 216.971 756.18 223.252 758.562 227.474C759.212 228.774 760.403 232.78 761.053 236.462C763.868 251.838 756.83 266.456 744.053 271.762C739.288 273.819 728.568 273.819 723.912 271.87C713.842 267.647 706.695 255.411 707.02 243.175C707.67 224.767 718.606 212.748 734.74 212.748C739.396 212.748 742.97 213.398 745.677 214.806Z" fill="#3E80FF"/>
<path d="M501.178 243.5V297.208H515.254H529.331V279.883V262.558H542.325C558.892 262.558 566.905 260.176 574.051 253.354C581.198 246.316 583.797 240.144 584.338 228.341C584.988 215.347 583.039 209.175 576.109 202.137C573.293 199.321 568.096 195.64 564.523 193.799L558.026 190.659L529.656 190.226L501.178 189.793V243.5ZM546.548 212.315C548.389 212.748 551.42 214.373 553.153 215.997C556.185 218.812 556.401 219.678 556.401 226.284C556.401 232.997 556.185 233.755 553.045 236.679C549.038 240.36 543.949 241.984 535.611 241.984H529.331V226.825V211.666H536.261C540.051 211.666 544.707 211.99 546.548 212.315Z" fill="#3E80FF"/>
<path d="M597.548 243.609V297.208H632.739H667.931V285.297V273.386H646.816H625.593L625.918 263.857L626.242 254.437H644.867H663.6V243.284V232.239H644.65H625.701V222.494V212.748H646.816H667.931V201.379V190.009H632.739H597.548V243.609Z" fill="#3E80FF"/>
<path d="M803.283 242.416C803.283 271.327 803.283 295.366 803.283 295.799C803.283 296.34 809.455 296.665 817.143 296.665H830.895L831.22 279.773L831.436 262.773L846.92 262.34C859.914 262.015 863.163 261.582 867.71 259.525C874.532 256.385 881.57 249.563 883.953 243.716C884.927 241.334 886.227 238.41 886.768 237.435C888.067 234.945 888.067 217.62 886.768 215.129C886.227 214.155 885.144 211.881 884.386 210.257C881.679 204.41 875.723 198.887 868.035 194.773L860.131 190.658L831.761 190.225L803.283 189.792V242.416ZM849.952 212.639C851.468 212.964 854.067 214.371 855.799 215.779C858.615 217.945 859.048 219.136 859.373 225.308C859.806 232.13 859.806 232.238 855.583 236.461C852.118 240.034 850.385 240.792 845.513 241.442C837.5 242.416 830.895 241.767 831.003 240.034C831.111 239.384 831.22 232.671 831.328 225.2L831.436 211.664L839.341 211.773C843.564 211.881 848.328 212.206 849.952 212.639Z" fill="#3E80FF"/>
<path d="M900.519 243.284L900.844 296.666L935.494 296.991L970.035 297.208V284.755V272.303H948.92H927.806V231.156V190.009H913.946H900.194L900.519 243.284Z" fill="#3E80FF"/>
<path d="M983.029 243.609V297.208H1018.22H1053.41V285.297V273.386H1031.76H1009.99L1010.32 264.074L1010.64 254.762L1029.59 254.545L1048.54 254.437L1048.86 243.284L1049.19 232.239H1029.59H1010.1V222.494V212.748H1031.11H1052.11L1052 201.595L1051.79 190.551L1017.46 190.226L983.029 190.009V243.609Z" fill="#3E80FF"/>
<path d="M340.898 137.684C340.898 116.69 323.88 99.6719 302.887 99.6719C281.894 99.6719 264.875 116.69 264.875 137.684C264.875 158.677 281.894 175.695 302.887 175.695V178.695L301.828 178.682C280.019 178.129 262.441 160.551 261.889 138.742L261.875 137.684C261.875 115.034 280.237 96.6719 302.887 96.6719L303.945 96.6855C326.106 97.2471 343.898 115.388 343.898 137.684L343.885 138.742C343.323 160.903 325.183 178.695 302.887 178.695V175.695C323.88 175.695 340.898 158.677 340.898 137.684Z" fill="#072D5E"/>
<path d="M334.965 137.683C334.965 119.967 320.603 105.605 302.887 105.605C285.17 105.605 270.808 119.967 270.808 137.683C270.808 155.4 285.17 169.762 302.887 169.762V174.634C282.479 174.634 265.936 158.091 265.936 137.683C265.936 117.276 282.479 100.732 302.887 100.732C323.294 100.732 339.838 117.276 339.838 137.683C339.838 158.091 323.294 174.634 302.887 174.634V169.762C320.603 169.762 334.965 155.4 334.965 137.683Z" fill="#5098D3"/>
<path d="M330.092 137.684C330.092 152.71 318.094 164.89 303.293 164.89C288.492 164.89 276.493 152.71 276.493 137.684C276.493 122.659 288.492 110.479 303.293 110.479C318.094 110.479 330.092 122.659 330.092 137.684Z" fill="#072D5E"/>
<path d="M326.093 137.685C326.093 124.812 315.828 114.479 303.293 114.479C290.758 114.479 280.493 124.811 280.493 137.685C280.493 150.557 290.758 160.89 303.293 160.89V164.89L302.602 164.881C288.35 164.515 276.863 152.854 276.502 138.387L276.493 137.685C276.493 122.659 288.492 110.479 303.293 110.479L303.984 110.487C318.466 110.86 330.093 122.894 330.093 137.685L330.084 138.387C329.717 153.087 317.863 164.89 303.293 164.89V160.89C315.828 160.89 326.093 150.557 326.093 137.685Z" fill="#072D5E"/>
<path d="M318.536 131.394C319.007 126.889 315.543 124.623 310.878 123.21L312.115 117.081L308.433 116.314L307.229 122.281C306.263 122.079 305.27 121.893 304.283 121.707L305.496 115.701L301.818 114.934L300.58 121.06C299.779 120.91 298.994 120.762 298.231 120.604L298.234 120.584L293.158 119.524L292.355 123.508C292.355 123.508 295.084 124.023 295.028 124.064C296.519 124.375 296.828 125.354 296.815 126.14L295.406 133.122C295.509 133.144 295.643 133.177 295.79 133.229L295.402 133.149L293.426 142.929C293.265 143.391 292.836 144.092 291.794 143.877C291.833 143.929 289.119 143.318 289.119 143.318L287.489 147.621L292.279 148.62C293.17 148.807 294.044 149.005 294.903 149.191L293.654 155.39L297.33 156.158L298.569 150.025C299.573 150.257 300.548 150.469 301.502 150.667L300.268 156.771L303.949 157.538L305.199 151.351C311.459 152.282 316.109 151.605 317.834 145.829C319.225 141.177 317.452 138.602 314.112 137.013C316.468 136.355 318.195 134.693 318.536 131.394ZM310.711 143.574C309.777 148.207 302.059 146.049 299.563 145.53L301.222 137.318C303.717 137.839 311.683 138.743 310.711 143.574ZM311.336 131.63C310.485 135.844 304.058 133.992 301.979 133.558L303.483 126.11C305.562 126.543 312.224 127.235 311.336 131.63Z" fill="#B2D2F1"/>
<path d="M291.518 163.266C286.675 165.388 285.089 167.064 283.396 170.575C278.93 172.605 275.351 177.523 274.463 182.756C271.215 184.381 269.046 187.477 270.403 193.72C263.835 199.382 264.096 203.92 270.403 211.586C262.281 218.895 250.506 229.047 248.882 240.822C248.651 253.031 251.104 258.416 261.469 265.998C272.433 271.683 291.923 265.186 298.421 246.913C304.105 227.423 305.653 216.681 313.039 198.999C314.542 192.486 314.557 188.578 313.039 181.132C307.921 172.824 303.766 168.61 291.518 163.266Z" fill="#A0CAEF"/>
<path d="M292.117 161.891C298.309 164.593 302.561 167.054 305.93 169.95C309.096 172.674 311.416 175.725 313.831 179.567L314.316 180.346L314.455 180.571L314.508 180.832C315.277 184.602 315.674 187.552 315.672 190.416C315.67 193.289 315.267 196.014 314.5 199.336L314.472 199.46L314.423 199.576C307.079 217.159 305.594 227.674 299.86 247.333L299.849 247.375L299.834 247.416C296.44 256.961 289.641 263.451 282.239 266.806C274.88 270.141 266.77 270.435 260.779 267.329L260.677 267.277L260.584 267.208C255.327 263.363 251.894 259.948 249.857 255.808C247.819 251.667 247.265 246.981 247.382 240.794L247.384 240.705L247.396 240.617C248.265 234.317 251.825 228.571 256.061 223.561C259.942 218.969 264.51 214.863 268.349 211.416C265.702 208.006 264.111 204.944 264.075 201.919C264.038 198.684 265.764 195.909 268.767 193.165C268.253 190.24 268.474 187.843 269.335 185.899C270.173 184.008 271.548 182.693 273.126 181.774C274.242 176.567 277.764 171.72 282.282 169.445C283.099 167.825 283.974 166.487 285.257 165.299C286.648 164.011 288.429 162.981 290.915 161.892L291.516 161.629L292.117 161.891ZM291.524 164.908C289.517 165.827 288.24 166.625 287.295 167.5C286.569 168.172 285.995 168.93 285.433 169.914C292.561 173.469 297.385 176.147 303.855 181.611L301.919 183.903C295.509 178.489 290.834 175.945 283.394 172.25C280.105 174.008 277.361 177.582 276.264 181.564C284.966 183.331 289.407 187.171 296.563 193.401L294.593 195.663C287.189 189.218 283.221 185.833 274.713 184.322C273.525 184.997 272.619 185.891 272.077 187.113C271.505 188.405 271.266 190.231 271.757 192.852L287.937 204.691L286.165 207.112L270.502 195.652C268.001 198.012 267.052 199.958 267.074 201.884C267.1 204.11 268.41 206.78 271.469 210.52L284.342 220.98L282.45 223.308L270.452 213.559C266.575 217.041 262.12 221.04 258.352 225.498C254.286 230.308 251.157 235.495 250.38 240.938C250.273 246.912 250.834 251 252.548 254.483C254.259 257.959 257.207 261.009 262.254 264.712C267.223 267.241 274.292 267.114 281.001 264.073C287.702 261.036 293.889 255.151 296.995 246.44C302.605 227.195 304.226 216.237 311.603 198.544C312.321 195.41 312.67 192.954 312.672 190.414C312.674 187.897 312.333 185.237 311.619 181.692C309.154 177.713 306.958 174.791 303.974 172.225C301.026 169.69 297.239 167.441 291.524 164.908Z" fill="white"/>
</svg>
